M48
; DRILL file {KiCad 7.0.8} date Fri 10 Nov 2023 01:16:14 AM CST
; FORMAT={-:-/ absolute / inch / decimal}
; #@! TF.CreationDate,2023-11-10T01:16:14-06:00
; #@! TF.GenerationSoftware,Kicad,Pcbnew,7.0.8
; #@! TF.FileFunction,Plated,1,2,PTH
FMAT,2
INCH
; #@! TA.AperFunction,Plated,PTH,ComponentDrill
T1C0.0118
; #@! TA.AperFunction,Plated,PTH,ViaDrill
T2C0.0157
; #@! TA.AperFunction,Plated,PTH,ComponentDrill
T3C0.0394
; #@! TA.AperFunction,Plated,PTH,ComponentDrill
T4C0.0472
%
G90
G05
T1
X4.9144Y-2.3007
X4.9144Y-2.3519
X4.9144Y-2.4031
X4.9144Y-2.4543
X4.9144Y-3.5102
X4.9144Y-3.5614
X4.9144Y-3.6126
X4.9144Y-3.6638
X4.9656Y-2.3007
X4.9656Y-2.3519
X4.9656Y-2.4031
X4.9656Y-2.4543
X4.9656Y-3.5102
X4.9656Y-3.5614
X4.9656Y-3.6126
X4.9656Y-3.6638
T2
X4.3Y-2.4
X4.3Y-2.7
X4.3Y-3.2
X4.3Y-3.5
X4.3Y-3.8
X4.3569Y-2.265
X4.365Y-2.8
X4.365Y-3.025
X4.5952Y-2.7285
X4.6Y-3.8
X4.6183Y-2.77
X4.636Y-2.81
X4.66Y-2.85
X4.7231Y-2.315
X4.7231Y-2.365
X4.7231Y-2.415
X4.7231Y-2.615
X4.7231Y-2.665
X4.772Y-2.8
X4.772Y-2.91
X4.8337Y-2.3525
X4.8337Y-3.612
X4.8337Y-3.662
X4.9Y-2.1
X4.9Y-2.92
X4.97Y-2.6
X5.08Y-3.81
X5.0952Y-2.6726
X5.0952Y-3.18
X5.1Y-2.8375
X5.1Y-2.9025
X5.1Y-2.9675
X5.1587Y-2.6726
X5.1848Y-2.71
X5.1848Y-3.1426
X5.1848Y-3.1819
X5.19Y-2.3965
X5.19Y-3.668
X5.2Y-2.1
X5.3Y-3.14
X5.555Y-2.8426
X5.6Y-3.8
X5.62Y-2.68
X5.73Y-2.87
X5.73Y-3.01
X5.73Y-3.0705
X5.73Y-3.1375
X5.8426Y-2.6852
X5.9Y-2.1
X5.9Y-2.9
X5.9Y-3.5
X5.9Y-3.8
X5.93Y-2.56
X5.93Y-3.35
X6.05Y-2.66
X6.05Y-3.1
X6.06Y-2.56
X6.06Y-3.35
X6.2Y-2.1
X6.2Y-2.4
X6.2Y-2.9
X6.2Y-3.2
X6.2Y-3.5
X6.2Y-3.8
T3
X4.4054Y-2.129
X4.5054Y-2.129
X4.6054Y-2.129
X4.7054Y-2.129
X4.96Y-2.73
X4.96Y-2.83
X4.96Y-2.93
X4.96Y-3.03
X4.96Y-3.13
X4.96Y-3.23
X6.199Y-2.5592
X6.199Y-2.6592
X6.2Y-3.27
X6.2Y-3.37
T4
X5.45Y-3.47
X5.45Y-3.6275
X5.4502Y-2.2611
X5.4502Y-2.4186
X5.6469Y-3.47
X5.6469Y-3.6275
X5.6471Y-2.2611
X5.6471Y-2.4186
T3
G00X4.5488Y-3.2256
M15
G01X4.5488Y-3.3044
M16
G05
G00X4.6275Y-3.45
M15
G01X4.7063Y-3.45
M16
G05
G00X4.785Y-3.2256
M15
G01X4.785Y-3.3044
M16
G05
T0
M30
