%TF.GenerationSoftware,KiCad,Pcbnew,7.0.8*%
%TF.CreationDate,2023-11-10T01:16:26-06:00*%
%TF.ProjectId,LightingBoard,4c696768-7469-46e6-9742-6f6172642e6b,rev?*%
%TF.SameCoordinates,Original*%
%TF.FileFunction,Legend,Top*%
%TF.FilePolarity,Positive*%
%FSLAX46Y46*%
G04 Gerber Fmt 4.6, Leading zero omitted, Abs format (unit mm)*
G04 Created by KiCad (PCBNEW 7.0.8) date 2023-11-10 01:16:26*
%MOMM*%
%LPD*%
G01*
G04 APERTURE LIST*
%ADD10C,0.329000*%
%ADD11C,0.150000*%
%ADD12C,0.254000*%
%ADD13C,0.120000*%
%ADD14C,0.152400*%
%ADD15C,0.100000*%
%ADD16C,0.200000*%
G04 APERTURE END LIST*
D10*
X109130500Y-57404000D02*
G75*
G03*
X109130500Y-57404000I-164500J0D01*
G01*
X121576500Y-58166000D02*
G75*
G03*
X121576500Y-58166000I-164500J0D01*
G01*
X133260500Y-69850000D02*
G75*
G03*
X133260500Y-69850000I-164500J0D01*
G01*
X142658500Y-70612000D02*
G75*
G03*
X142658500Y-70612000I-164500J0D01*
G01*
X133260500Y-81788000D02*
G75*
G03*
X133260500Y-81788000I-164500J0D01*
G01*
X121322500Y-89154000D02*
G75*
G03*
X121322500Y-89154000I-164500J0D01*
G01*
D11*
X122468819Y-65857857D02*
X121992628Y-66191190D01*
X122468819Y-66429285D02*
X121468819Y-66429285D01*
X121468819Y-66429285D02*
X121468819Y-66048333D01*
X121468819Y-66048333D02*
X121516438Y-65953095D01*
X121516438Y-65953095D02*
X121564057Y-65905476D01*
X121564057Y-65905476D02*
X121659295Y-65857857D01*
X121659295Y-65857857D02*
X121802152Y-65857857D01*
X121802152Y-65857857D02*
X121897390Y-65905476D01*
X121897390Y-65905476D02*
X121945009Y-65953095D01*
X121945009Y-65953095D02*
X121992628Y-66048333D01*
X121992628Y-66048333D02*
X121992628Y-66429285D01*
X121564057Y-65476904D02*
X121516438Y-65429285D01*
X121516438Y-65429285D02*
X121468819Y-65334047D01*
X121468819Y-65334047D02*
X121468819Y-65095952D01*
X121468819Y-65095952D02*
X121516438Y-65000714D01*
X121516438Y-65000714D02*
X121564057Y-64953095D01*
X121564057Y-64953095D02*
X121659295Y-64905476D01*
X121659295Y-64905476D02*
X121754533Y-64905476D01*
X121754533Y-64905476D02*
X121897390Y-64953095D01*
X121897390Y-64953095D02*
X122468819Y-65524523D01*
X122468819Y-65524523D02*
X122468819Y-64905476D01*
X122468819Y-63953095D02*
X122468819Y-64524523D01*
X122468819Y-64238809D02*
X121468819Y-64238809D01*
X121468819Y-64238809D02*
X121611676Y-64334047D01*
X121611676Y-64334047D02*
X121706914Y-64429285D01*
X121706914Y-64429285D02*
X121754533Y-64524523D01*
X121740819Y-69318094D02*
X120740819Y-69318094D01*
X120740819Y-69318094D02*
X120740819Y-69079999D01*
X120740819Y-69079999D02*
X120788438Y-68937142D01*
X120788438Y-68937142D02*
X120883676Y-68841904D01*
X120883676Y-68841904D02*
X120978914Y-68794285D01*
X120978914Y-68794285D02*
X121169390Y-68746666D01*
X121169390Y-68746666D02*
X121312247Y-68746666D01*
X121312247Y-68746666D02*
X121502723Y-68794285D01*
X121502723Y-68794285D02*
X121597961Y-68841904D01*
X121597961Y-68841904D02*
X121693200Y-68937142D01*
X121693200Y-68937142D02*
X121740819Y-69079999D01*
X121740819Y-69079999D02*
X121740819Y-69318094D01*
X121740819Y-67794285D02*
X121740819Y-68365713D01*
X121740819Y-68079999D02*
X120740819Y-68079999D01*
X120740819Y-68079999D02*
X120883676Y-68175237D01*
X120883676Y-68175237D02*
X120978914Y-68270475D01*
X120978914Y-68270475D02*
X121026533Y-68365713D01*
X108926333Y-73130580D02*
X108878714Y-73178200D01*
X108878714Y-73178200D02*
X108735857Y-73225819D01*
X108735857Y-73225819D02*
X108640619Y-73225819D01*
X108640619Y-73225819D02*
X108497762Y-73178200D01*
X108497762Y-73178200D02*
X108402524Y-73082961D01*
X108402524Y-73082961D02*
X108354905Y-72987723D01*
X108354905Y-72987723D02*
X108307286Y-72797247D01*
X108307286Y-72797247D02*
X108307286Y-72654390D01*
X108307286Y-72654390D02*
X108354905Y-72463914D01*
X108354905Y-72463914D02*
X108402524Y-72368676D01*
X108402524Y-72368676D02*
X108497762Y-72273438D01*
X108497762Y-72273438D02*
X108640619Y-72225819D01*
X108640619Y-72225819D02*
X108735857Y-72225819D01*
X108735857Y-72225819D02*
X108878714Y-72273438D01*
X108878714Y-72273438D02*
X108926333Y-72321057D01*
X109878714Y-73225819D02*
X109307286Y-73225819D01*
X109593000Y-73225819D02*
X109593000Y-72225819D01*
X109593000Y-72225819D02*
X109497762Y-72368676D01*
X109497762Y-72368676D02*
X109402524Y-72463914D01*
X109402524Y-72463914D02*
X109307286Y-72511533D01*
X149523580Y-64240666D02*
X149571200Y-64288285D01*
X149571200Y-64288285D02*
X149618819Y-64431142D01*
X149618819Y-64431142D02*
X149618819Y-64526380D01*
X149618819Y-64526380D02*
X149571200Y-64669237D01*
X149571200Y-64669237D02*
X149475961Y-64764475D01*
X149475961Y-64764475D02*
X149380723Y-64812094D01*
X149380723Y-64812094D02*
X149190247Y-64859713D01*
X149190247Y-64859713D02*
X149047390Y-64859713D01*
X149047390Y-64859713D02*
X148856914Y-64812094D01*
X148856914Y-64812094D02*
X148761676Y-64764475D01*
X148761676Y-64764475D02*
X148666438Y-64669237D01*
X148666438Y-64669237D02*
X148618819Y-64526380D01*
X148618819Y-64526380D02*
X148618819Y-64431142D01*
X148618819Y-64431142D02*
X148666438Y-64288285D01*
X148666438Y-64288285D02*
X148714057Y-64240666D01*
X149618819Y-63764475D02*
X149618819Y-63573999D01*
X149618819Y-63573999D02*
X149571200Y-63478761D01*
X149571200Y-63478761D02*
X149523580Y-63431142D01*
X149523580Y-63431142D02*
X149380723Y-63335904D01*
X149380723Y-63335904D02*
X149190247Y-63288285D01*
X149190247Y-63288285D02*
X148809295Y-63288285D01*
X148809295Y-63288285D02*
X148714057Y-63335904D01*
X148714057Y-63335904D02*
X148666438Y-63383523D01*
X148666438Y-63383523D02*
X148618819Y-63478761D01*
X148618819Y-63478761D02*
X148618819Y-63669237D01*
X148618819Y-63669237D02*
X148666438Y-63764475D01*
X148666438Y-63764475D02*
X148714057Y-63812094D01*
X148714057Y-63812094D02*
X148809295Y-63859713D01*
X148809295Y-63859713D02*
X149047390Y-63859713D01*
X149047390Y-63859713D02*
X149142628Y-63812094D01*
X149142628Y-63812094D02*
X149190247Y-63764475D01*
X149190247Y-63764475D02*
X149237866Y-63669237D01*
X149237866Y-63669237D02*
X149237866Y-63478761D01*
X149237866Y-63478761D02*
X149190247Y-63383523D01*
X149190247Y-63383523D02*
X149142628Y-63335904D01*
X149142628Y-63335904D02*
X149047390Y-63288285D01*
X141932819Y-81160857D02*
X141456628Y-81494190D01*
X141932819Y-81732285D02*
X140932819Y-81732285D01*
X140932819Y-81732285D02*
X140932819Y-81351333D01*
X140932819Y-81351333D02*
X140980438Y-81256095D01*
X140980438Y-81256095D02*
X141028057Y-81208476D01*
X141028057Y-81208476D02*
X141123295Y-81160857D01*
X141123295Y-81160857D02*
X141266152Y-81160857D01*
X141266152Y-81160857D02*
X141361390Y-81208476D01*
X141361390Y-81208476D02*
X141409009Y-81256095D01*
X141409009Y-81256095D02*
X141456628Y-81351333D01*
X141456628Y-81351333D02*
X141456628Y-81732285D01*
X141932819Y-80208476D02*
X141932819Y-80779904D01*
X141932819Y-80494190D02*
X140932819Y-80494190D01*
X140932819Y-80494190D02*
X141075676Y-80589428D01*
X141075676Y-80589428D02*
X141170914Y-80684666D01*
X141170914Y-80684666D02*
X141218533Y-80779904D01*
X140932819Y-79875142D02*
X140932819Y-79208476D01*
X140932819Y-79208476D02*
X141932819Y-79637047D01*
X118483142Y-74368819D02*
X118149809Y-73892628D01*
X117911714Y-74368819D02*
X117911714Y-73368819D01*
X117911714Y-73368819D02*
X118292666Y-73368819D01*
X118292666Y-73368819D02*
X118387904Y-73416438D01*
X118387904Y-73416438D02*
X118435523Y-73464057D01*
X118435523Y-73464057D02*
X118483142Y-73559295D01*
X118483142Y-73559295D02*
X118483142Y-73702152D01*
X118483142Y-73702152D02*
X118435523Y-73797390D01*
X118435523Y-73797390D02*
X118387904Y-73845009D01*
X118387904Y-73845009D02*
X118292666Y-73892628D01*
X118292666Y-73892628D02*
X117911714Y-73892628D01*
X118864095Y-73464057D02*
X118911714Y-73416438D01*
X118911714Y-73416438D02*
X119006952Y-73368819D01*
X119006952Y-73368819D02*
X119245047Y-73368819D01*
X119245047Y-73368819D02*
X119340285Y-73416438D01*
X119340285Y-73416438D02*
X119387904Y-73464057D01*
X119387904Y-73464057D02*
X119435523Y-73559295D01*
X119435523Y-73559295D02*
X119435523Y-73654533D01*
X119435523Y-73654533D02*
X119387904Y-73797390D01*
X119387904Y-73797390D02*
X118816476Y-74368819D01*
X118816476Y-74368819D02*
X119435523Y-74368819D01*
X120054571Y-73368819D02*
X120149809Y-73368819D01*
X120149809Y-73368819D02*
X120245047Y-73416438D01*
X120245047Y-73416438D02*
X120292666Y-73464057D01*
X120292666Y-73464057D02*
X120340285Y-73559295D01*
X120340285Y-73559295D02*
X120387904Y-73749771D01*
X120387904Y-73749771D02*
X120387904Y-73987866D01*
X120387904Y-73987866D02*
X120340285Y-74178342D01*
X120340285Y-74178342D02*
X120292666Y-74273580D01*
X120292666Y-74273580D02*
X120245047Y-74321200D01*
X120245047Y-74321200D02*
X120149809Y-74368819D01*
X120149809Y-74368819D02*
X120054571Y-74368819D01*
X120054571Y-74368819D02*
X119959333Y-74321200D01*
X119959333Y-74321200D02*
X119911714Y-74273580D01*
X119911714Y-74273580D02*
X119864095Y-74178342D01*
X119864095Y-74178342D02*
X119816476Y-73987866D01*
X119816476Y-73987866D02*
X119816476Y-73749771D01*
X119816476Y-73749771D02*
X119864095Y-73559295D01*
X119864095Y-73559295D02*
X119911714Y-73464057D01*
X119911714Y-73464057D02*
X119959333Y-73416438D01*
X119959333Y-73416438D02*
X120054571Y-73368819D01*
X152603580Y-86748857D02*
X152651200Y-86796476D01*
X152651200Y-86796476D02*
X152698819Y-86939333D01*
X152698819Y-86939333D02*
X152698819Y-87034571D01*
X152698819Y-87034571D02*
X152651200Y-87177428D01*
X152651200Y-87177428D02*
X152555961Y-87272666D01*
X152555961Y-87272666D02*
X152460723Y-87320285D01*
X152460723Y-87320285D02*
X152270247Y-87367904D01*
X152270247Y-87367904D02*
X152127390Y-87367904D01*
X152127390Y-87367904D02*
X151936914Y-87320285D01*
X151936914Y-87320285D02*
X151841676Y-87272666D01*
X151841676Y-87272666D02*
X151746438Y-87177428D01*
X151746438Y-87177428D02*
X151698819Y-87034571D01*
X151698819Y-87034571D02*
X151698819Y-86939333D01*
X151698819Y-86939333D02*
X151746438Y-86796476D01*
X151746438Y-86796476D02*
X151794057Y-86748857D01*
X152698819Y-85796476D02*
X152698819Y-86367904D01*
X152698819Y-86082190D02*
X151698819Y-86082190D01*
X151698819Y-86082190D02*
X151841676Y-86177428D01*
X151841676Y-86177428D02*
X151936914Y-86272666D01*
X151936914Y-86272666D02*
X151984533Y-86367904D01*
X152032152Y-84939333D02*
X152698819Y-84939333D01*
X151651200Y-85177428D02*
X152365485Y-85415523D01*
X152365485Y-85415523D02*
X152365485Y-84796476D01*
X136184819Y-69000666D02*
X135708628Y-69333999D01*
X136184819Y-69572094D02*
X135184819Y-69572094D01*
X135184819Y-69572094D02*
X135184819Y-69191142D01*
X135184819Y-69191142D02*
X135232438Y-69095904D01*
X135232438Y-69095904D02*
X135280057Y-69048285D01*
X135280057Y-69048285D02*
X135375295Y-69000666D01*
X135375295Y-69000666D02*
X135518152Y-69000666D01*
X135518152Y-69000666D02*
X135613390Y-69048285D01*
X135613390Y-69048285D02*
X135661009Y-69095904D01*
X135661009Y-69095904D02*
X135708628Y-69191142D01*
X135708628Y-69191142D02*
X135708628Y-69572094D01*
X135184819Y-68143523D02*
X135184819Y-68333999D01*
X135184819Y-68333999D02*
X135232438Y-68429237D01*
X135232438Y-68429237D02*
X135280057Y-68476856D01*
X135280057Y-68476856D02*
X135422914Y-68572094D01*
X135422914Y-68572094D02*
X135613390Y-68619713D01*
X135613390Y-68619713D02*
X135994342Y-68619713D01*
X135994342Y-68619713D02*
X136089580Y-68572094D01*
X136089580Y-68572094D02*
X136137200Y-68524475D01*
X136137200Y-68524475D02*
X136184819Y-68429237D01*
X136184819Y-68429237D02*
X136184819Y-68238761D01*
X136184819Y-68238761D02*
X136137200Y-68143523D01*
X136137200Y-68143523D02*
X136089580Y-68095904D01*
X136089580Y-68095904D02*
X135994342Y-68048285D01*
X135994342Y-68048285D02*
X135756247Y-68048285D01*
X135756247Y-68048285D02*
X135661009Y-68095904D01*
X135661009Y-68095904D02*
X135613390Y-68143523D01*
X135613390Y-68143523D02*
X135565771Y-68238761D01*
X135565771Y-68238761D02*
X135565771Y-68429237D01*
X135565771Y-68429237D02*
X135613390Y-68524475D01*
X135613390Y-68524475D02*
X135661009Y-68572094D01*
X135661009Y-68572094D02*
X135756247Y-68619713D01*
X146520819Y-70103904D02*
X147330342Y-70103904D01*
X147330342Y-70103904D02*
X147425580Y-70056285D01*
X147425580Y-70056285D02*
X147473200Y-70008666D01*
X147473200Y-70008666D02*
X147520819Y-69913428D01*
X147520819Y-69913428D02*
X147520819Y-69722952D01*
X147520819Y-69722952D02*
X147473200Y-69627714D01*
X147473200Y-69627714D02*
X147425580Y-69580095D01*
X147425580Y-69580095D02*
X147330342Y-69532476D01*
X147330342Y-69532476D02*
X146520819Y-69532476D01*
X146520819Y-69151523D02*
X146520819Y-68532476D01*
X146520819Y-68532476D02*
X146901771Y-68865809D01*
X146901771Y-68865809D02*
X146901771Y-68722952D01*
X146901771Y-68722952D02*
X146949390Y-68627714D01*
X146949390Y-68627714D02*
X146997009Y-68580095D01*
X146997009Y-68580095D02*
X147092247Y-68532476D01*
X147092247Y-68532476D02*
X147330342Y-68532476D01*
X147330342Y-68532476D02*
X147425580Y-68580095D01*
X147425580Y-68580095D02*
X147473200Y-68627714D01*
X147473200Y-68627714D02*
X147520819Y-68722952D01*
X147520819Y-68722952D02*
X147520819Y-69008666D01*
X147520819Y-69008666D02*
X147473200Y-69103904D01*
X147473200Y-69103904D02*
X147425580Y-69151523D01*
X136344819Y-81160857D02*
X135868628Y-81494190D01*
X136344819Y-81732285D02*
X135344819Y-81732285D01*
X135344819Y-81732285D02*
X135344819Y-81351333D01*
X135344819Y-81351333D02*
X135392438Y-81256095D01*
X135392438Y-81256095D02*
X135440057Y-81208476D01*
X135440057Y-81208476D02*
X135535295Y-81160857D01*
X135535295Y-81160857D02*
X135678152Y-81160857D01*
X135678152Y-81160857D02*
X135773390Y-81208476D01*
X135773390Y-81208476D02*
X135821009Y-81256095D01*
X135821009Y-81256095D02*
X135868628Y-81351333D01*
X135868628Y-81351333D02*
X135868628Y-81732285D01*
X136344819Y-80208476D02*
X136344819Y-80779904D01*
X136344819Y-80494190D02*
X135344819Y-80494190D01*
X135344819Y-80494190D02*
X135487676Y-80589428D01*
X135487676Y-80589428D02*
X135582914Y-80684666D01*
X135582914Y-80684666D02*
X135630533Y-80779904D01*
X135344819Y-79303714D02*
X135344819Y-79779904D01*
X135344819Y-79779904D02*
X135821009Y-79827523D01*
X135821009Y-79827523D02*
X135773390Y-79779904D01*
X135773390Y-79779904D02*
X135725771Y-79684666D01*
X135725771Y-79684666D02*
X135725771Y-79446571D01*
X135725771Y-79446571D02*
X135773390Y-79351333D01*
X135773390Y-79351333D02*
X135821009Y-79303714D01*
X135821009Y-79303714D02*
X135916247Y-79256095D01*
X135916247Y-79256095D02*
X136154342Y-79256095D01*
X136154342Y-79256095D02*
X136249580Y-79303714D01*
X136249580Y-79303714D02*
X136297200Y-79351333D01*
X136297200Y-79351333D02*
X136344819Y-79446571D01*
X136344819Y-79446571D02*
X136344819Y-79684666D01*
X136344819Y-79684666D02*
X136297200Y-79779904D01*
X136297200Y-79779904D02*
X136249580Y-79827523D01*
X131010819Y-96591857D02*
X130534628Y-96925190D01*
X131010819Y-97163285D02*
X130010819Y-97163285D01*
X130010819Y-97163285D02*
X130010819Y-96782333D01*
X130010819Y-96782333D02*
X130058438Y-96687095D01*
X130058438Y-96687095D02*
X130106057Y-96639476D01*
X130106057Y-96639476D02*
X130201295Y-96591857D01*
X130201295Y-96591857D02*
X130344152Y-96591857D01*
X130344152Y-96591857D02*
X130439390Y-96639476D01*
X130439390Y-96639476D02*
X130487009Y-96687095D01*
X130487009Y-96687095D02*
X130534628Y-96782333D01*
X130534628Y-96782333D02*
X130534628Y-97163285D01*
X131010819Y-95639476D02*
X131010819Y-96210904D01*
X131010819Y-95925190D02*
X130010819Y-95925190D01*
X130010819Y-95925190D02*
X130153676Y-96020428D01*
X130153676Y-96020428D02*
X130248914Y-96115666D01*
X130248914Y-96115666D02*
X130296533Y-96210904D01*
X130010819Y-94782333D02*
X130010819Y-94972809D01*
X130010819Y-94972809D02*
X130058438Y-95068047D01*
X130058438Y-95068047D02*
X130106057Y-95115666D01*
X130106057Y-95115666D02*
X130248914Y-95210904D01*
X130248914Y-95210904D02*
X130439390Y-95258523D01*
X130439390Y-95258523D02*
X130820342Y-95258523D01*
X130820342Y-95258523D02*
X130915580Y-95210904D01*
X130915580Y-95210904D02*
X130963200Y-95163285D01*
X130963200Y-95163285D02*
X131010819Y-95068047D01*
X131010819Y-95068047D02*
X131010819Y-94877571D01*
X131010819Y-94877571D02*
X130963200Y-94782333D01*
X130963200Y-94782333D02*
X130915580Y-94734714D01*
X130915580Y-94734714D02*
X130820342Y-94687095D01*
X130820342Y-94687095D02*
X130582247Y-94687095D01*
X130582247Y-94687095D02*
X130487009Y-94734714D01*
X130487009Y-94734714D02*
X130439390Y-94782333D01*
X130439390Y-94782333D02*
X130391771Y-94877571D01*
X130391771Y-94877571D02*
X130391771Y-95068047D01*
X130391771Y-95068047D02*
X130439390Y-95163285D01*
X130439390Y-95163285D02*
X130487009Y-95210904D01*
X130487009Y-95210904D02*
X130582247Y-95258523D01*
X110998095Y-73368819D02*
X110998095Y-74178342D01*
X110998095Y-74178342D02*
X111045714Y-74273580D01*
X111045714Y-74273580D02*
X111093333Y-74321200D01*
X111093333Y-74321200D02*
X111188571Y-74368819D01*
X111188571Y-74368819D02*
X111379047Y-74368819D01*
X111379047Y-74368819D02*
X111474285Y-74321200D01*
X111474285Y-74321200D02*
X111521904Y-74273580D01*
X111521904Y-74273580D02*
X111569523Y-74178342D01*
X111569523Y-74178342D02*
X111569523Y-73368819D01*
X112569523Y-74368819D02*
X111998095Y-74368819D01*
X112283809Y-74368819D02*
X112283809Y-73368819D01*
X112283809Y-73368819D02*
X112188571Y-73511676D01*
X112188571Y-73511676D02*
X112093333Y-73606914D01*
X112093333Y-73606914D02*
X111998095Y-73654533D01*
X112482333Y-77194580D02*
X112434714Y-77242200D01*
X112434714Y-77242200D02*
X112291857Y-77289819D01*
X112291857Y-77289819D02*
X112196619Y-77289819D01*
X112196619Y-77289819D02*
X112053762Y-77242200D01*
X112053762Y-77242200D02*
X111958524Y-77146961D01*
X111958524Y-77146961D02*
X111910905Y-77051723D01*
X111910905Y-77051723D02*
X111863286Y-76861247D01*
X111863286Y-76861247D02*
X111863286Y-76718390D01*
X111863286Y-76718390D02*
X111910905Y-76527914D01*
X111910905Y-76527914D02*
X111958524Y-76432676D01*
X111958524Y-76432676D02*
X112053762Y-76337438D01*
X112053762Y-76337438D02*
X112196619Y-76289819D01*
X112196619Y-76289819D02*
X112291857Y-76289819D01*
X112291857Y-76289819D02*
X112434714Y-76337438D01*
X112434714Y-76337438D02*
X112482333Y-76385057D01*
X113339476Y-76623152D02*
X113339476Y-77289819D01*
X113101381Y-76242200D02*
X112863286Y-76956485D01*
X112863286Y-76956485D02*
X113482333Y-76956485D01*
X146520819Y-80771904D02*
X147330342Y-80771904D01*
X147330342Y-80771904D02*
X147425580Y-80724285D01*
X147425580Y-80724285D02*
X147473200Y-80676666D01*
X147473200Y-80676666D02*
X147520819Y-80581428D01*
X147520819Y-80581428D02*
X147520819Y-80390952D01*
X147520819Y-80390952D02*
X147473200Y-80295714D01*
X147473200Y-80295714D02*
X147425580Y-80248095D01*
X147425580Y-80248095D02*
X147330342Y-80200476D01*
X147330342Y-80200476D02*
X146520819Y-80200476D01*
X146520819Y-79295714D02*
X146520819Y-79486190D01*
X146520819Y-79486190D02*
X146568438Y-79581428D01*
X146568438Y-79581428D02*
X146616057Y-79629047D01*
X146616057Y-79629047D02*
X146758914Y-79724285D01*
X146758914Y-79724285D02*
X146949390Y-79771904D01*
X146949390Y-79771904D02*
X147330342Y-79771904D01*
X147330342Y-79771904D02*
X147425580Y-79724285D01*
X147425580Y-79724285D02*
X147473200Y-79676666D01*
X147473200Y-79676666D02*
X147520819Y-79581428D01*
X147520819Y-79581428D02*
X147520819Y-79390952D01*
X147520819Y-79390952D02*
X147473200Y-79295714D01*
X147473200Y-79295714D02*
X147425580Y-79248095D01*
X147425580Y-79248095D02*
X147330342Y-79200476D01*
X147330342Y-79200476D02*
X147092247Y-79200476D01*
X147092247Y-79200476D02*
X146997009Y-79248095D01*
X146997009Y-79248095D02*
X146949390Y-79295714D01*
X146949390Y-79295714D02*
X146901771Y-79390952D01*
X146901771Y-79390952D02*
X146901771Y-79581428D01*
X146901771Y-79581428D02*
X146949390Y-79676666D01*
X146949390Y-79676666D02*
X146997009Y-79724285D01*
X146997009Y-79724285D02*
X147092247Y-79771904D01*
X130915580Y-58269666D02*
X130963200Y-58317285D01*
X130963200Y-58317285D02*
X131010819Y-58460142D01*
X131010819Y-58460142D02*
X131010819Y-58555380D01*
X131010819Y-58555380D02*
X130963200Y-58698237D01*
X130963200Y-58698237D02*
X130867961Y-58793475D01*
X130867961Y-58793475D02*
X130772723Y-58841094D01*
X130772723Y-58841094D02*
X130582247Y-58888713D01*
X130582247Y-58888713D02*
X130439390Y-58888713D01*
X130439390Y-58888713D02*
X130248914Y-58841094D01*
X130248914Y-58841094D02*
X130153676Y-58793475D01*
X130153676Y-58793475D02*
X130058438Y-58698237D01*
X130058438Y-58698237D02*
X130010819Y-58555380D01*
X130010819Y-58555380D02*
X130010819Y-58460142D01*
X130010819Y-58460142D02*
X130058438Y-58317285D01*
X130058438Y-58317285D02*
X130106057Y-58269666D01*
X130010819Y-57936332D02*
X130010819Y-57269666D01*
X130010819Y-57269666D02*
X131010819Y-57698237D01*
X152304819Y-80906857D02*
X151828628Y-81240190D01*
X152304819Y-81478285D02*
X151304819Y-81478285D01*
X151304819Y-81478285D02*
X151304819Y-81097333D01*
X151304819Y-81097333D02*
X151352438Y-81002095D01*
X151352438Y-81002095D02*
X151400057Y-80954476D01*
X151400057Y-80954476D02*
X151495295Y-80906857D01*
X151495295Y-80906857D02*
X151638152Y-80906857D01*
X151638152Y-80906857D02*
X151733390Y-80954476D01*
X151733390Y-80954476D02*
X151781009Y-81002095D01*
X151781009Y-81002095D02*
X151828628Y-81097333D01*
X151828628Y-81097333D02*
X151828628Y-81478285D01*
X152304819Y-79954476D02*
X152304819Y-80525904D01*
X152304819Y-80240190D02*
X151304819Y-80240190D01*
X151304819Y-80240190D02*
X151447676Y-80335428D01*
X151447676Y-80335428D02*
X151542914Y-80430666D01*
X151542914Y-80430666D02*
X151590533Y-80525904D01*
X151400057Y-79573523D02*
X151352438Y-79525904D01*
X151352438Y-79525904D02*
X151304819Y-79430666D01*
X151304819Y-79430666D02*
X151304819Y-79192571D01*
X151304819Y-79192571D02*
X151352438Y-79097333D01*
X151352438Y-79097333D02*
X151400057Y-79049714D01*
X151400057Y-79049714D02*
X151495295Y-79002095D01*
X151495295Y-79002095D02*
X151590533Y-79002095D01*
X151590533Y-79002095D02*
X151733390Y-79049714D01*
X151733390Y-79049714D02*
X152304819Y-79621142D01*
X152304819Y-79621142D02*
X152304819Y-79002095D01*
X128216819Y-96591857D02*
X127740628Y-96925190D01*
X128216819Y-97163285D02*
X127216819Y-97163285D01*
X127216819Y-97163285D02*
X127216819Y-96782333D01*
X127216819Y-96782333D02*
X127264438Y-96687095D01*
X127264438Y-96687095D02*
X127312057Y-96639476D01*
X127312057Y-96639476D02*
X127407295Y-96591857D01*
X127407295Y-96591857D02*
X127550152Y-96591857D01*
X127550152Y-96591857D02*
X127645390Y-96639476D01*
X127645390Y-96639476D02*
X127693009Y-96687095D01*
X127693009Y-96687095D02*
X127740628Y-96782333D01*
X127740628Y-96782333D02*
X127740628Y-97163285D01*
X128216819Y-95639476D02*
X128216819Y-96210904D01*
X128216819Y-95925190D02*
X127216819Y-95925190D01*
X127216819Y-95925190D02*
X127359676Y-96020428D01*
X127359676Y-96020428D02*
X127454914Y-96115666D01*
X127454914Y-96115666D02*
X127502533Y-96210904D01*
X127550152Y-94782333D02*
X128216819Y-94782333D01*
X127169200Y-95020428D02*
X127883485Y-95258523D01*
X127883485Y-95258523D02*
X127883485Y-94639476D01*
X110537666Y-82385819D02*
X110537666Y-83100104D01*
X110537666Y-83100104D02*
X110490047Y-83242961D01*
X110490047Y-83242961D02*
X110394809Y-83338200D01*
X110394809Y-83338200D02*
X110251952Y-83385819D01*
X110251952Y-83385819D02*
X110156714Y-83385819D01*
X111537666Y-83385819D02*
X110966238Y-83385819D01*
X111251952Y-83385819D02*
X111251952Y-82385819D01*
X111251952Y-82385819D02*
X111156714Y-82528676D01*
X111156714Y-82528676D02*
X111061476Y-82623914D01*
X111061476Y-82623914D02*
X110966238Y-82671533D01*
X128216819Y-65381666D02*
X127740628Y-65714999D01*
X128216819Y-65953094D02*
X127216819Y-65953094D01*
X127216819Y-65953094D02*
X127216819Y-65572142D01*
X127216819Y-65572142D02*
X127264438Y-65476904D01*
X127264438Y-65476904D02*
X127312057Y-65429285D01*
X127312057Y-65429285D02*
X127407295Y-65381666D01*
X127407295Y-65381666D02*
X127550152Y-65381666D01*
X127550152Y-65381666D02*
X127645390Y-65429285D01*
X127645390Y-65429285D02*
X127693009Y-65476904D01*
X127693009Y-65476904D02*
X127740628Y-65572142D01*
X127740628Y-65572142D02*
X127740628Y-65953094D01*
X127216819Y-64476904D02*
X127216819Y-64953094D01*
X127216819Y-64953094D02*
X127693009Y-65000713D01*
X127693009Y-65000713D02*
X127645390Y-64953094D01*
X127645390Y-64953094D02*
X127597771Y-64857856D01*
X127597771Y-64857856D02*
X127597771Y-64619761D01*
X127597771Y-64619761D02*
X127645390Y-64524523D01*
X127645390Y-64524523D02*
X127693009Y-64476904D01*
X127693009Y-64476904D02*
X127788247Y-64429285D01*
X127788247Y-64429285D02*
X128026342Y-64429285D01*
X128026342Y-64429285D02*
X128121580Y-64476904D01*
X128121580Y-64476904D02*
X128169200Y-64524523D01*
X128169200Y-64524523D02*
X128216819Y-64619761D01*
X128216819Y-64619761D02*
X128216819Y-64857856D01*
X128216819Y-64857856D02*
X128169200Y-64953094D01*
X128169200Y-64953094D02*
X128121580Y-65000713D01*
X118483142Y-71574819D02*
X118149809Y-71098628D01*
X117911714Y-71574819D02*
X117911714Y-70574819D01*
X117911714Y-70574819D02*
X118292666Y-70574819D01*
X118292666Y-70574819D02*
X118387904Y-70622438D01*
X118387904Y-70622438D02*
X118435523Y-70670057D01*
X118435523Y-70670057D02*
X118483142Y-70765295D01*
X118483142Y-70765295D02*
X118483142Y-70908152D01*
X118483142Y-70908152D02*
X118435523Y-71003390D01*
X118435523Y-71003390D02*
X118387904Y-71051009D01*
X118387904Y-71051009D02*
X118292666Y-71098628D01*
X118292666Y-71098628D02*
X117911714Y-71098628D01*
X119435523Y-71574819D02*
X118864095Y-71574819D01*
X119149809Y-71574819D02*
X119149809Y-70574819D01*
X119149809Y-70574819D02*
X119054571Y-70717676D01*
X119054571Y-70717676D02*
X118959333Y-70812914D01*
X118959333Y-70812914D02*
X118864095Y-70860533D01*
X120387904Y-71574819D02*
X119816476Y-71574819D01*
X120102190Y-71574819D02*
X120102190Y-70574819D01*
X120102190Y-70574819D02*
X120006952Y-70717676D01*
X120006952Y-70717676D02*
X119911714Y-70812914D01*
X119911714Y-70812914D02*
X119816476Y-70860533D01*
X140752533Y-59890819D02*
X140276343Y-59890819D01*
X140276343Y-59890819D02*
X140276343Y-58890819D01*
X141038248Y-58986057D02*
X141085867Y-58938438D01*
X141085867Y-58938438D02*
X141181105Y-58890819D01*
X141181105Y-58890819D02*
X141419200Y-58890819D01*
X141419200Y-58890819D02*
X141514438Y-58938438D01*
X141514438Y-58938438D02*
X141562057Y-58986057D01*
X141562057Y-58986057D02*
X141609676Y-59081295D01*
X141609676Y-59081295D02*
X141609676Y-59176533D01*
X141609676Y-59176533D02*
X141562057Y-59319390D01*
X141562057Y-59319390D02*
X140990629Y-59890819D01*
X140990629Y-59890819D02*
X141609676Y-59890819D01*
X133146800Y-58890819D02*
X133146800Y-59128914D01*
X132908705Y-59033676D02*
X133146800Y-59128914D01*
X133146800Y-59128914D02*
X133384895Y-59033676D01*
X133003943Y-59319390D02*
X133146800Y-59128914D01*
X133146800Y-59128914D02*
X133289657Y-59319390D01*
X133146800Y-58890819D02*
X133146800Y-59128914D01*
X132908705Y-59033676D02*
X133146800Y-59128914D01*
X133146800Y-59128914D02*
X133384895Y-59033676D01*
X133003943Y-59319390D02*
X133146800Y-59128914D01*
X133146800Y-59128914D02*
X133289657Y-59319390D01*
X152759580Y-64174666D02*
X152807200Y-64222285D01*
X152807200Y-64222285D02*
X152854819Y-64365142D01*
X152854819Y-64365142D02*
X152854819Y-64460380D01*
X152854819Y-64460380D02*
X152807200Y-64603237D01*
X152807200Y-64603237D02*
X152711961Y-64698475D01*
X152711961Y-64698475D02*
X152616723Y-64746094D01*
X152616723Y-64746094D02*
X152426247Y-64793713D01*
X152426247Y-64793713D02*
X152283390Y-64793713D01*
X152283390Y-64793713D02*
X152092914Y-64746094D01*
X152092914Y-64746094D02*
X151997676Y-64698475D01*
X151997676Y-64698475D02*
X151902438Y-64603237D01*
X151902438Y-64603237D02*
X151854819Y-64460380D01*
X151854819Y-64460380D02*
X151854819Y-64365142D01*
X151854819Y-64365142D02*
X151902438Y-64222285D01*
X151902438Y-64222285D02*
X151950057Y-64174666D01*
X152283390Y-63603237D02*
X152235771Y-63698475D01*
X152235771Y-63698475D02*
X152188152Y-63746094D01*
X152188152Y-63746094D02*
X152092914Y-63793713D01*
X152092914Y-63793713D02*
X152045295Y-63793713D01*
X152045295Y-63793713D02*
X151950057Y-63746094D01*
X151950057Y-63746094D02*
X151902438Y-63698475D01*
X151902438Y-63698475D02*
X151854819Y-63603237D01*
X151854819Y-63603237D02*
X151854819Y-63412761D01*
X151854819Y-63412761D02*
X151902438Y-63317523D01*
X151902438Y-63317523D02*
X151950057Y-63269904D01*
X151950057Y-63269904D02*
X152045295Y-63222285D01*
X152045295Y-63222285D02*
X152092914Y-63222285D01*
X152092914Y-63222285D02*
X152188152Y-63269904D01*
X152188152Y-63269904D02*
X152235771Y-63317523D01*
X152235771Y-63317523D02*
X152283390Y-63412761D01*
X152283390Y-63412761D02*
X152283390Y-63603237D01*
X152283390Y-63603237D02*
X152331009Y-63698475D01*
X152331009Y-63698475D02*
X152378628Y-63746094D01*
X152378628Y-63746094D02*
X152473866Y-63793713D01*
X152473866Y-63793713D02*
X152664342Y-63793713D01*
X152664342Y-63793713D02*
X152759580Y-63746094D01*
X152759580Y-63746094D02*
X152807200Y-63698475D01*
X152807200Y-63698475D02*
X152854819Y-63603237D01*
X152854819Y-63603237D02*
X152854819Y-63412761D01*
X152854819Y-63412761D02*
X152807200Y-63317523D01*
X152807200Y-63317523D02*
X152759580Y-63269904D01*
X152759580Y-63269904D02*
X152664342Y-63222285D01*
X152664342Y-63222285D02*
X152473866Y-63222285D01*
X152473866Y-63222285D02*
X152378628Y-63269904D01*
X152378628Y-63269904D02*
X152331009Y-63317523D01*
X152331009Y-63317523D02*
X152283390Y-63412761D01*
X139138819Y-69000666D02*
X138662628Y-69333999D01*
X139138819Y-69572094D02*
X138138819Y-69572094D01*
X138138819Y-69572094D02*
X138138819Y-69191142D01*
X138138819Y-69191142D02*
X138186438Y-69095904D01*
X138186438Y-69095904D02*
X138234057Y-69048285D01*
X138234057Y-69048285D02*
X138329295Y-69000666D01*
X138329295Y-69000666D02*
X138472152Y-69000666D01*
X138472152Y-69000666D02*
X138567390Y-69048285D01*
X138567390Y-69048285D02*
X138615009Y-69095904D01*
X138615009Y-69095904D02*
X138662628Y-69191142D01*
X138662628Y-69191142D02*
X138662628Y-69572094D01*
X138472152Y-68143523D02*
X139138819Y-68143523D01*
X138091200Y-68381618D02*
X138805485Y-68619713D01*
X138805485Y-68619713D02*
X138805485Y-68000666D01*
X125650666Y-84266819D02*
X125650666Y-84981104D01*
X125650666Y-84981104D02*
X125603047Y-85123961D01*
X125603047Y-85123961D02*
X125507809Y-85219200D01*
X125507809Y-85219200D02*
X125364952Y-85266819D01*
X125364952Y-85266819D02*
X125269714Y-85266819D01*
X126555428Y-84600152D02*
X126555428Y-85266819D01*
X126317333Y-84219200D02*
X126079238Y-84933485D01*
X126079238Y-84933485D02*
X126698285Y-84933485D01*
X149301580Y-86748857D02*
X149349200Y-86796476D01*
X149349200Y-86796476D02*
X149396819Y-86939333D01*
X149396819Y-86939333D02*
X149396819Y-87034571D01*
X149396819Y-87034571D02*
X149349200Y-87177428D01*
X149349200Y-87177428D02*
X149253961Y-87272666D01*
X149253961Y-87272666D02*
X149158723Y-87320285D01*
X149158723Y-87320285D02*
X148968247Y-87367904D01*
X148968247Y-87367904D02*
X148825390Y-87367904D01*
X148825390Y-87367904D02*
X148634914Y-87320285D01*
X148634914Y-87320285D02*
X148539676Y-87272666D01*
X148539676Y-87272666D02*
X148444438Y-87177428D01*
X148444438Y-87177428D02*
X148396819Y-87034571D01*
X148396819Y-87034571D02*
X148396819Y-86939333D01*
X148396819Y-86939333D02*
X148444438Y-86796476D01*
X148444438Y-86796476D02*
X148492057Y-86748857D01*
X149396819Y-85796476D02*
X149396819Y-86367904D01*
X149396819Y-86082190D02*
X148396819Y-86082190D01*
X148396819Y-86082190D02*
X148539676Y-86177428D01*
X148539676Y-86177428D02*
X148634914Y-86272666D01*
X148634914Y-86272666D02*
X148682533Y-86367904D01*
X148396819Y-84891714D02*
X148396819Y-85367904D01*
X148396819Y-85367904D02*
X148873009Y-85415523D01*
X148873009Y-85415523D02*
X148825390Y-85367904D01*
X148825390Y-85367904D02*
X148777771Y-85272666D01*
X148777771Y-85272666D02*
X148777771Y-85034571D01*
X148777771Y-85034571D02*
X148825390Y-84939333D01*
X148825390Y-84939333D02*
X148873009Y-84891714D01*
X148873009Y-84891714D02*
X148968247Y-84844095D01*
X148968247Y-84844095D02*
X149206342Y-84844095D01*
X149206342Y-84844095D02*
X149301580Y-84891714D01*
X149301580Y-84891714D02*
X149349200Y-84939333D01*
X149349200Y-84939333D02*
X149396819Y-85034571D01*
X149396819Y-85034571D02*
X149396819Y-85272666D01*
X149396819Y-85272666D02*
X149349200Y-85367904D01*
X149349200Y-85367904D02*
X149301580Y-85415523D01*
X128724819Y-73064666D02*
X128248628Y-73397999D01*
X128724819Y-73636094D02*
X127724819Y-73636094D01*
X127724819Y-73636094D02*
X127724819Y-73255142D01*
X127724819Y-73255142D02*
X127772438Y-73159904D01*
X127772438Y-73159904D02*
X127820057Y-73112285D01*
X127820057Y-73112285D02*
X127915295Y-73064666D01*
X127915295Y-73064666D02*
X128058152Y-73064666D01*
X128058152Y-73064666D02*
X128153390Y-73112285D01*
X128153390Y-73112285D02*
X128201009Y-73159904D01*
X128201009Y-73159904D02*
X128248628Y-73255142D01*
X128248628Y-73255142D02*
X128248628Y-73636094D01*
X128724819Y-72112285D02*
X128724819Y-72683713D01*
X128724819Y-72397999D02*
X127724819Y-72397999D01*
X127724819Y-72397999D02*
X127867676Y-72493237D01*
X127867676Y-72493237D02*
X127962914Y-72588475D01*
X127962914Y-72588475D02*
X128010533Y-72683713D01*
X144631580Y-77858857D02*
X144679200Y-77906476D01*
X144679200Y-77906476D02*
X144726819Y-78049333D01*
X144726819Y-78049333D02*
X144726819Y-78144571D01*
X144726819Y-78144571D02*
X144679200Y-78287428D01*
X144679200Y-78287428D02*
X144583961Y-78382666D01*
X144583961Y-78382666D02*
X144488723Y-78430285D01*
X144488723Y-78430285D02*
X144298247Y-78477904D01*
X144298247Y-78477904D02*
X144155390Y-78477904D01*
X144155390Y-78477904D02*
X143964914Y-78430285D01*
X143964914Y-78430285D02*
X143869676Y-78382666D01*
X143869676Y-78382666D02*
X143774438Y-78287428D01*
X143774438Y-78287428D02*
X143726819Y-78144571D01*
X143726819Y-78144571D02*
X143726819Y-78049333D01*
X143726819Y-78049333D02*
X143774438Y-77906476D01*
X143774438Y-77906476D02*
X143822057Y-77858857D01*
X144726819Y-76906476D02*
X144726819Y-77477904D01*
X144726819Y-77192190D02*
X143726819Y-77192190D01*
X143726819Y-77192190D02*
X143869676Y-77287428D01*
X143869676Y-77287428D02*
X143964914Y-77382666D01*
X143964914Y-77382666D02*
X144012533Y-77477904D01*
X143822057Y-76525523D02*
X143774438Y-76477904D01*
X143774438Y-76477904D02*
X143726819Y-76382666D01*
X143726819Y-76382666D02*
X143726819Y-76144571D01*
X143726819Y-76144571D02*
X143774438Y-76049333D01*
X143774438Y-76049333D02*
X143822057Y-76001714D01*
X143822057Y-76001714D02*
X143917295Y-75954095D01*
X143917295Y-75954095D02*
X144012533Y-75954095D01*
X144012533Y-75954095D02*
X144155390Y-76001714D01*
X144155390Y-76001714D02*
X144726819Y-76573142D01*
X144726819Y-76573142D02*
X144726819Y-75954095D01*
X125262819Y-96591857D02*
X124786628Y-96925190D01*
X125262819Y-97163285D02*
X124262819Y-97163285D01*
X124262819Y-97163285D02*
X124262819Y-96782333D01*
X124262819Y-96782333D02*
X124310438Y-96687095D01*
X124310438Y-96687095D02*
X124358057Y-96639476D01*
X124358057Y-96639476D02*
X124453295Y-96591857D01*
X124453295Y-96591857D02*
X124596152Y-96591857D01*
X124596152Y-96591857D02*
X124691390Y-96639476D01*
X124691390Y-96639476D02*
X124739009Y-96687095D01*
X124739009Y-96687095D02*
X124786628Y-96782333D01*
X124786628Y-96782333D02*
X124786628Y-97163285D01*
X125262819Y-95639476D02*
X125262819Y-96210904D01*
X125262819Y-95925190D02*
X124262819Y-95925190D01*
X124262819Y-95925190D02*
X124405676Y-96020428D01*
X124405676Y-96020428D02*
X124500914Y-96115666D01*
X124500914Y-96115666D02*
X124548533Y-96210904D01*
X124691390Y-95068047D02*
X124643771Y-95163285D01*
X124643771Y-95163285D02*
X124596152Y-95210904D01*
X124596152Y-95210904D02*
X124500914Y-95258523D01*
X124500914Y-95258523D02*
X124453295Y-95258523D01*
X124453295Y-95258523D02*
X124358057Y-95210904D01*
X124358057Y-95210904D02*
X124310438Y-95163285D01*
X124310438Y-95163285D02*
X124262819Y-95068047D01*
X124262819Y-95068047D02*
X124262819Y-94877571D01*
X124262819Y-94877571D02*
X124310438Y-94782333D01*
X124310438Y-94782333D02*
X124358057Y-94734714D01*
X124358057Y-94734714D02*
X124453295Y-94687095D01*
X124453295Y-94687095D02*
X124500914Y-94687095D01*
X124500914Y-94687095D02*
X124596152Y-94734714D01*
X124596152Y-94734714D02*
X124643771Y-94782333D01*
X124643771Y-94782333D02*
X124691390Y-94877571D01*
X124691390Y-94877571D02*
X124691390Y-95068047D01*
X124691390Y-95068047D02*
X124739009Y-95163285D01*
X124739009Y-95163285D02*
X124786628Y-95210904D01*
X124786628Y-95210904D02*
X124881866Y-95258523D01*
X124881866Y-95258523D02*
X125072342Y-95258523D01*
X125072342Y-95258523D02*
X125167580Y-95210904D01*
X125167580Y-95210904D02*
X125215200Y-95163285D01*
X125215200Y-95163285D02*
X125262819Y-95068047D01*
X125262819Y-95068047D02*
X125262819Y-94877571D01*
X125262819Y-94877571D02*
X125215200Y-94782333D01*
X125215200Y-94782333D02*
X125167580Y-94734714D01*
X125167580Y-94734714D02*
X125072342Y-94687095D01*
X125072342Y-94687095D02*
X124881866Y-94687095D01*
X124881866Y-94687095D02*
X124786628Y-94734714D01*
X124786628Y-94734714D02*
X124739009Y-94782333D01*
X124739009Y-94782333D02*
X124691390Y-94877571D01*
X157331580Y-57538857D02*
X157379200Y-57586476D01*
X157379200Y-57586476D02*
X157426819Y-57729333D01*
X157426819Y-57729333D02*
X157426819Y-57824571D01*
X157426819Y-57824571D02*
X157379200Y-57967428D01*
X157379200Y-57967428D02*
X157283961Y-58062666D01*
X157283961Y-58062666D02*
X157188723Y-58110285D01*
X157188723Y-58110285D02*
X156998247Y-58157904D01*
X156998247Y-58157904D02*
X156855390Y-58157904D01*
X156855390Y-58157904D02*
X156664914Y-58110285D01*
X156664914Y-58110285D02*
X156569676Y-58062666D01*
X156569676Y-58062666D02*
X156474438Y-57967428D01*
X156474438Y-57967428D02*
X156426819Y-57824571D01*
X156426819Y-57824571D02*
X156426819Y-57729333D01*
X156426819Y-57729333D02*
X156474438Y-57586476D01*
X156474438Y-57586476D02*
X156522057Y-57538857D01*
X157426819Y-56586476D02*
X157426819Y-57157904D01*
X157426819Y-56872190D02*
X156426819Y-56872190D01*
X156426819Y-56872190D02*
X156569676Y-56967428D01*
X156569676Y-56967428D02*
X156664914Y-57062666D01*
X156664914Y-57062666D02*
X156712533Y-57157904D01*
X156426819Y-55967428D02*
X156426819Y-55872190D01*
X156426819Y-55872190D02*
X156474438Y-55776952D01*
X156474438Y-55776952D02*
X156522057Y-55729333D01*
X156522057Y-55729333D02*
X156617295Y-55681714D01*
X156617295Y-55681714D02*
X156807771Y-55634095D01*
X156807771Y-55634095D02*
X157045866Y-55634095D01*
X157045866Y-55634095D02*
X157236342Y-55681714D01*
X157236342Y-55681714D02*
X157331580Y-55729333D01*
X157331580Y-55729333D02*
X157379200Y-55776952D01*
X157379200Y-55776952D02*
X157426819Y-55872190D01*
X157426819Y-55872190D02*
X157426819Y-55967428D01*
X157426819Y-55967428D02*
X157379200Y-56062666D01*
X157379200Y-56062666D02*
X157331580Y-56110285D01*
X157331580Y-56110285D02*
X157236342Y-56157904D01*
X157236342Y-56157904D02*
X157045866Y-56205523D01*
X157045866Y-56205523D02*
X156807771Y-56205523D01*
X156807771Y-56205523D02*
X156617295Y-56157904D01*
X156617295Y-56157904D02*
X156522057Y-56110285D01*
X156522057Y-56110285D02*
X156474438Y-56062666D01*
X156474438Y-56062666D02*
X156426819Y-55967428D01*
X157146666Y-79742819D02*
X157146666Y-80457104D01*
X157146666Y-80457104D02*
X157099047Y-80599961D01*
X157099047Y-80599961D02*
X157003809Y-80695200D01*
X157003809Y-80695200D02*
X156860952Y-80742819D01*
X156860952Y-80742819D02*
X156765714Y-80742819D01*
X157527619Y-79742819D02*
X158146666Y-79742819D01*
X158146666Y-79742819D02*
X157813333Y-80123771D01*
X157813333Y-80123771D02*
X157956190Y-80123771D01*
X157956190Y-80123771D02*
X158051428Y-80171390D01*
X158051428Y-80171390D02*
X158099047Y-80219009D01*
X158099047Y-80219009D02*
X158146666Y-80314247D01*
X158146666Y-80314247D02*
X158146666Y-80552342D01*
X158146666Y-80552342D02*
X158099047Y-80647580D01*
X158099047Y-80647580D02*
X158051428Y-80695200D01*
X158051428Y-80695200D02*
X157956190Y-80742819D01*
X157956190Y-80742819D02*
X157670476Y-80742819D01*
X157670476Y-80742819D02*
X157575238Y-80695200D01*
X157575238Y-80695200D02*
X157527619Y-80647580D01*
X143316819Y-75437904D02*
X144126342Y-75437904D01*
X144126342Y-75437904D02*
X144221580Y-75390285D01*
X144221580Y-75390285D02*
X144269200Y-75342666D01*
X144269200Y-75342666D02*
X144316819Y-75247428D01*
X144316819Y-75247428D02*
X144316819Y-75056952D01*
X144316819Y-75056952D02*
X144269200Y-74961714D01*
X144269200Y-74961714D02*
X144221580Y-74914095D01*
X144221580Y-74914095D02*
X144126342Y-74866476D01*
X144126342Y-74866476D02*
X143316819Y-74866476D01*
X143412057Y-74437904D02*
X143364438Y-74390285D01*
X143364438Y-74390285D02*
X143316819Y-74295047D01*
X143316819Y-74295047D02*
X143316819Y-74056952D01*
X143316819Y-74056952D02*
X143364438Y-73961714D01*
X143364438Y-73961714D02*
X143412057Y-73914095D01*
X143412057Y-73914095D02*
X143507295Y-73866476D01*
X143507295Y-73866476D02*
X143602533Y-73866476D01*
X143602533Y-73866476D02*
X143745390Y-73914095D01*
X143745390Y-73914095D02*
X144316819Y-74485523D01*
X144316819Y-74485523D02*
X144316819Y-73866476D01*
X128724819Y-76366666D02*
X128248628Y-76699999D01*
X128724819Y-76938094D02*
X127724819Y-76938094D01*
X127724819Y-76938094D02*
X127724819Y-76557142D01*
X127724819Y-76557142D02*
X127772438Y-76461904D01*
X127772438Y-76461904D02*
X127820057Y-76414285D01*
X127820057Y-76414285D02*
X127915295Y-76366666D01*
X127915295Y-76366666D02*
X128058152Y-76366666D01*
X128058152Y-76366666D02*
X128153390Y-76414285D01*
X128153390Y-76414285D02*
X128201009Y-76461904D01*
X128201009Y-76461904D02*
X128248628Y-76557142D01*
X128248628Y-76557142D02*
X128248628Y-76938094D01*
X127820057Y-75985713D02*
X127772438Y-75938094D01*
X127772438Y-75938094D02*
X127724819Y-75842856D01*
X127724819Y-75842856D02*
X127724819Y-75604761D01*
X127724819Y-75604761D02*
X127772438Y-75509523D01*
X127772438Y-75509523D02*
X127820057Y-75461904D01*
X127820057Y-75461904D02*
X127915295Y-75414285D01*
X127915295Y-75414285D02*
X128010533Y-75414285D01*
X128010533Y-75414285D02*
X128153390Y-75461904D01*
X128153390Y-75461904D02*
X128724819Y-76033332D01*
X128724819Y-76033332D02*
X128724819Y-75414285D01*
X144726819Y-81160857D02*
X144250628Y-81494190D01*
X144726819Y-81732285D02*
X143726819Y-81732285D01*
X143726819Y-81732285D02*
X143726819Y-81351333D01*
X143726819Y-81351333D02*
X143774438Y-81256095D01*
X143774438Y-81256095D02*
X143822057Y-81208476D01*
X143822057Y-81208476D02*
X143917295Y-81160857D01*
X143917295Y-81160857D02*
X144060152Y-81160857D01*
X144060152Y-81160857D02*
X144155390Y-81208476D01*
X144155390Y-81208476D02*
X144203009Y-81256095D01*
X144203009Y-81256095D02*
X144250628Y-81351333D01*
X144250628Y-81351333D02*
X144250628Y-81732285D01*
X144726819Y-80208476D02*
X144726819Y-80779904D01*
X144726819Y-80494190D02*
X143726819Y-80494190D01*
X143726819Y-80494190D02*
X143869676Y-80589428D01*
X143869676Y-80589428D02*
X143964914Y-80684666D01*
X143964914Y-80684666D02*
X144012533Y-80779904D01*
X144726819Y-79732285D02*
X144726819Y-79541809D01*
X144726819Y-79541809D02*
X144679200Y-79446571D01*
X144679200Y-79446571D02*
X144631580Y-79398952D01*
X144631580Y-79398952D02*
X144488723Y-79303714D01*
X144488723Y-79303714D02*
X144298247Y-79256095D01*
X144298247Y-79256095D02*
X143917295Y-79256095D01*
X143917295Y-79256095D02*
X143822057Y-79303714D01*
X143822057Y-79303714D02*
X143774438Y-79351333D01*
X143774438Y-79351333D02*
X143726819Y-79446571D01*
X143726819Y-79446571D02*
X143726819Y-79637047D01*
X143726819Y-79637047D02*
X143774438Y-79732285D01*
X143774438Y-79732285D02*
X143822057Y-79779904D01*
X143822057Y-79779904D02*
X143917295Y-79827523D01*
X143917295Y-79827523D02*
X144155390Y-79827523D01*
X144155390Y-79827523D02*
X144250628Y-79779904D01*
X144250628Y-79779904D02*
X144298247Y-79732285D01*
X144298247Y-79732285D02*
X144345866Y-79637047D01*
X144345866Y-79637047D02*
X144345866Y-79446571D01*
X144345866Y-79446571D02*
X144298247Y-79351333D01*
X144298247Y-79351333D02*
X144250628Y-79303714D01*
X144250628Y-79303714D02*
X144155390Y-79256095D01*
X144726819Y-69476857D02*
X144250628Y-69810190D01*
X144726819Y-70048285D02*
X143726819Y-70048285D01*
X143726819Y-70048285D02*
X143726819Y-69667333D01*
X143726819Y-69667333D02*
X143774438Y-69572095D01*
X143774438Y-69572095D02*
X143822057Y-69524476D01*
X143822057Y-69524476D02*
X143917295Y-69476857D01*
X143917295Y-69476857D02*
X144060152Y-69476857D01*
X144060152Y-69476857D02*
X144155390Y-69524476D01*
X144155390Y-69524476D02*
X144203009Y-69572095D01*
X144203009Y-69572095D02*
X144250628Y-69667333D01*
X144250628Y-69667333D02*
X144250628Y-70048285D01*
X144726819Y-68524476D02*
X144726819Y-69095904D01*
X144726819Y-68810190D02*
X143726819Y-68810190D01*
X143726819Y-68810190D02*
X143869676Y-68905428D01*
X143869676Y-68905428D02*
X143964914Y-69000666D01*
X143964914Y-69000666D02*
X144012533Y-69095904D01*
X143726819Y-67905428D02*
X143726819Y-67810190D01*
X143726819Y-67810190D02*
X143774438Y-67714952D01*
X143774438Y-67714952D02*
X143822057Y-67667333D01*
X143822057Y-67667333D02*
X143917295Y-67619714D01*
X143917295Y-67619714D02*
X144107771Y-67572095D01*
X144107771Y-67572095D02*
X144345866Y-67572095D01*
X144345866Y-67572095D02*
X144536342Y-67619714D01*
X144536342Y-67619714D02*
X144631580Y-67667333D01*
X144631580Y-67667333D02*
X144679200Y-67714952D01*
X144679200Y-67714952D02*
X144726819Y-67810190D01*
X144726819Y-67810190D02*
X144726819Y-67905428D01*
X144726819Y-67905428D02*
X144679200Y-68000666D01*
X144679200Y-68000666D02*
X144631580Y-68048285D01*
X144631580Y-68048285D02*
X144536342Y-68095904D01*
X144536342Y-68095904D02*
X144345866Y-68143523D01*
X144345866Y-68143523D02*
X144107771Y-68143523D01*
X144107771Y-68143523D02*
X143917295Y-68095904D01*
X143917295Y-68095904D02*
X143822057Y-68048285D01*
X143822057Y-68048285D02*
X143774438Y-68000666D01*
X143774438Y-68000666D02*
X143726819Y-67905428D01*
X130821580Y-62288857D02*
X130869200Y-62336476D01*
X130869200Y-62336476D02*
X130916819Y-62479333D01*
X130916819Y-62479333D02*
X130916819Y-62574571D01*
X130916819Y-62574571D02*
X130869200Y-62717428D01*
X130869200Y-62717428D02*
X130773961Y-62812666D01*
X130773961Y-62812666D02*
X130678723Y-62860285D01*
X130678723Y-62860285D02*
X130488247Y-62907904D01*
X130488247Y-62907904D02*
X130345390Y-62907904D01*
X130345390Y-62907904D02*
X130154914Y-62860285D01*
X130154914Y-62860285D02*
X130059676Y-62812666D01*
X130059676Y-62812666D02*
X129964438Y-62717428D01*
X129964438Y-62717428D02*
X129916819Y-62574571D01*
X129916819Y-62574571D02*
X129916819Y-62479333D01*
X129916819Y-62479333D02*
X129964438Y-62336476D01*
X129964438Y-62336476D02*
X130012057Y-62288857D01*
X130916819Y-61336476D02*
X130916819Y-61907904D01*
X130916819Y-61622190D02*
X129916819Y-61622190D01*
X129916819Y-61622190D02*
X130059676Y-61717428D01*
X130059676Y-61717428D02*
X130154914Y-61812666D01*
X130154914Y-61812666D02*
X130202533Y-61907904D01*
X130916819Y-60384095D02*
X130916819Y-60955523D01*
X130916819Y-60669809D02*
X129916819Y-60669809D01*
X129916819Y-60669809D02*
X130059676Y-60765047D01*
X130059676Y-60765047D02*
X130154914Y-60860285D01*
X130154914Y-60860285D02*
X130202533Y-60955523D01*
X118324333Y-91926580D02*
X118276714Y-91974200D01*
X118276714Y-91974200D02*
X118133857Y-92021819D01*
X118133857Y-92021819D02*
X118038619Y-92021819D01*
X118038619Y-92021819D02*
X117895762Y-91974200D01*
X117895762Y-91974200D02*
X117800524Y-91878961D01*
X117800524Y-91878961D02*
X117752905Y-91783723D01*
X117752905Y-91783723D02*
X117705286Y-91593247D01*
X117705286Y-91593247D02*
X117705286Y-91450390D01*
X117705286Y-91450390D02*
X117752905Y-91259914D01*
X117752905Y-91259914D02*
X117800524Y-91164676D01*
X117800524Y-91164676D02*
X117895762Y-91069438D01*
X117895762Y-91069438D02*
X118038619Y-91021819D01*
X118038619Y-91021819D02*
X118133857Y-91021819D01*
X118133857Y-91021819D02*
X118276714Y-91069438D01*
X118276714Y-91069438D02*
X118324333Y-91117057D01*
X118657667Y-91021819D02*
X119276714Y-91021819D01*
X119276714Y-91021819D02*
X118943381Y-91402771D01*
X118943381Y-91402771D02*
X119086238Y-91402771D01*
X119086238Y-91402771D02*
X119181476Y-91450390D01*
X119181476Y-91450390D02*
X119229095Y-91498009D01*
X119229095Y-91498009D02*
X119276714Y-91593247D01*
X119276714Y-91593247D02*
X119276714Y-91831342D01*
X119276714Y-91831342D02*
X119229095Y-91926580D01*
X119229095Y-91926580D02*
X119181476Y-91974200D01*
X119181476Y-91974200D02*
X119086238Y-92021819D01*
X119086238Y-92021819D02*
X118800524Y-92021819D01*
X118800524Y-92021819D02*
X118705286Y-91974200D01*
X118705286Y-91974200D02*
X118657667Y-91926580D01*
X130429095Y-70688819D02*
X130429095Y-71498342D01*
X130429095Y-71498342D02*
X130476714Y-71593580D01*
X130476714Y-71593580D02*
X130524333Y-71641200D01*
X130524333Y-71641200D02*
X130619571Y-71688819D01*
X130619571Y-71688819D02*
X130810047Y-71688819D01*
X130810047Y-71688819D02*
X130905285Y-71641200D01*
X130905285Y-71641200D02*
X130952904Y-71593580D01*
X130952904Y-71593580D02*
X131000523Y-71498342D01*
X131000523Y-71498342D02*
X131000523Y-70688819D01*
X131952904Y-70688819D02*
X131476714Y-70688819D01*
X131476714Y-70688819D02*
X131429095Y-71165009D01*
X131429095Y-71165009D02*
X131476714Y-71117390D01*
X131476714Y-71117390D02*
X131571952Y-71069771D01*
X131571952Y-71069771D02*
X131810047Y-71069771D01*
X131810047Y-71069771D02*
X131905285Y-71117390D01*
X131905285Y-71117390D02*
X131952904Y-71165009D01*
X131952904Y-71165009D02*
X132000523Y-71260247D01*
X132000523Y-71260247D02*
X132000523Y-71498342D01*
X132000523Y-71498342D02*
X131952904Y-71593580D01*
X131952904Y-71593580D02*
X131905285Y-71641200D01*
X131905285Y-71641200D02*
X131810047Y-71688819D01*
X131810047Y-71688819D02*
X131571952Y-71688819D01*
X131571952Y-71688819D02*
X131476714Y-71641200D01*
X131476714Y-71641200D02*
X131429095Y-71593580D01*
X108926333Y-75543580D02*
X108878714Y-75591200D01*
X108878714Y-75591200D02*
X108735857Y-75638819D01*
X108735857Y-75638819D02*
X108640619Y-75638819D01*
X108640619Y-75638819D02*
X108497762Y-75591200D01*
X108497762Y-75591200D02*
X108402524Y-75495961D01*
X108402524Y-75495961D02*
X108354905Y-75400723D01*
X108354905Y-75400723D02*
X108307286Y-75210247D01*
X108307286Y-75210247D02*
X108307286Y-75067390D01*
X108307286Y-75067390D02*
X108354905Y-74876914D01*
X108354905Y-74876914D02*
X108402524Y-74781676D01*
X108402524Y-74781676D02*
X108497762Y-74686438D01*
X108497762Y-74686438D02*
X108640619Y-74638819D01*
X108640619Y-74638819D02*
X108735857Y-74638819D01*
X108735857Y-74638819D02*
X108878714Y-74686438D01*
X108878714Y-74686438D02*
X108926333Y-74734057D01*
X109307286Y-74734057D02*
X109354905Y-74686438D01*
X109354905Y-74686438D02*
X109450143Y-74638819D01*
X109450143Y-74638819D02*
X109688238Y-74638819D01*
X109688238Y-74638819D02*
X109783476Y-74686438D01*
X109783476Y-74686438D02*
X109831095Y-74734057D01*
X109831095Y-74734057D02*
X109878714Y-74829295D01*
X109878714Y-74829295D02*
X109878714Y-74924533D01*
X109878714Y-74924533D02*
X109831095Y-75067390D01*
X109831095Y-75067390D02*
X109259667Y-75638819D01*
X109259667Y-75638819D02*
X109878714Y-75638819D01*
X125262819Y-65381666D02*
X124786628Y-65714999D01*
X125262819Y-65953094D02*
X124262819Y-65953094D01*
X124262819Y-65953094D02*
X124262819Y-65572142D01*
X124262819Y-65572142D02*
X124310438Y-65476904D01*
X124310438Y-65476904D02*
X124358057Y-65429285D01*
X124358057Y-65429285D02*
X124453295Y-65381666D01*
X124453295Y-65381666D02*
X124596152Y-65381666D01*
X124596152Y-65381666D02*
X124691390Y-65429285D01*
X124691390Y-65429285D02*
X124739009Y-65476904D01*
X124739009Y-65476904D02*
X124786628Y-65572142D01*
X124786628Y-65572142D02*
X124786628Y-65953094D01*
X125262819Y-64905475D02*
X125262819Y-64714999D01*
X125262819Y-64714999D02*
X125215200Y-64619761D01*
X125215200Y-64619761D02*
X125167580Y-64572142D01*
X125167580Y-64572142D02*
X125024723Y-64476904D01*
X125024723Y-64476904D02*
X124834247Y-64429285D01*
X124834247Y-64429285D02*
X124453295Y-64429285D01*
X124453295Y-64429285D02*
X124358057Y-64476904D01*
X124358057Y-64476904D02*
X124310438Y-64524523D01*
X124310438Y-64524523D02*
X124262819Y-64619761D01*
X124262819Y-64619761D02*
X124262819Y-64810237D01*
X124262819Y-64810237D02*
X124310438Y-64905475D01*
X124310438Y-64905475D02*
X124358057Y-64953094D01*
X124358057Y-64953094D02*
X124453295Y-65000713D01*
X124453295Y-65000713D02*
X124691390Y-65000713D01*
X124691390Y-65000713D02*
X124786628Y-64953094D01*
X124786628Y-64953094D02*
X124834247Y-64905475D01*
X124834247Y-64905475D02*
X124881866Y-64810237D01*
X124881866Y-64810237D02*
X124881866Y-64619761D01*
X124881866Y-64619761D02*
X124834247Y-64524523D01*
X124834247Y-64524523D02*
X124786628Y-64476904D01*
X124786628Y-64476904D02*
X124691390Y-64429285D01*
X108762819Y-54664333D02*
X109477104Y-54664333D01*
X109477104Y-54664333D02*
X109619961Y-54711952D01*
X109619961Y-54711952D02*
X109715200Y-54807190D01*
X109715200Y-54807190D02*
X109762819Y-54950047D01*
X109762819Y-54950047D02*
X109762819Y-55045285D01*
X108762819Y-53711952D02*
X108762819Y-54188142D01*
X108762819Y-54188142D02*
X109239009Y-54235761D01*
X109239009Y-54235761D02*
X109191390Y-54188142D01*
X109191390Y-54188142D02*
X109143771Y-54092904D01*
X109143771Y-54092904D02*
X109143771Y-53854809D01*
X109143771Y-53854809D02*
X109191390Y-53759571D01*
X109191390Y-53759571D02*
X109239009Y-53711952D01*
X109239009Y-53711952D02*
X109334247Y-53664333D01*
X109334247Y-53664333D02*
X109572342Y-53664333D01*
X109572342Y-53664333D02*
X109667580Y-53711952D01*
X109667580Y-53711952D02*
X109715200Y-53759571D01*
X109715200Y-53759571D02*
X109762819Y-53854809D01*
X109762819Y-53854809D02*
X109762819Y-54092904D01*
X109762819Y-54092904D02*
X109715200Y-54188142D01*
X109715200Y-54188142D02*
X109667580Y-54235761D01*
X112482333Y-71479580D02*
X112434714Y-71527200D01*
X112434714Y-71527200D02*
X112291857Y-71574819D01*
X112291857Y-71574819D02*
X112196619Y-71574819D01*
X112196619Y-71574819D02*
X112053762Y-71527200D01*
X112053762Y-71527200D02*
X111958524Y-71431961D01*
X111958524Y-71431961D02*
X111910905Y-71336723D01*
X111910905Y-71336723D02*
X111863286Y-71146247D01*
X111863286Y-71146247D02*
X111863286Y-71003390D01*
X111863286Y-71003390D02*
X111910905Y-70812914D01*
X111910905Y-70812914D02*
X111958524Y-70717676D01*
X111958524Y-70717676D02*
X112053762Y-70622438D01*
X112053762Y-70622438D02*
X112196619Y-70574819D01*
X112196619Y-70574819D02*
X112291857Y-70574819D01*
X112291857Y-70574819D02*
X112434714Y-70622438D01*
X112434714Y-70622438D02*
X112482333Y-70670057D01*
X113387095Y-70574819D02*
X112910905Y-70574819D01*
X112910905Y-70574819D02*
X112863286Y-71051009D01*
X112863286Y-71051009D02*
X112910905Y-71003390D01*
X112910905Y-71003390D02*
X113006143Y-70955771D01*
X113006143Y-70955771D02*
X113244238Y-70955771D01*
X113244238Y-70955771D02*
X113339476Y-71003390D01*
X113339476Y-71003390D02*
X113387095Y-71051009D01*
X113387095Y-71051009D02*
X113434714Y-71146247D01*
X113434714Y-71146247D02*
X113434714Y-71384342D01*
X113434714Y-71384342D02*
X113387095Y-71479580D01*
X113387095Y-71479580D02*
X113339476Y-71527200D01*
X113339476Y-71527200D02*
X113244238Y-71574819D01*
X113244238Y-71574819D02*
X113006143Y-71574819D01*
X113006143Y-71574819D02*
X112910905Y-71527200D01*
X112910905Y-71527200D02*
X112863286Y-71479580D01*
X140752533Y-90624819D02*
X140276343Y-90624819D01*
X140276343Y-90624819D02*
X140276343Y-89624819D01*
X141514438Y-89958152D02*
X141514438Y-90624819D01*
X141276343Y-89577200D02*
X141038248Y-90291485D01*
X141038248Y-90291485D02*
X141657295Y-90291485D01*
X133146800Y-89624819D02*
X133146800Y-89862914D01*
X132908705Y-89767676D02*
X133146800Y-89862914D01*
X133146800Y-89862914D02*
X133384895Y-89767676D01*
X133003943Y-90053390D02*
X133146800Y-89862914D01*
X133146800Y-89862914D02*
X133289657Y-90053390D01*
X133146800Y-89624819D02*
X133146800Y-89862914D01*
X132908705Y-89767676D02*
X133146800Y-89862914D01*
X133146800Y-89862914D02*
X133384895Y-89767676D01*
X133003943Y-90053390D02*
X133146800Y-89862914D01*
X133146800Y-89862914D02*
X133289657Y-90053390D01*
X124714095Y-56343819D02*
X124714095Y-57153342D01*
X124714095Y-57153342D02*
X124761714Y-57248580D01*
X124761714Y-57248580D02*
X124809333Y-57296200D01*
X124809333Y-57296200D02*
X124904571Y-57343819D01*
X124904571Y-57343819D02*
X125095047Y-57343819D01*
X125095047Y-57343819D02*
X125190285Y-57296200D01*
X125190285Y-57296200D02*
X125237904Y-57248580D01*
X125237904Y-57248580D02*
X125285523Y-57153342D01*
X125285523Y-57153342D02*
X125285523Y-56343819D01*
X126190285Y-56677152D02*
X126190285Y-57343819D01*
X125952190Y-56296200D02*
X125714095Y-57010485D01*
X125714095Y-57010485D02*
X126333142Y-57010485D01*
X144631580Y-72302666D02*
X144679200Y-72350285D01*
X144679200Y-72350285D02*
X144726819Y-72493142D01*
X144726819Y-72493142D02*
X144726819Y-72588380D01*
X144726819Y-72588380D02*
X144679200Y-72731237D01*
X144679200Y-72731237D02*
X144583961Y-72826475D01*
X144583961Y-72826475D02*
X144488723Y-72874094D01*
X144488723Y-72874094D02*
X144298247Y-72921713D01*
X144298247Y-72921713D02*
X144155390Y-72921713D01*
X144155390Y-72921713D02*
X143964914Y-72874094D01*
X143964914Y-72874094D02*
X143869676Y-72826475D01*
X143869676Y-72826475D02*
X143774438Y-72731237D01*
X143774438Y-72731237D02*
X143726819Y-72588380D01*
X143726819Y-72588380D02*
X143726819Y-72493142D01*
X143726819Y-72493142D02*
X143774438Y-72350285D01*
X143774438Y-72350285D02*
X143822057Y-72302666D01*
X143726819Y-71445523D02*
X143726819Y-71635999D01*
X143726819Y-71635999D02*
X143774438Y-71731237D01*
X143774438Y-71731237D02*
X143822057Y-71778856D01*
X143822057Y-71778856D02*
X143964914Y-71874094D01*
X143964914Y-71874094D02*
X144155390Y-71921713D01*
X144155390Y-71921713D02*
X144536342Y-71921713D01*
X144536342Y-71921713D02*
X144631580Y-71874094D01*
X144631580Y-71874094D02*
X144679200Y-71826475D01*
X144679200Y-71826475D02*
X144726819Y-71731237D01*
X144726819Y-71731237D02*
X144726819Y-71540761D01*
X144726819Y-71540761D02*
X144679200Y-71445523D01*
X144679200Y-71445523D02*
X144631580Y-71397904D01*
X144631580Y-71397904D02*
X144536342Y-71350285D01*
X144536342Y-71350285D02*
X144298247Y-71350285D01*
X144298247Y-71350285D02*
X144203009Y-71397904D01*
X144203009Y-71397904D02*
X144155390Y-71445523D01*
X144155390Y-71445523D02*
X144107771Y-71540761D01*
X144107771Y-71540761D02*
X144107771Y-71731237D01*
X144107771Y-71731237D02*
X144155390Y-71826475D01*
X144155390Y-71826475D02*
X144203009Y-71874094D01*
X144203009Y-71874094D02*
X144298247Y-71921713D01*
X118356142Y-77194580D02*
X118308523Y-77242200D01*
X118308523Y-77242200D02*
X118165666Y-77289819D01*
X118165666Y-77289819D02*
X118070428Y-77289819D01*
X118070428Y-77289819D02*
X117927571Y-77242200D01*
X117927571Y-77242200D02*
X117832333Y-77146961D01*
X117832333Y-77146961D02*
X117784714Y-77051723D01*
X117784714Y-77051723D02*
X117737095Y-76861247D01*
X117737095Y-76861247D02*
X117737095Y-76718390D01*
X117737095Y-76718390D02*
X117784714Y-76527914D01*
X117784714Y-76527914D02*
X117832333Y-76432676D01*
X117832333Y-76432676D02*
X117927571Y-76337438D01*
X117927571Y-76337438D02*
X118070428Y-76289819D01*
X118070428Y-76289819D02*
X118165666Y-76289819D01*
X118165666Y-76289819D02*
X118308523Y-76337438D01*
X118308523Y-76337438D02*
X118356142Y-76385057D01*
X119308523Y-77289819D02*
X118737095Y-77289819D01*
X119022809Y-77289819D02*
X119022809Y-76289819D01*
X119022809Y-76289819D02*
X118927571Y-76432676D01*
X118927571Y-76432676D02*
X118832333Y-76527914D01*
X118832333Y-76527914D02*
X118737095Y-76575533D01*
X119879952Y-76718390D02*
X119784714Y-76670771D01*
X119784714Y-76670771D02*
X119737095Y-76623152D01*
X119737095Y-76623152D02*
X119689476Y-76527914D01*
X119689476Y-76527914D02*
X119689476Y-76480295D01*
X119689476Y-76480295D02*
X119737095Y-76385057D01*
X119737095Y-76385057D02*
X119784714Y-76337438D01*
X119784714Y-76337438D02*
X119879952Y-76289819D01*
X119879952Y-76289819D02*
X120070428Y-76289819D01*
X120070428Y-76289819D02*
X120165666Y-76337438D01*
X120165666Y-76337438D02*
X120213285Y-76385057D01*
X120213285Y-76385057D02*
X120260904Y-76480295D01*
X120260904Y-76480295D02*
X120260904Y-76527914D01*
X120260904Y-76527914D02*
X120213285Y-76623152D01*
X120213285Y-76623152D02*
X120165666Y-76670771D01*
X120165666Y-76670771D02*
X120070428Y-76718390D01*
X120070428Y-76718390D02*
X119879952Y-76718390D01*
X119879952Y-76718390D02*
X119784714Y-76766009D01*
X119784714Y-76766009D02*
X119737095Y-76813628D01*
X119737095Y-76813628D02*
X119689476Y-76908866D01*
X119689476Y-76908866D02*
X119689476Y-77099342D01*
X119689476Y-77099342D02*
X119737095Y-77194580D01*
X119737095Y-77194580D02*
X119784714Y-77242200D01*
X119784714Y-77242200D02*
X119879952Y-77289819D01*
X119879952Y-77289819D02*
X120070428Y-77289819D01*
X120070428Y-77289819D02*
X120165666Y-77242200D01*
X120165666Y-77242200D02*
X120213285Y-77194580D01*
X120213285Y-77194580D02*
X120260904Y-77099342D01*
X120260904Y-77099342D02*
X120260904Y-76908866D01*
X120260904Y-76908866D02*
X120213285Y-76813628D01*
X120213285Y-76813628D02*
X120165666Y-76766009D01*
X120165666Y-76766009D02*
X120070428Y-76718390D01*
X130429095Y-77686819D02*
X130429095Y-78496342D01*
X130429095Y-78496342D02*
X130476714Y-78591580D01*
X130476714Y-78591580D02*
X130524333Y-78639200D01*
X130524333Y-78639200D02*
X130619571Y-78686819D01*
X130619571Y-78686819D02*
X130810047Y-78686819D01*
X130810047Y-78686819D02*
X130905285Y-78639200D01*
X130905285Y-78639200D02*
X130952904Y-78591580D01*
X130952904Y-78591580D02*
X131000523Y-78496342D01*
X131000523Y-78496342D02*
X131000523Y-77686819D01*
X131619571Y-78115390D02*
X131524333Y-78067771D01*
X131524333Y-78067771D02*
X131476714Y-78020152D01*
X131476714Y-78020152D02*
X131429095Y-77924914D01*
X131429095Y-77924914D02*
X131429095Y-77877295D01*
X131429095Y-77877295D02*
X131476714Y-77782057D01*
X131476714Y-77782057D02*
X131524333Y-77734438D01*
X131524333Y-77734438D02*
X131619571Y-77686819D01*
X131619571Y-77686819D02*
X131810047Y-77686819D01*
X131810047Y-77686819D02*
X131905285Y-77734438D01*
X131905285Y-77734438D02*
X131952904Y-77782057D01*
X131952904Y-77782057D02*
X132000523Y-77877295D01*
X132000523Y-77877295D02*
X132000523Y-77924914D01*
X132000523Y-77924914D02*
X131952904Y-78020152D01*
X131952904Y-78020152D02*
X131905285Y-78067771D01*
X131905285Y-78067771D02*
X131810047Y-78115390D01*
X131810047Y-78115390D02*
X131619571Y-78115390D01*
X131619571Y-78115390D02*
X131524333Y-78163009D01*
X131524333Y-78163009D02*
X131476714Y-78210628D01*
X131476714Y-78210628D02*
X131429095Y-78305866D01*
X131429095Y-78305866D02*
X131429095Y-78496342D01*
X131429095Y-78496342D02*
X131476714Y-78591580D01*
X131476714Y-78591580D02*
X131524333Y-78639200D01*
X131524333Y-78639200D02*
X131619571Y-78686819D01*
X131619571Y-78686819D02*
X131810047Y-78686819D01*
X131810047Y-78686819D02*
X131905285Y-78639200D01*
X131905285Y-78639200D02*
X131952904Y-78591580D01*
X131952904Y-78591580D02*
X132000523Y-78496342D01*
X132000523Y-78496342D02*
X132000523Y-78305866D01*
X132000523Y-78305866D02*
X131952904Y-78210628D01*
X131952904Y-78210628D02*
X131905285Y-78163009D01*
X131905285Y-78163009D02*
X131810047Y-78115390D01*
X157121666Y-69768819D02*
X157121666Y-70483104D01*
X157121666Y-70483104D02*
X157074047Y-70625961D01*
X157074047Y-70625961D02*
X156978809Y-70721200D01*
X156978809Y-70721200D02*
X156835952Y-70768819D01*
X156835952Y-70768819D02*
X156740714Y-70768819D01*
X157550238Y-69864057D02*
X157597857Y-69816438D01*
X157597857Y-69816438D02*
X157693095Y-69768819D01*
X157693095Y-69768819D02*
X157931190Y-69768819D01*
X157931190Y-69768819D02*
X158026428Y-69816438D01*
X158026428Y-69816438D02*
X158074047Y-69864057D01*
X158074047Y-69864057D02*
X158121666Y-69959295D01*
X158121666Y-69959295D02*
X158121666Y-70054533D01*
X158121666Y-70054533D02*
X158074047Y-70197390D01*
X158074047Y-70197390D02*
X157502619Y-70768819D01*
X157502619Y-70768819D02*
X158121666Y-70768819D01*
X141932819Y-69000666D02*
X141456628Y-69333999D01*
X141932819Y-69572094D02*
X140932819Y-69572094D01*
X140932819Y-69572094D02*
X140932819Y-69191142D01*
X140932819Y-69191142D02*
X140980438Y-69095904D01*
X140980438Y-69095904D02*
X141028057Y-69048285D01*
X141028057Y-69048285D02*
X141123295Y-69000666D01*
X141123295Y-69000666D02*
X141266152Y-69000666D01*
X141266152Y-69000666D02*
X141361390Y-69048285D01*
X141361390Y-69048285D02*
X141409009Y-69095904D01*
X141409009Y-69095904D02*
X141456628Y-69191142D01*
X141456628Y-69191142D02*
X141456628Y-69572094D01*
X140932819Y-68667332D02*
X140932819Y-68000666D01*
X140932819Y-68000666D02*
X141932819Y-68429237D01*
X124714095Y-87064819D02*
X124714095Y-87874342D01*
X124714095Y-87874342D02*
X124761714Y-87969580D01*
X124761714Y-87969580D02*
X124809333Y-88017200D01*
X124809333Y-88017200D02*
X124904571Y-88064819D01*
X124904571Y-88064819D02*
X125095047Y-88064819D01*
X125095047Y-88064819D02*
X125190285Y-88017200D01*
X125190285Y-88017200D02*
X125237904Y-87969580D01*
X125237904Y-87969580D02*
X125285523Y-87874342D01*
X125285523Y-87874342D02*
X125285523Y-87064819D01*
X125666476Y-87064819D02*
X126333142Y-87064819D01*
X126333142Y-87064819D02*
X125904571Y-88064819D01*
X152304819Y-69254666D02*
X151828628Y-69587999D01*
X152304819Y-69826094D02*
X151304819Y-69826094D01*
X151304819Y-69826094D02*
X151304819Y-69445142D01*
X151304819Y-69445142D02*
X151352438Y-69349904D01*
X151352438Y-69349904D02*
X151400057Y-69302285D01*
X151400057Y-69302285D02*
X151495295Y-69254666D01*
X151495295Y-69254666D02*
X151638152Y-69254666D01*
X151638152Y-69254666D02*
X151733390Y-69302285D01*
X151733390Y-69302285D02*
X151781009Y-69349904D01*
X151781009Y-69349904D02*
X151828628Y-69445142D01*
X151828628Y-69445142D02*
X151828628Y-69826094D01*
X151304819Y-68921332D02*
X151304819Y-68302285D01*
X151304819Y-68302285D02*
X151685771Y-68635618D01*
X151685771Y-68635618D02*
X151685771Y-68492761D01*
X151685771Y-68492761D02*
X151733390Y-68397523D01*
X151733390Y-68397523D02*
X151781009Y-68349904D01*
X151781009Y-68349904D02*
X151876247Y-68302285D01*
X151876247Y-68302285D02*
X152114342Y-68302285D01*
X152114342Y-68302285D02*
X152209580Y-68349904D01*
X152209580Y-68349904D02*
X152257200Y-68397523D01*
X152257200Y-68397523D02*
X152304819Y-68492761D01*
X152304819Y-68492761D02*
X152304819Y-68778475D01*
X152304819Y-68778475D02*
X152257200Y-68873713D01*
X152257200Y-68873713D02*
X152209580Y-68921332D01*
D12*
X140724633Y-58006418D02*
X140119871Y-58006418D01*
X140119871Y-58006418D02*
X140119871Y-56736418D01*
X141813205Y-58006418D02*
X141087490Y-58006418D01*
X141450347Y-58006418D02*
X141450347Y-56736418D01*
X141450347Y-56736418D02*
X141329395Y-56917846D01*
X141329395Y-56917846D02*
X141208443Y-57038799D01*
X141208443Y-57038799D02*
X141087490Y-57099275D01*
D11*
X114554095Y-57112819D02*
X114554095Y-57922342D01*
X114554095Y-57922342D02*
X114601714Y-58017580D01*
X114601714Y-58017580D02*
X114649333Y-58065200D01*
X114649333Y-58065200D02*
X114744571Y-58112819D01*
X114744571Y-58112819D02*
X114935047Y-58112819D01*
X114935047Y-58112819D02*
X115030285Y-58065200D01*
X115030285Y-58065200D02*
X115077904Y-58017580D01*
X115077904Y-58017580D02*
X115125523Y-57922342D01*
X115125523Y-57922342D02*
X115125523Y-57112819D01*
X115649333Y-58112819D02*
X115839809Y-58112819D01*
X115839809Y-58112819D02*
X115935047Y-58065200D01*
X115935047Y-58065200D02*
X115982666Y-58017580D01*
X115982666Y-58017580D02*
X116077904Y-57874723D01*
X116077904Y-57874723D02*
X116125523Y-57684247D01*
X116125523Y-57684247D02*
X116125523Y-57303295D01*
X116125523Y-57303295D02*
X116077904Y-57208057D01*
X116077904Y-57208057D02*
X116030285Y-57160438D01*
X116030285Y-57160438D02*
X115935047Y-57112819D01*
X115935047Y-57112819D02*
X115744571Y-57112819D01*
X115744571Y-57112819D02*
X115649333Y-57160438D01*
X115649333Y-57160438D02*
X115601714Y-57208057D01*
X115601714Y-57208057D02*
X115554095Y-57303295D01*
X115554095Y-57303295D02*
X115554095Y-57541390D01*
X115554095Y-57541390D02*
X115601714Y-57636628D01*
X115601714Y-57636628D02*
X115649333Y-57684247D01*
X115649333Y-57684247D02*
X115744571Y-57731866D01*
X115744571Y-57731866D02*
X115935047Y-57731866D01*
X115935047Y-57731866D02*
X116030285Y-57684247D01*
X116030285Y-57684247D02*
X116077904Y-57636628D01*
X116077904Y-57636628D02*
X116125523Y-57541390D01*
X131010819Y-65381666D02*
X130534628Y-65714999D01*
X131010819Y-65953094D02*
X130010819Y-65953094D01*
X130010819Y-65953094D02*
X130010819Y-65572142D01*
X130010819Y-65572142D02*
X130058438Y-65476904D01*
X130058438Y-65476904D02*
X130106057Y-65429285D01*
X130106057Y-65429285D02*
X130201295Y-65381666D01*
X130201295Y-65381666D02*
X130344152Y-65381666D01*
X130344152Y-65381666D02*
X130439390Y-65429285D01*
X130439390Y-65429285D02*
X130487009Y-65476904D01*
X130487009Y-65476904D02*
X130534628Y-65572142D01*
X130534628Y-65572142D02*
X130534628Y-65953094D01*
X130439390Y-64810237D02*
X130391771Y-64905475D01*
X130391771Y-64905475D02*
X130344152Y-64953094D01*
X130344152Y-64953094D02*
X130248914Y-65000713D01*
X130248914Y-65000713D02*
X130201295Y-65000713D01*
X130201295Y-65000713D02*
X130106057Y-64953094D01*
X130106057Y-64953094D02*
X130058438Y-64905475D01*
X130058438Y-64905475D02*
X130010819Y-64810237D01*
X130010819Y-64810237D02*
X130010819Y-64619761D01*
X130010819Y-64619761D02*
X130058438Y-64524523D01*
X130058438Y-64524523D02*
X130106057Y-64476904D01*
X130106057Y-64476904D02*
X130201295Y-64429285D01*
X130201295Y-64429285D02*
X130248914Y-64429285D01*
X130248914Y-64429285D02*
X130344152Y-64476904D01*
X130344152Y-64476904D02*
X130391771Y-64524523D01*
X130391771Y-64524523D02*
X130439390Y-64619761D01*
X130439390Y-64619761D02*
X130439390Y-64810237D01*
X130439390Y-64810237D02*
X130487009Y-64905475D01*
X130487009Y-64905475D02*
X130534628Y-64953094D01*
X130534628Y-64953094D02*
X130629866Y-65000713D01*
X130629866Y-65000713D02*
X130820342Y-65000713D01*
X130820342Y-65000713D02*
X130915580Y-64953094D01*
X130915580Y-64953094D02*
X130963200Y-64905475D01*
X130963200Y-64905475D02*
X131010819Y-64810237D01*
X131010819Y-64810237D02*
X131010819Y-64619761D01*
X131010819Y-64619761D02*
X130963200Y-64524523D01*
X130963200Y-64524523D02*
X130915580Y-64476904D01*
X130915580Y-64476904D02*
X130820342Y-64429285D01*
X130820342Y-64429285D02*
X130629866Y-64429285D01*
X130629866Y-64429285D02*
X130534628Y-64476904D01*
X130534628Y-64476904D02*
X130487009Y-64524523D01*
X130487009Y-64524523D02*
X130439390Y-64619761D01*
X130915580Y-89479857D02*
X130963200Y-89527476D01*
X130963200Y-89527476D02*
X131010819Y-89670333D01*
X131010819Y-89670333D02*
X131010819Y-89765571D01*
X131010819Y-89765571D02*
X130963200Y-89908428D01*
X130963200Y-89908428D02*
X130867961Y-90003666D01*
X130867961Y-90003666D02*
X130772723Y-90051285D01*
X130772723Y-90051285D02*
X130582247Y-90098904D01*
X130582247Y-90098904D02*
X130439390Y-90098904D01*
X130439390Y-90098904D02*
X130248914Y-90051285D01*
X130248914Y-90051285D02*
X130153676Y-90003666D01*
X130153676Y-90003666D02*
X130058438Y-89908428D01*
X130058438Y-89908428D02*
X130010819Y-89765571D01*
X130010819Y-89765571D02*
X130010819Y-89670333D01*
X130010819Y-89670333D02*
X130058438Y-89527476D01*
X130058438Y-89527476D02*
X130106057Y-89479857D01*
X131010819Y-88527476D02*
X131010819Y-89098904D01*
X131010819Y-88813190D02*
X130010819Y-88813190D01*
X130010819Y-88813190D02*
X130153676Y-88908428D01*
X130153676Y-88908428D02*
X130248914Y-89003666D01*
X130248914Y-89003666D02*
X130296533Y-89098904D01*
X130010819Y-88194142D02*
X130010819Y-87575095D01*
X130010819Y-87575095D02*
X130391771Y-87908428D01*
X130391771Y-87908428D02*
X130391771Y-87765571D01*
X130391771Y-87765571D02*
X130439390Y-87670333D01*
X130439390Y-87670333D02*
X130487009Y-87622714D01*
X130487009Y-87622714D02*
X130582247Y-87575095D01*
X130582247Y-87575095D02*
X130820342Y-87575095D01*
X130820342Y-87575095D02*
X130915580Y-87622714D01*
X130915580Y-87622714D02*
X130963200Y-87670333D01*
X130963200Y-87670333D02*
X131010819Y-87765571D01*
X131010819Y-87765571D02*
X131010819Y-88051285D01*
X131010819Y-88051285D02*
X130963200Y-88146523D01*
X130963200Y-88146523D02*
X130915580Y-88194142D01*
D12*
X140718333Y-88902318D02*
X140113571Y-88902318D01*
X140113571Y-88902318D02*
X140113571Y-87632318D01*
X141020714Y-87632318D02*
X141806905Y-87632318D01*
X141806905Y-87632318D02*
X141383571Y-88116127D01*
X141383571Y-88116127D02*
X141565000Y-88116127D01*
X141565000Y-88116127D02*
X141685952Y-88176603D01*
X141685952Y-88176603D02*
X141746428Y-88237080D01*
X141746428Y-88237080D02*
X141806905Y-88358032D01*
X141806905Y-88358032D02*
X141806905Y-88660413D01*
X141806905Y-88660413D02*
X141746428Y-88781365D01*
X141746428Y-88781365D02*
X141685952Y-88841842D01*
X141685952Y-88841842D02*
X141565000Y-88902318D01*
X141565000Y-88902318D02*
X141202143Y-88902318D01*
X141202143Y-88902318D02*
X141081190Y-88841842D01*
X141081190Y-88841842D02*
X141020714Y-88781365D01*
D11*
X130915580Y-93035857D02*
X130963200Y-93083476D01*
X130963200Y-93083476D02*
X131010819Y-93226333D01*
X131010819Y-93226333D02*
X131010819Y-93321571D01*
X131010819Y-93321571D02*
X130963200Y-93464428D01*
X130963200Y-93464428D02*
X130867961Y-93559666D01*
X130867961Y-93559666D02*
X130772723Y-93607285D01*
X130772723Y-93607285D02*
X130582247Y-93654904D01*
X130582247Y-93654904D02*
X130439390Y-93654904D01*
X130439390Y-93654904D02*
X130248914Y-93607285D01*
X130248914Y-93607285D02*
X130153676Y-93559666D01*
X130153676Y-93559666D02*
X130058438Y-93464428D01*
X130058438Y-93464428D02*
X130010819Y-93321571D01*
X130010819Y-93321571D02*
X130010819Y-93226333D01*
X130010819Y-93226333D02*
X130058438Y-93083476D01*
X130058438Y-93083476D02*
X130106057Y-93035857D01*
X131010819Y-92083476D02*
X131010819Y-92654904D01*
X131010819Y-92369190D02*
X130010819Y-92369190D01*
X130010819Y-92369190D02*
X130153676Y-92464428D01*
X130153676Y-92464428D02*
X130248914Y-92559666D01*
X130248914Y-92559666D02*
X130296533Y-92654904D01*
X130010819Y-91750142D02*
X130010819Y-91083476D01*
X130010819Y-91083476D02*
X131010819Y-91512047D01*
X139138819Y-81160857D02*
X138662628Y-81494190D01*
X139138819Y-81732285D02*
X138138819Y-81732285D01*
X138138819Y-81732285D02*
X138138819Y-81351333D01*
X138138819Y-81351333D02*
X138186438Y-81256095D01*
X138186438Y-81256095D02*
X138234057Y-81208476D01*
X138234057Y-81208476D02*
X138329295Y-81160857D01*
X138329295Y-81160857D02*
X138472152Y-81160857D01*
X138472152Y-81160857D02*
X138567390Y-81208476D01*
X138567390Y-81208476D02*
X138615009Y-81256095D01*
X138615009Y-81256095D02*
X138662628Y-81351333D01*
X138662628Y-81351333D02*
X138662628Y-81732285D01*
X139138819Y-80208476D02*
X139138819Y-80779904D01*
X139138819Y-80494190D02*
X138138819Y-80494190D01*
X138138819Y-80494190D02*
X138281676Y-80589428D01*
X138281676Y-80589428D02*
X138376914Y-80684666D01*
X138376914Y-80684666D02*
X138424533Y-80779904D01*
X138138819Y-79875142D02*
X138138819Y-79256095D01*
X138138819Y-79256095D02*
X138519771Y-79589428D01*
X138519771Y-79589428D02*
X138519771Y-79446571D01*
X138519771Y-79446571D02*
X138567390Y-79351333D01*
X138567390Y-79351333D02*
X138615009Y-79303714D01*
X138615009Y-79303714D02*
X138710247Y-79256095D01*
X138710247Y-79256095D02*
X138948342Y-79256095D01*
X138948342Y-79256095D02*
X139043580Y-79303714D01*
X139043580Y-79303714D02*
X139091200Y-79351333D01*
X139091200Y-79351333D02*
X139138819Y-79446571D01*
X139138819Y-79446571D02*
X139138819Y-79732285D01*
X139138819Y-79732285D02*
X139091200Y-79827523D01*
X139091200Y-79827523D02*
X139043580Y-79875142D01*
X157331580Y-93606857D02*
X157379200Y-93654476D01*
X157379200Y-93654476D02*
X157426819Y-93797333D01*
X157426819Y-93797333D02*
X157426819Y-93892571D01*
X157426819Y-93892571D02*
X157379200Y-94035428D01*
X157379200Y-94035428D02*
X157283961Y-94130666D01*
X157283961Y-94130666D02*
X157188723Y-94178285D01*
X157188723Y-94178285D02*
X156998247Y-94225904D01*
X156998247Y-94225904D02*
X156855390Y-94225904D01*
X156855390Y-94225904D02*
X156664914Y-94178285D01*
X156664914Y-94178285D02*
X156569676Y-94130666D01*
X156569676Y-94130666D02*
X156474438Y-94035428D01*
X156474438Y-94035428D02*
X156426819Y-93892571D01*
X156426819Y-93892571D02*
X156426819Y-93797333D01*
X156426819Y-93797333D02*
X156474438Y-93654476D01*
X156474438Y-93654476D02*
X156522057Y-93606857D01*
X157426819Y-92654476D02*
X157426819Y-93225904D01*
X157426819Y-92940190D02*
X156426819Y-92940190D01*
X156426819Y-92940190D02*
X156569676Y-93035428D01*
X156569676Y-93035428D02*
X156664914Y-93130666D01*
X156664914Y-93130666D02*
X156712533Y-93225904D01*
X156426819Y-91797333D02*
X156426819Y-91987809D01*
X156426819Y-91987809D02*
X156474438Y-92083047D01*
X156474438Y-92083047D02*
X156522057Y-92130666D01*
X156522057Y-92130666D02*
X156664914Y-92225904D01*
X156664914Y-92225904D02*
X156855390Y-92273523D01*
X156855390Y-92273523D02*
X157236342Y-92273523D01*
X157236342Y-92273523D02*
X157331580Y-92225904D01*
X157331580Y-92225904D02*
X157379200Y-92178285D01*
X157379200Y-92178285D02*
X157426819Y-92083047D01*
X157426819Y-92083047D02*
X157426819Y-91892571D01*
X157426819Y-91892571D02*
X157379200Y-91797333D01*
X157379200Y-91797333D02*
X157331580Y-91749714D01*
X157331580Y-91749714D02*
X157236342Y-91702095D01*
X157236342Y-91702095D02*
X156998247Y-91702095D01*
X156998247Y-91702095D02*
X156903009Y-91749714D01*
X156903009Y-91749714D02*
X156855390Y-91797333D01*
X156855390Y-91797333D02*
X156807771Y-91892571D01*
X156807771Y-91892571D02*
X156807771Y-92083047D01*
X156807771Y-92083047D02*
X156855390Y-92178285D01*
X156855390Y-92178285D02*
X156903009Y-92225904D01*
X156903009Y-92225904D02*
X156998247Y-92273523D01*
D13*
%TO.C,R21*%
X123966500Y-65452258D02*
X123966500Y-64977742D01*
X122921500Y-65452258D02*
X122921500Y-64977742D01*
%TO.C,D1*%
X123896000Y-70265000D02*
X123896000Y-67580000D01*
X121976000Y-70265000D02*
X123896000Y-70265000D01*
X121976000Y-67580000D02*
X121976000Y-70265000D01*
%TO.C,C1*%
X110182252Y-71855000D02*
X109659748Y-71855000D01*
X110182252Y-70385000D02*
X109659748Y-70385000D01*
%TO.C,C9*%
X151357000Y-63812748D02*
X151357000Y-64335252D01*
X149887000Y-63812748D02*
X149887000Y-64335252D01*
%TO.C,R17*%
X143270500Y-80280742D02*
X143270500Y-80755258D01*
X142225500Y-80280742D02*
X142225500Y-80755258D01*
%TO.C,R20*%
X121809742Y-73391500D02*
X122284258Y-73391500D01*
X121809742Y-74436500D02*
X122284258Y-74436500D01*
%TO.C,C14*%
X153189000Y-86367252D02*
X153189000Y-85844748D01*
X154659000Y-86367252D02*
X154659000Y-85844748D01*
%TO.C,R6*%
X136637500Y-69071258D02*
X136637500Y-68596742D01*
X137682500Y-69071258D02*
X137682500Y-68596742D01*
%TO.C,U3*%
X147792000Y-69342000D02*
X147792000Y-71142000D01*
X147792000Y-69342000D02*
X147792000Y-68542000D01*
X150912000Y-69342000D02*
X150912000Y-70142000D01*
X150912000Y-69342000D02*
X150912000Y-68542000D01*
%TO.C,R15*%
X137682500Y-80280742D02*
X137682500Y-80755258D01*
X136637500Y-80280742D02*
X136637500Y-80755258D01*
%TO.C,R16*%
X131303500Y-96186258D02*
X131303500Y-95711742D01*
X132348500Y-96186258D02*
X132348500Y-95711742D01*
%TO.C,U1*%
X114681000Y-75474000D02*
X116356000Y-75474000D01*
X114681000Y-75474000D02*
X114031000Y-75474000D01*
X114681000Y-72354000D02*
X115331000Y-72354000D01*
X114681000Y-72354000D02*
X114031000Y-72354000D01*
%TO.C,C4*%
X115329580Y-77345000D02*
X115048420Y-77345000D01*
X115329580Y-76325000D02*
X115048420Y-76325000D01*
%TO.C,U6*%
X147792000Y-80010000D02*
X147792000Y-81810000D01*
X147792000Y-80010000D02*
X147792000Y-79210000D01*
X150912000Y-80010000D02*
X150912000Y-80810000D01*
X150912000Y-80010000D02*
X150912000Y-79210000D01*
%TO.C,C7*%
X131316000Y-58243580D02*
X131316000Y-57962420D01*
X132336000Y-58243580D02*
X132336000Y-57962420D01*
%TO.C,R12*%
X152760000Y-80991064D02*
X152760000Y-79536936D01*
X154580000Y-80991064D02*
X154580000Y-79536936D01*
%TO.C,R14*%
X129554500Y-95711742D02*
X129554500Y-96186258D01*
X128509500Y-95711742D02*
X128509500Y-96186258D01*
%TO.C,J1*%
X107739000Y-78331000D02*
X122439000Y-78331000D01*
X107739000Y-87531000D02*
X107739000Y-78331000D01*
X116539000Y-87531000D02*
X107739000Y-87531000D01*
X121589000Y-78131000D02*
X122639000Y-78131000D01*
X122439000Y-78331000D02*
X122439000Y-80931000D01*
X122439000Y-84831000D02*
X122439000Y-87531000D01*
X122439000Y-87531000D02*
X120539000Y-87531000D01*
X122639000Y-79181000D02*
X122639000Y-78131000D01*
%TO.C,R5*%
X129554500Y-64977742D02*
X129554500Y-65452258D01*
X128509500Y-64977742D02*
X128509500Y-65452258D01*
%TO.C,R11*%
X122284258Y-71642500D02*
X121809742Y-71642500D01*
X122284258Y-70597500D02*
X121809742Y-70597500D01*
D14*
%TO.C,L2*%
X139004040Y-66319400D02*
X142834360Y-66319400D01*
X142834360Y-52552600D02*
X139004040Y-52552600D01*
D13*
%TO.C,C8*%
X154659000Y-63812748D02*
X154659000Y-64335252D01*
X153189000Y-63812748D02*
X153189000Y-64335252D01*
%TO.C,R4*%
X139431500Y-69071258D02*
X139431500Y-68596742D01*
X140476500Y-69071258D02*
X140476500Y-68596742D01*
%TO.C,J4*%
X127314000Y-80772000D02*
X127314000Y-68012000D01*
X127314000Y-80772000D02*
X124654000Y-80772000D01*
X127314000Y-68012000D02*
X124654000Y-68012000D01*
X125984000Y-83372000D02*
X124654000Y-83372000D01*
X124654000Y-83372000D02*
X124654000Y-82042000D01*
X124654000Y-80772000D02*
X124654000Y-68012000D01*
%TO.C,C15*%
X149887000Y-86367252D02*
X149887000Y-85844748D01*
X151357000Y-86367252D02*
X151357000Y-85844748D01*
%TO.C,R1*%
X130062500Y-72660742D02*
X130062500Y-73135258D01*
X129017500Y-72660742D02*
X129017500Y-73135258D01*
%TO.C,C12*%
X146052000Y-77075420D02*
X146052000Y-77356580D01*
X145032000Y-77075420D02*
X145032000Y-77356580D01*
%TO.C,R18*%
X125715500Y-96186258D02*
X125715500Y-95711742D01*
X126760500Y-96186258D02*
X126760500Y-95711742D01*
%TO.C,C10*%
X150806500Y-61333500D02*
X150806500Y-60546000D01*
X150412750Y-60939750D02*
X151200250Y-60939750D01*
X150308437Y-60306000D02*
X151594000Y-60306000D01*
X150308437Y-60306000D02*
X149244000Y-59241563D01*
X154999563Y-60306000D02*
X153714000Y-60306000D01*
X154999563Y-60306000D02*
X156064000Y-59241563D01*
X149244000Y-59241563D02*
X149244000Y-53486000D01*
X156064000Y-59241563D02*
X156064000Y-53486000D01*
X149244000Y-53486000D02*
X151594000Y-53486000D01*
X156064000Y-53486000D02*
X153714000Y-53486000D01*
%TO.C,J3*%
X156150000Y-84328000D02*
X156150000Y-86928000D01*
X156150000Y-84328000D02*
X158810000Y-84328000D01*
X156150000Y-86928000D02*
X158810000Y-86928000D01*
X157480000Y-81728000D02*
X158810000Y-81728000D01*
X158810000Y-81728000D02*
X158810000Y-83058000D01*
X158810000Y-84328000D02*
X158810000Y-86928000D01*
%TO.C,U2*%
X143022000Y-74676000D02*
X143022000Y-71226000D01*
X143022000Y-74676000D02*
X143022000Y-76626000D01*
X137902000Y-74676000D02*
X137902000Y-72726000D01*
X137902000Y-74676000D02*
X137902000Y-76626000D01*
%TO.C,R2*%
X130062500Y-75962742D02*
X130062500Y-76437258D01*
X129017500Y-75962742D02*
X129017500Y-76437258D01*
%TO.C,R19*%
X146064500Y-80280742D02*
X146064500Y-80755258D01*
X145019500Y-80280742D02*
X145019500Y-80755258D01*
%TO.C,R10*%
X145019500Y-69071258D02*
X145019500Y-68596742D01*
X146064500Y-69071258D02*
X146064500Y-68596742D01*
%TO.C,C11*%
X132336000Y-61505420D02*
X132336000Y-61786580D01*
X131316000Y-61505420D02*
X131316000Y-61786580D01*
%TO.C,C3*%
X118229500Y-95319500D02*
X117442000Y-95319500D01*
X117835750Y-95713250D02*
X117835750Y-94925750D01*
X117202000Y-95817563D02*
X117202000Y-94532000D01*
X117202000Y-95817563D02*
X116137563Y-96882000D01*
X117202000Y-91126437D02*
X117202000Y-92412000D01*
X117202000Y-91126437D02*
X116137563Y-90062000D01*
X116137563Y-96882000D02*
X110382000Y-96882000D01*
X116137563Y-90062000D02*
X110382000Y-90062000D01*
X110382000Y-96882000D02*
X110382000Y-94532000D01*
X110382000Y-90062000D02*
X110382000Y-92412000D01*
%TO.C,U5*%
X130556000Y-70394000D02*
X132356000Y-70394000D01*
X130556000Y-70394000D02*
X129756000Y-70394000D01*
X130556000Y-67274000D02*
X131356000Y-67274000D01*
X130556000Y-67274000D02*
X129756000Y-67274000D01*
%TO.C,C2*%
X110182252Y-76100000D02*
X109659748Y-76100000D01*
X110182252Y-77570000D02*
X109659748Y-77570000D01*
%TO.C,R9*%
X125715500Y-65452258D02*
X125715500Y-64977742D01*
X126760500Y-65452258D02*
X126760500Y-64977742D01*
%TO.C,J5*%
X113167000Y-55407000D02*
X120847000Y-55407000D01*
X113167000Y-55407000D02*
X113167000Y-52747000D01*
X120847000Y-55407000D02*
X120847000Y-52747000D01*
X110567000Y-54077000D02*
X110567000Y-52747000D01*
X110567000Y-52747000D02*
X111897000Y-52747000D01*
X113167000Y-52747000D02*
X120847000Y-52747000D01*
%TO.C,C5*%
X115329580Y-71630000D02*
X115048420Y-71630000D01*
X115329580Y-70610000D02*
X115048420Y-70610000D01*
D14*
%TO.C,L4*%
X139004040Y-97053400D02*
X142834360Y-97053400D01*
X142834360Y-83286600D02*
X139004040Y-83286600D01*
D11*
%TO.C,U4*%
X123401000Y-57814000D02*
X123401000Y-57864000D01*
X123401000Y-57814000D02*
X127551000Y-57814000D01*
X123401000Y-57864000D02*
X122001000Y-57864000D01*
X123401000Y-62964000D02*
X123401000Y-62819000D01*
X123401000Y-62964000D02*
X127551000Y-62964000D01*
X127551000Y-57814000D02*
X127551000Y-57959000D01*
X127551000Y-62964000D02*
X127551000Y-62819000D01*
D13*
%TO.C,C6*%
X145032000Y-72276580D02*
X145032000Y-71995420D01*
X146052000Y-72276580D02*
X146052000Y-71995420D01*
%TO.C,C18*%
X122187580Y-77345000D02*
X121906420Y-77345000D01*
X122187580Y-76325000D02*
X121906420Y-76325000D01*
%TO.C,U8*%
X130556000Y-82332000D02*
X132356000Y-82332000D01*
X130556000Y-82332000D02*
X129756000Y-82332000D01*
X130556000Y-79212000D02*
X131356000Y-79212000D01*
X130556000Y-79212000D02*
X129756000Y-79212000D01*
%TO.C,J2*%
X158785000Y-66274000D02*
X158785000Y-63674000D01*
X158785000Y-66274000D02*
X156125000Y-66274000D01*
X158785000Y-63674000D02*
X156125000Y-63674000D01*
X157455000Y-68874000D02*
X156125000Y-68874000D01*
X156125000Y-68874000D02*
X156125000Y-67544000D01*
X156125000Y-66274000D02*
X156125000Y-63674000D01*
%TO.C,R7*%
X142225500Y-69071258D02*
X142225500Y-68596742D01*
X143270500Y-69071258D02*
X143270500Y-68596742D01*
D11*
%TO.C,U7*%
X123401000Y-88535000D02*
X123401000Y-88585000D01*
X123401000Y-88535000D02*
X127551000Y-88535000D01*
X123401000Y-88585000D02*
X122001000Y-88585000D01*
X123401000Y-93685000D02*
X123401000Y-93540000D01*
X123401000Y-93685000D02*
X127551000Y-93685000D01*
X127551000Y-88535000D02*
X127551000Y-88680000D01*
X127551000Y-93685000D02*
X127551000Y-93540000D01*
D13*
%TO.C,R3*%
X152760000Y-69815064D02*
X152760000Y-68360936D01*
X154580000Y-69815064D02*
X154580000Y-68360936D01*
D15*
%TO.C,L1*%
X135136300Y-61432100D02*
X135136300Y-61432100D01*
X135236300Y-61432100D02*
X135236300Y-61432100D01*
D16*
X135436300Y-59432100D02*
X135436300Y-59432100D01*
X146436300Y-59432100D02*
X146436300Y-59432100D01*
D15*
X135236300Y-61432100D02*
G75*
G03*
X135136300Y-61432100I-50000J0D01*
G01*
X135136300Y-61432100D02*
G75*
G03*
X135236300Y-61432100I50000J0D01*
G01*
D16*
X146436300Y-59432100D02*
G75*
G03*
X135436300Y-59432100I-5500000J0D01*
G01*
X135436300Y-59432100D02*
G75*
G03*
X146436300Y-59432100I5500000J0D01*
G01*
D13*
%TO.C,U9*%
X111456000Y-56736000D02*
X111456000Y-56971000D01*
X111456000Y-56971000D02*
X109641000Y-56971000D01*
X111456000Y-69756000D02*
X111456000Y-69521000D01*
X115316000Y-56736000D02*
X111456000Y-56736000D01*
X115316000Y-56736000D02*
X119176000Y-56736000D01*
X115316000Y-69756000D02*
X111456000Y-69756000D01*
X115316000Y-69756000D02*
X119176000Y-69756000D01*
X119176000Y-56736000D02*
X119176000Y-56971000D01*
X119176000Y-69756000D02*
X119176000Y-69521000D01*
%TO.C,R8*%
X131303500Y-65452258D02*
X131303500Y-64977742D01*
X132348500Y-65452258D02*
X132348500Y-64977742D01*
%TO.C,C13*%
X131316000Y-88977580D02*
X131316000Y-88696420D01*
X132336000Y-88977580D02*
X132336000Y-88696420D01*
D15*
%TO.C,L3*%
X135130000Y-92138000D02*
X135130000Y-92138000D01*
X135230000Y-92138000D02*
X135230000Y-92138000D01*
D16*
X135430000Y-90138000D02*
X135430000Y-90138000D01*
X146430000Y-90138000D02*
X146430000Y-90138000D01*
D15*
X135230000Y-92138000D02*
G75*
G03*
X135130000Y-92138000I-50000J0D01*
G01*
X135130000Y-92138000D02*
G75*
G03*
X135230000Y-92138000I50000J0D01*
G01*
D16*
X146430000Y-90138000D02*
G75*
G03*
X135430000Y-90138000I-5500000J0D01*
G01*
X135430000Y-90138000D02*
G75*
G03*
X146430000Y-90138000I5500000J0D01*
G01*
D13*
%TO.C,C17*%
X131316000Y-92533580D02*
X131316000Y-92252420D01*
X132336000Y-92533580D02*
X132336000Y-92252420D01*
%TO.C,R13*%
X140476500Y-80280742D02*
X140476500Y-80755258D01*
X139431500Y-80280742D02*
X139431500Y-80755258D01*
%TO.C,C16*%
X154501500Y-88526500D02*
X154501500Y-89314000D01*
X154895250Y-88920250D02*
X154107750Y-88920250D01*
X154999563Y-89554000D02*
X153714000Y-89554000D01*
X154999563Y-89554000D02*
X156064000Y-90618437D01*
X150308437Y-89554000D02*
X151594000Y-89554000D01*
X150308437Y-89554000D02*
X149244000Y-90618437D01*
X156064000Y-90618437D02*
X156064000Y-96374000D01*
X149244000Y-90618437D02*
X149244000Y-96374000D01*
X156064000Y-96374000D02*
X153714000Y-96374000D01*
X149244000Y-96374000D02*
X151594000Y-96374000D01*
%TD*%
M02*
