%TF.GenerationSoftware,KiCad,Pcbnew,7.0.8*%
%TF.CreationDate,2023-11-10T01:16:26-06:00*%
%TF.ProjectId,LightingBoard,4c696768-7469-46e6-9742-6f6172642e6b,rev?*%
%TF.SameCoordinates,Original*%
%TF.FileFunction,Paste,Top*%
%TF.FilePolarity,Positive*%
%FSLAX46Y46*%
G04 Gerber Fmt 4.6, Leading zero omitted, Abs format (unit mm)*
G04 Created by KiCad (PCBNEW 7.0.8) date 2023-11-10 01:16:26*
%MOMM*%
%LPD*%
G01*
G04 APERTURE LIST*
G04 Aperture macros list*
%AMRoundRect*
0 Rectangle with rounded corners*
0 $1 Rounding radius*
0 $2 $3 $4 $5 $6 $7 $8 $9 X,Y pos of 4 corners*
0 Add a 4 corners polygon primitive as box body*
4,1,4,$2,$3,$4,$5,$6,$7,$8,$9,$2,$3,0*
0 Add four circle primitives for the rounded corners*
1,1,$1+$1,$2,$3*
1,1,$1+$1,$4,$5*
1,1,$1+$1,$6,$7*
1,1,$1+$1,$8,$9*
0 Add four rect primitives between the rounded corners*
20,1,$1+$1,$2,$3,$4,$5,0*
20,1,$1+$1,$4,$5,$6,$7,0*
20,1,$1+$1,$6,$7,$8,$9,0*
20,1,$1+$1,$8,$9,$2,$3,0*%
G04 Aperture macros list end*
%ADD10RoundRect,0.200000X0.275000X-0.200000X0.275000X0.200000X-0.275000X0.200000X-0.275000X-0.200000X0*%
%ADD11RoundRect,0.243750X0.456250X-0.243750X0.456250X0.243750X-0.456250X0.243750X-0.456250X-0.243750X0*%
%ADD12RoundRect,0.250000X0.250000X0.475000X-0.250000X0.475000X-0.250000X-0.475000X0.250000X-0.475000X0*%
%ADD13RoundRect,0.250000X-0.475000X0.250000X-0.475000X-0.250000X0.475000X-0.250000X0.475000X0.250000X0*%
%ADD14RoundRect,0.200000X-0.275000X0.200000X-0.275000X-0.200000X0.275000X-0.200000X0.275000X0.200000X0*%
%ADD15RoundRect,0.200000X-0.200000X-0.275000X0.200000X-0.275000X0.200000X0.275000X-0.200000X0.275000X0*%
%ADD16RoundRect,0.250000X0.475000X-0.250000X0.475000X0.250000X-0.475000X0.250000X-0.475000X-0.250000X0*%
%ADD17RoundRect,0.150000X0.150000X-0.512500X0.150000X0.512500X-0.150000X0.512500X-0.150000X-0.512500X0*%
%ADD18RoundRect,0.150000X0.587500X0.150000X-0.587500X0.150000X-0.587500X-0.150000X0.587500X-0.150000X0*%
%ADD19RoundRect,0.225000X0.225000X0.250000X-0.225000X0.250000X-0.225000X-0.250000X0.225000X-0.250000X0*%
%ADD20RoundRect,0.225000X0.250000X-0.225000X0.250000X0.225000X-0.250000X0.225000X-0.250000X-0.225000X0*%
%ADD21RoundRect,0.250000X0.625000X-0.312500X0.625000X0.312500X-0.625000X0.312500X-0.625000X-0.312500X0*%
%ADD22RoundRect,0.200000X0.200000X0.275000X-0.200000X0.275000X-0.200000X-0.275000X0.200000X-0.275000X0*%
%ADD23R,4.749800X13.995400*%
%ADD24RoundRect,0.225000X-0.250000X0.225000X-0.250000X-0.225000X0.250000X-0.225000X0.250000X0.225000X0*%
%ADD25RoundRect,0.250000X0.550000X-1.500000X0.550000X1.500000X-0.550000X1.500000X-0.550000X-1.500000X0*%
%ADD26RoundRect,0.150000X-0.150000X0.825000X-0.150000X-0.825000X0.150000X-0.825000X0.150000X0.825000X0*%
%ADD27RoundRect,0.250000X1.500000X0.550000X-1.500000X0.550000X-1.500000X-0.550000X1.500000X-0.550000X0*%
%ADD28RoundRect,0.150000X0.512500X0.150000X-0.512500X0.150000X-0.512500X-0.150000X0.512500X-0.150000X0*%
%ADD29R,2.600000X3.100000*%
%ADD30R,1.550000X0.600000*%
%ADD31RoundRect,0.150000X-0.875000X-0.150000X0.875000X-0.150000X0.875000X0.150000X-0.875000X0.150000X0*%
%ADD32RoundRect,0.250000X-0.550000X1.500000X-0.550000X-1.500000X0.550000X-1.500000X0.550000X1.500000X0*%
G04 APERTURE END LIST*
D10*
%TO.C,R21*%
X123444000Y-66040000D03*
X123444000Y-64390000D03*
%TD*%
D11*
%TO.C,D1*%
X122936000Y-69517500D03*
X122936000Y-67642500D03*
%TD*%
D12*
%TO.C,C1*%
X110871000Y-71120000D03*
X108971000Y-71120000D03*
%TD*%
D13*
%TO.C,C9*%
X150622000Y-63124000D03*
X150622000Y-65024000D03*
%TD*%
D14*
%TO.C,R17*%
X142748000Y-79693000D03*
X142748000Y-81343000D03*
%TD*%
D15*
%TO.C,R20*%
X121222000Y-73914000D03*
X122872000Y-73914000D03*
%TD*%
D16*
%TO.C,C14*%
X153924000Y-87056000D03*
X153924000Y-85156000D03*
%TD*%
D10*
%TO.C,R6*%
X137160000Y-69659000D03*
X137160000Y-68009000D03*
%TD*%
D17*
%TO.C,U3*%
X148402000Y-70479500D03*
X149352000Y-70479500D03*
X150302000Y-70479500D03*
X150302000Y-68204500D03*
X148402000Y-68204500D03*
%TD*%
D14*
%TO.C,R15*%
X137160000Y-79693000D03*
X137160000Y-81343000D03*
%TD*%
D10*
%TO.C,R16*%
X131826000Y-96774000D03*
X131826000Y-95124000D03*
%TD*%
D18*
%TO.C,U1*%
X115618500Y-74864000D03*
X115618500Y-72964000D03*
X113743500Y-73914000D03*
%TD*%
D19*
%TO.C,C4*%
X115964000Y-76835000D03*
X114414000Y-76835000D03*
%TD*%
D17*
%TO.C,U6*%
X148402000Y-81147500D03*
X149352000Y-81147500D03*
X150302000Y-81147500D03*
X150302000Y-78872500D03*
X148402000Y-78872500D03*
%TD*%
D20*
%TO.C,C7*%
X131826000Y-58878000D03*
X131826000Y-57328000D03*
%TD*%
D21*
%TO.C,R12*%
X153670000Y-81726500D03*
X153670000Y-78801500D03*
%TD*%
D14*
%TO.C,R14*%
X129032000Y-95124000D03*
X129032000Y-96774000D03*
%TD*%
%TO.C,R5*%
X129032000Y-64390000D03*
X129032000Y-66040000D03*
%TD*%
D22*
%TO.C,R11*%
X122872000Y-71120000D03*
X121222000Y-71120000D03*
%TD*%
D23*
%TO.C,L2*%
X136296400Y-59436000D03*
X145542000Y-59436000D03*
%TD*%
D13*
%TO.C,C8*%
X153924000Y-63124000D03*
X153924000Y-65024000D03*
%TD*%
D10*
%TO.C,R4*%
X139954000Y-69659000D03*
X139954000Y-68009000D03*
%TD*%
D16*
%TO.C,C15*%
X150622000Y-87056000D03*
X150622000Y-85156000D03*
%TD*%
D14*
%TO.C,R1*%
X129540000Y-72073000D03*
X129540000Y-73723000D03*
%TD*%
D24*
%TO.C,C12*%
X145542000Y-76441000D03*
X145542000Y-77991000D03*
%TD*%
D10*
%TO.C,R18*%
X126238000Y-96774000D03*
X126238000Y-95124000D03*
%TD*%
D25*
%TO.C,C10*%
X152654000Y-59596000D03*
X152654000Y-54196000D03*
%TD*%
D26*
%TO.C,U2*%
X142367000Y-72201000D03*
X141097000Y-72201000D03*
X139827000Y-72201000D03*
X138557000Y-72201000D03*
X138557000Y-77151000D03*
X139827000Y-77151000D03*
X141097000Y-77151000D03*
X142367000Y-77151000D03*
%TD*%
D14*
%TO.C,R2*%
X129540000Y-75375000D03*
X129540000Y-77025000D03*
%TD*%
%TO.C,R19*%
X145542000Y-79693000D03*
X145542000Y-81343000D03*
%TD*%
D10*
%TO.C,R10*%
X145542000Y-69659000D03*
X145542000Y-68009000D03*
%TD*%
D24*
%TO.C,C11*%
X131826000Y-60871000D03*
X131826000Y-62421000D03*
%TD*%
D27*
%TO.C,C3*%
X116492000Y-93472000D03*
X111092000Y-93472000D03*
%TD*%
D28*
%TO.C,U5*%
X131693500Y-69784000D03*
X131693500Y-68834000D03*
X131693500Y-67884000D03*
X129418500Y-67884000D03*
X129418500Y-68834000D03*
X129418500Y-69784000D03*
%TD*%
D12*
%TO.C,C2*%
X108971000Y-76835000D03*
X110871000Y-76835000D03*
%TD*%
D10*
%TO.C,R9*%
X126238000Y-66040000D03*
X126238000Y-64390000D03*
%TD*%
D19*
%TO.C,C5*%
X115964000Y-71120000D03*
X114414000Y-71120000D03*
%TD*%
D23*
%TO.C,L4*%
X136296400Y-90170000D03*
X145542000Y-90170000D03*
%TD*%
D29*
%TO.C,U4*%
X125476000Y-60389000D03*
D30*
X122776000Y-58484000D03*
X122776000Y-59754000D03*
X122776000Y-61024000D03*
X122776000Y-62294000D03*
X128176000Y-62294000D03*
X128176000Y-61024000D03*
X128176000Y-59754000D03*
X128176000Y-58484000D03*
%TD*%
D20*
%TO.C,C6*%
X145542000Y-72911000D03*
X145542000Y-71361000D03*
%TD*%
D19*
%TO.C,C18*%
X122822000Y-76835000D03*
X121272000Y-76835000D03*
%TD*%
D28*
%TO.C,U8*%
X131693500Y-81722000D03*
X131693500Y-80772000D03*
X131693500Y-79822000D03*
X129418500Y-79822000D03*
X129418500Y-80772000D03*
X129418500Y-81722000D03*
%TD*%
D10*
%TO.C,R7*%
X142748000Y-69659000D03*
X142748000Y-68009000D03*
%TD*%
D29*
%TO.C,U7*%
X125476000Y-91110000D03*
D30*
X122776000Y-89205000D03*
X122776000Y-90475000D03*
X122776000Y-91745000D03*
X122776000Y-93015000D03*
X128176000Y-93015000D03*
X128176000Y-91745000D03*
X128176000Y-90475000D03*
X128176000Y-89205000D03*
%TD*%
D21*
%TO.C,R3*%
X153670000Y-70550500D03*
X153670000Y-67625500D03*
%TD*%
D31*
%TO.C,U9*%
X110666000Y-57531000D03*
X110666000Y-58801000D03*
X110666000Y-60071000D03*
X110666000Y-61341000D03*
X110666000Y-62611000D03*
X110666000Y-63881000D03*
X110666000Y-65151000D03*
X110666000Y-66421000D03*
X110666000Y-67691000D03*
X110666000Y-68961000D03*
X119966000Y-68961000D03*
X119966000Y-67691000D03*
X119966000Y-66421000D03*
X119966000Y-65151000D03*
X119966000Y-63881000D03*
X119966000Y-62611000D03*
X119966000Y-61341000D03*
X119966000Y-60071000D03*
X119966000Y-58801000D03*
X119966000Y-57531000D03*
%TD*%
D10*
%TO.C,R8*%
X131826000Y-66040000D03*
X131826000Y-64390000D03*
%TD*%
D20*
%TO.C,C13*%
X131826000Y-89612000D03*
X131826000Y-88062000D03*
%TD*%
%TO.C,C17*%
X131826000Y-93168000D03*
X131826000Y-91618000D03*
%TD*%
D14*
%TO.C,R13*%
X139954000Y-79693000D03*
X139954000Y-81343000D03*
%TD*%
D32*
%TO.C,C16*%
X152654000Y-90264000D03*
X152654000Y-95664000D03*
%TD*%
M02*
