%TF.GenerationSoftware,KiCad,Pcbnew,7.0.8*%
%TF.CreationDate,2023-11-10T01:16:26-06:00*%
%TF.ProjectId,LightingBoard,4c696768-7469-46e6-9742-6f6172642e6b,rev?*%
%TF.SameCoordinates,Original*%
%TF.FileFunction,Copper,L1,Top*%
%TF.FilePolarity,Positive*%
%FSLAX46Y46*%
G04 Gerber Fmt 4.6, Leading zero omitted, Abs format (unit mm)*
G04 Created by KiCad (PCBNEW 7.0.8) date 2023-11-10 01:16:26*
%MOMM*%
%LPD*%
G01*
G04 APERTURE LIST*
G04 Aperture macros list*
%AMRoundRect*
0 Rectangle with rounded corners*
0 $1 Rounding radius*
0 $2 $3 $4 $5 $6 $7 $8 $9 X,Y pos of 4 corners*
0 Add a 4 corners polygon primitive as box body*
4,1,4,$2,$3,$4,$5,$6,$7,$8,$9,$2,$3,0*
0 Add four circle primitives for the rounded corners*
1,1,$1+$1,$2,$3*
1,1,$1+$1,$4,$5*
1,1,$1+$1,$6,$7*
1,1,$1+$1,$8,$9*
0 Add four rect primitives between the rounded corners*
20,1,$1+$1,$2,$3,$4,$5,0*
20,1,$1+$1,$4,$5,$6,$7,0*
20,1,$1+$1,$6,$7,$8,$9,0*
20,1,$1+$1,$8,$9,$2,$3,0*%
G04 Aperture macros list end*
%TA.AperFunction,SMDPad,CuDef*%
%ADD10RoundRect,0.200000X0.275000X-0.200000X0.275000X0.200000X-0.275000X0.200000X-0.275000X-0.200000X0*%
%TD*%
%TA.AperFunction,SMDPad,CuDef*%
%ADD11RoundRect,0.243750X0.456250X-0.243750X0.456250X0.243750X-0.456250X0.243750X-0.456250X-0.243750X0*%
%TD*%
%TA.AperFunction,SMDPad,CuDef*%
%ADD12RoundRect,0.250000X0.250000X0.475000X-0.250000X0.475000X-0.250000X-0.475000X0.250000X-0.475000X0*%
%TD*%
%TA.AperFunction,SMDPad,CuDef*%
%ADD13RoundRect,0.250000X-0.475000X0.250000X-0.475000X-0.250000X0.475000X-0.250000X0.475000X0.250000X0*%
%TD*%
%TA.AperFunction,SMDPad,CuDef*%
%ADD14RoundRect,0.200000X-0.275000X0.200000X-0.275000X-0.200000X0.275000X-0.200000X0.275000X0.200000X0*%
%TD*%
%TA.AperFunction,SMDPad,CuDef*%
%ADD15RoundRect,0.200000X-0.200000X-0.275000X0.200000X-0.275000X0.200000X0.275000X-0.200000X0.275000X0*%
%TD*%
%TA.AperFunction,SMDPad,CuDef*%
%ADD16RoundRect,0.250000X0.475000X-0.250000X0.475000X0.250000X-0.475000X0.250000X-0.475000X-0.250000X0*%
%TD*%
%TA.AperFunction,SMDPad,CuDef*%
%ADD17RoundRect,0.150000X0.150000X-0.512500X0.150000X0.512500X-0.150000X0.512500X-0.150000X-0.512500X0*%
%TD*%
%TA.AperFunction,SMDPad,CuDef*%
%ADD18RoundRect,0.150000X0.587500X0.150000X-0.587500X0.150000X-0.587500X-0.150000X0.587500X-0.150000X0*%
%TD*%
%TA.AperFunction,SMDPad,CuDef*%
%ADD19RoundRect,0.225000X0.225000X0.250000X-0.225000X0.250000X-0.225000X-0.250000X0.225000X-0.250000X0*%
%TD*%
%TA.AperFunction,SMDPad,CuDef*%
%ADD20RoundRect,0.225000X0.250000X-0.225000X0.250000X0.225000X-0.250000X0.225000X-0.250000X-0.225000X0*%
%TD*%
%TA.AperFunction,SMDPad,CuDef*%
%ADD21RoundRect,0.250000X0.625000X-0.312500X0.625000X0.312500X-0.625000X0.312500X-0.625000X-0.312500X0*%
%TD*%
%TA.AperFunction,ComponentPad*%
%ADD22R,3.500000X3.500000*%
%TD*%
%TA.AperFunction,ComponentPad*%
%ADD23RoundRect,0.750000X-0.750000X-1.000000X0.750000X-1.000000X0.750000X1.000000X-0.750000X1.000000X0*%
%TD*%
%TA.AperFunction,ComponentPad*%
%ADD24RoundRect,0.875000X-0.875000X-0.875000X0.875000X-0.875000X0.875000X0.875000X-0.875000X0.875000X0*%
%TD*%
%TA.AperFunction,SMDPad,CuDef*%
%ADD25RoundRect,0.200000X0.200000X0.275000X-0.200000X0.275000X-0.200000X-0.275000X0.200000X-0.275000X0*%
%TD*%
%TA.AperFunction,SMDPad,CuDef*%
%ADD26R,4.749800X13.995400*%
%TD*%
%TA.AperFunction,ComponentPad*%
%ADD27R,1.700000X1.700000*%
%TD*%
%TA.AperFunction,ComponentPad*%
%ADD28O,1.700000X1.700000*%
%TD*%
%TA.AperFunction,SMDPad,CuDef*%
%ADD29RoundRect,0.225000X-0.250000X0.225000X-0.250000X-0.225000X0.250000X-0.225000X0.250000X0.225000X0*%
%TD*%
%TA.AperFunction,SMDPad,CuDef*%
%ADD30RoundRect,0.250000X0.550000X-1.500000X0.550000X1.500000X-0.550000X1.500000X-0.550000X-1.500000X0*%
%TD*%
%TA.AperFunction,SMDPad,CuDef*%
%ADD31RoundRect,0.150000X-0.150000X0.825000X-0.150000X-0.825000X0.150000X-0.825000X0.150000X0.825000X0*%
%TD*%
%TA.AperFunction,SMDPad,CuDef*%
%ADD32RoundRect,0.250000X1.500000X0.550000X-1.500000X0.550000X-1.500000X-0.550000X1.500000X-0.550000X0*%
%TD*%
%TA.AperFunction,SMDPad,CuDef*%
%ADD33RoundRect,0.150000X0.512500X0.150000X-0.512500X0.150000X-0.512500X-0.150000X0.512500X-0.150000X0*%
%TD*%
%TA.AperFunction,SMDPad,CuDef*%
%ADD34R,1.550000X0.600000*%
%TD*%
%TA.AperFunction,ComponentPad*%
%ADD35C,0.600000*%
%TD*%
%TA.AperFunction,SMDPad,CuDef*%
%ADD36R,2.950000X4.900000*%
%TD*%
%TA.AperFunction,ComponentPad*%
%ADD37C,1.800000*%
%TD*%
%TA.AperFunction,ComponentPad*%
%ADD38R,1.800000X1.800000*%
%TD*%
%TA.AperFunction,SMDPad,CuDef*%
%ADD39RoundRect,0.150000X-0.875000X-0.150000X0.875000X-0.150000X0.875000X0.150000X-0.875000X0.150000X0*%
%TD*%
%TA.AperFunction,SMDPad,CuDef*%
%ADD40RoundRect,0.250000X-0.550000X1.500000X-0.550000X-1.500000X0.550000X-1.500000X0.550000X1.500000X0*%
%TD*%
%TA.AperFunction,ViaPad*%
%ADD41C,0.800000*%
%TD*%
%TA.AperFunction,Conductor*%
%ADD42C,0.250000*%
%TD*%
%TA.AperFunction,Conductor*%
%ADD43C,2.000000*%
%TD*%
%TA.AperFunction,Conductor*%
%ADD44C,1.000000*%
%TD*%
G04 APERTURE END LIST*
D10*
%TO.P,R21,1*%
%TO.N,Net-(D1-A)*%
X123444000Y-66040000D03*
%TO.P,R21,2*%
%TO.N,/Status*%
X123444000Y-64390000D03*
%TD*%
D11*
%TO.P,D1,1,K*%
%TO.N,GND*%
X122936000Y-69517500D03*
%TO.P,D1,2,A*%
%TO.N,Net-(D1-A)*%
X122936000Y-67642500D03*
%TD*%
D12*
%TO.P,C1,1*%
%TO.N,VCC*%
X110871000Y-71120000D03*
%TO.P,C1,2*%
%TO.N,GND*%
X108971000Y-71120000D03*
%TD*%
D13*
%TO.P,C9,1*%
%TO.N,/LEDOut1*%
X150622000Y-63124000D03*
%TO.P,C9,2*%
%TO.N,GND*%
X150622000Y-65024000D03*
%TD*%
D14*
%TO.P,R17,1*%
%TO.N,/Sum2*%
X142748000Y-79693000D03*
%TO.P,R17,2*%
%TO.N,Net-(U2B--)*%
X142748000Y-81343000D03*
%TD*%
D15*
%TO.P,R20,1*%
%TO.N,/Reset*%
X121222000Y-73914000D03*
%TO.P,R20,2*%
%TO.N,Net-(J4-Pin_2)*%
X122872000Y-73914000D03*
%TD*%
D16*
%TO.P,C14,1*%
%TO.N,/LEDOut2*%
X153924000Y-87056000D03*
%TO.P,C14,2*%
%TO.N,GND*%
X153924000Y-85156000D03*
%TD*%
D10*
%TO.P,R6,1*%
%TO.N,Net-(U2A-+)*%
X137160000Y-69659000D03*
%TO.P,R6,2*%
%TO.N,/VDAC1*%
X137160000Y-68009000D03*
%TD*%
D17*
%TO.P,U3,1*%
%TO.N,/50\u002AV_sense1*%
X148402000Y-70479500D03*
%TO.P,U3,2,GND*%
%TO.N,GND*%
X149352000Y-70479500D03*
%TO.P,U3,3,+*%
%TO.N,/V_sense1*%
X150302000Y-70479500D03*
%TO.P,U3,4,-*%
%TO.N,GND*%
X150302000Y-68204500D03*
%TO.P,U3,5,V+*%
%TO.N,VCC*%
X148402000Y-68204500D03*
%TD*%
D14*
%TO.P,R15,1*%
%TO.N,Net-(U2B-+)*%
X137160000Y-79693000D03*
%TO.P,R15,2*%
%TO.N,/VDAC2*%
X137160000Y-81343000D03*
%TD*%
D10*
%TO.P,R16,1*%
%TO.N,/PG2*%
X131826000Y-96774000D03*
%TO.P,R16,2*%
%TO.N,/VCC2*%
X131826000Y-95124000D03*
%TD*%
D18*
%TO.P,U1,1,VI*%
%TO.N,VCC*%
X115618500Y-74864000D03*
%TO.P,U1,2,VO*%
%TO.N,+5V*%
X115618500Y-72964000D03*
%TO.P,U1,3,GND*%
%TO.N,GND*%
X113743500Y-73914000D03*
%TD*%
D19*
%TO.P,C4,1*%
%TO.N,VCC*%
X115964000Y-76835000D03*
%TO.P,C4,2*%
%TO.N,GND*%
X114414000Y-76835000D03*
%TD*%
D17*
%TO.P,U6,1*%
%TO.N,/50\u002AV_sense2*%
X148402000Y-81147500D03*
%TO.P,U6,2,GND*%
%TO.N,GND*%
X149352000Y-81147500D03*
%TO.P,U6,3,+*%
%TO.N,/V_sense2*%
X150302000Y-81147500D03*
%TO.P,U6,4,-*%
%TO.N,GND*%
X150302000Y-78872500D03*
%TO.P,U6,5,V+*%
%TO.N,VCC*%
X148402000Y-78872500D03*
%TD*%
D20*
%TO.P,C7,1*%
%TO.N,Net-(U4-BOOT)*%
X131826000Y-58878000D03*
%TO.P,C7,2*%
%TO.N,Net-(U4-SW)*%
X131826000Y-57328000D03*
%TD*%
D21*
%TO.P,R12,1*%
%TO.N,/V_sense2*%
X153670000Y-81726500D03*
%TO.P,R12,2*%
%TO.N,GND*%
X153670000Y-78801500D03*
%TD*%
D14*
%TO.P,R14,1*%
%TO.N,/FB2*%
X129032000Y-95124000D03*
%TO.P,R14,2*%
%TO.N,/Sum2*%
X129032000Y-96774000D03*
%TD*%
D22*
%TO.P,J1,1*%
%TO.N,VCC*%
X121539000Y-82931000D03*
D23*
%TO.P,J1,2*%
%TO.N,unconnected-(J1-Pad2)*%
X115539000Y-82931000D03*
D24*
%TO.P,J1,3*%
%TO.N,GND*%
X118539000Y-87631000D03*
%TD*%
D14*
%TO.P,R5,1*%
%TO.N,/FB1*%
X129032000Y-64390000D03*
%TO.P,R5,2*%
%TO.N,/Sum1*%
X129032000Y-66040000D03*
%TD*%
D25*
%TO.P,R11,1*%
%TO.N,+5V*%
X122872000Y-71120000D03*
%TO.P,R11,2*%
%TO.N,/Reset*%
X121222000Y-71120000D03*
%TD*%
D26*
%TO.P,L2,1,1*%
%TO.N,Net-(U4-SW)*%
X136296400Y-59436000D03*
%TO.P,L2,2,2*%
%TO.N,/LEDOut1*%
X145542000Y-59436000D03*
%TD*%
D13*
%TO.P,C8,1*%
%TO.N,/LEDOut1*%
X153924000Y-63124000D03*
%TO.P,C8,2*%
%TO.N,GND*%
X153924000Y-65024000D03*
%TD*%
D10*
%TO.P,R4,1*%
%TO.N,Net-(U2A-+)*%
X139954000Y-69659000D03*
%TO.P,R4,2*%
%TO.N,/50\u002AV_sense1*%
X139954000Y-68009000D03*
%TD*%
D27*
%TO.P,J4,1,Pin_1*%
%TO.N,GND*%
X125984000Y-82042000D03*
D28*
%TO.P,J4,2,Pin_2*%
%TO.N,Net-(J4-Pin_2)*%
X125984000Y-79502000D03*
%TO.P,J4,3,Pin_3*%
%TO.N,/SDA*%
X125984000Y-76962000D03*
%TO.P,J4,4,Pin_4*%
%TO.N,Net-(J4-Pin_4)*%
X125984000Y-74422000D03*
%TO.P,J4,5,Pin_5*%
%TO.N,/SCL*%
X125984000Y-71882000D03*
%TO.P,J4,6,Pin_6*%
%TO.N,+5V*%
X125984000Y-69342000D03*
%TD*%
D16*
%TO.P,C15,1*%
%TO.N,/LEDOut2*%
X150622000Y-87056000D03*
%TO.P,C15,2*%
%TO.N,GND*%
X150622000Y-85156000D03*
%TD*%
D14*
%TO.P,R1,1*%
%TO.N,+5V*%
X129540000Y-72073000D03*
%TO.P,R1,2*%
%TO.N,/SCL*%
X129540000Y-73723000D03*
%TD*%
D29*
%TO.P,C12,1*%
%TO.N,VCC*%
X145542000Y-76441000D03*
%TO.P,C12,2*%
%TO.N,GND*%
X145542000Y-77991000D03*
%TD*%
D10*
%TO.P,R18,1*%
%TO.N,GND*%
X126238000Y-96774000D03*
%TO.P,R18,2*%
%TO.N,/FB2*%
X126238000Y-95124000D03*
%TD*%
D30*
%TO.P,C10,1*%
%TO.N,/LEDOut1*%
X152654000Y-59596000D03*
%TO.P,C10,2*%
%TO.N,GND*%
X152654000Y-54196000D03*
%TD*%
D27*
%TO.P,J3,1,Pin_1*%
%TO.N,/V_sense2*%
X157480000Y-83058000D03*
D28*
%TO.P,J3,2,Pin_2*%
%TO.N,/LEDOut2*%
X157480000Y-85598000D03*
%TD*%
D31*
%TO.P,U2,1*%
%TO.N,/Sum1*%
X142367000Y-72201000D03*
%TO.P,U2,2,-*%
%TO.N,Net-(U2A--)*%
X141097000Y-72201000D03*
%TO.P,U2,3,+*%
%TO.N,Net-(U2A-+)*%
X139827000Y-72201000D03*
%TO.P,U2,4,V-*%
%TO.N,GND*%
X138557000Y-72201000D03*
%TO.P,U2,5,+*%
%TO.N,Net-(U2B-+)*%
X138557000Y-77151000D03*
%TO.P,U2,6,-*%
%TO.N,Net-(U2B--)*%
X139827000Y-77151000D03*
%TO.P,U2,7*%
%TO.N,/Sum2*%
X141097000Y-77151000D03*
%TO.P,U2,8,V+*%
%TO.N,VCC*%
X142367000Y-77151000D03*
%TD*%
D14*
%TO.P,R2,1*%
%TO.N,+5V*%
X129540000Y-75375000D03*
%TO.P,R2,2*%
%TO.N,/SDA*%
X129540000Y-77025000D03*
%TD*%
%TO.P,R19,1*%
%TO.N,GND*%
X145542000Y-79693000D03*
%TO.P,R19,2*%
%TO.N,Net-(U2B--)*%
X145542000Y-81343000D03*
%TD*%
D10*
%TO.P,R10,1*%
%TO.N,GND*%
X145542000Y-69659000D03*
%TO.P,R10,2*%
%TO.N,Net-(U2A--)*%
X145542000Y-68009000D03*
%TD*%
D29*
%TO.P,C11,1*%
%TO.N,GND*%
X131826000Y-60871000D03*
%TO.P,C11,2*%
%TO.N,/VCC1*%
X131826000Y-62421000D03*
%TD*%
D32*
%TO.P,C3,1*%
%TO.N,VCC*%
X116492000Y-93472000D03*
%TO.P,C3,2*%
%TO.N,GND*%
X111092000Y-93472000D03*
%TD*%
D33*
%TO.P,U5,1,VOUT*%
%TO.N,/VDAC1*%
X131693500Y-69784000D03*
%TO.P,U5,2,VSS*%
%TO.N,GND*%
X131693500Y-68834000D03*
%TO.P,U5,3,VDD*%
%TO.N,+5V*%
X131693500Y-67884000D03*
%TO.P,U5,4,SDA*%
%TO.N,/SDA*%
X129418500Y-67884000D03*
%TO.P,U5,5,SCL*%
%TO.N,/SCL*%
X129418500Y-68834000D03*
%TO.P,U5,6,A0*%
%TO.N,GND*%
X129418500Y-69784000D03*
%TD*%
D12*
%TO.P,C2,2*%
%TO.N,GND*%
X108971000Y-76835000D03*
%TO.P,C2,1*%
%TO.N,VCC*%
X110871000Y-76835000D03*
%TD*%
D10*
%TO.P,R9,1*%
%TO.N,GND*%
X126238000Y-66040000D03*
%TO.P,R9,2*%
%TO.N,/FB1*%
X126238000Y-64390000D03*
%TD*%
D27*
%TO.P,J5,1,Pin_1*%
%TO.N,GND*%
X111897000Y-54077000D03*
D28*
%TO.P,J5,2,Pin_2*%
%TO.N,/UART_RX*%
X114437000Y-54077000D03*
%TO.P,J5,3,Pin_3*%
%TO.N,/UART_TX*%
X116977000Y-54077000D03*
%TO.P,J5,4,Pin_4*%
%TO.N,+5V*%
X119517000Y-54077000D03*
%TD*%
D19*
%TO.P,C5,1*%
%TO.N,+5V*%
X115964000Y-71120000D03*
%TO.P,C5,2*%
%TO.N,GND*%
X114414000Y-71120000D03*
%TD*%
D26*
%TO.P,L4,1,1*%
%TO.N,Net-(U7-SW)*%
X136296400Y-90170000D03*
%TO.P,L4,2,2*%
%TO.N,/LEDOut2*%
X145542000Y-90170000D03*
%TD*%
D34*
%TO.P,U4,1,PGND*%
%TO.N,GND*%
X122776000Y-58484000D03*
%TO.P,U4,2,VIN*%
%TO.N,VCC*%
X122776000Y-59754000D03*
%TO.P,U4,3,EN*%
%TO.N,/Enable1*%
X122776000Y-61024000D03*
%TO.P,U4,4,PG*%
%TO.N,/PG1*%
X122776000Y-62294000D03*
%TO.P,U4,5,FB*%
%TO.N,/FB1*%
X128176000Y-62294000D03*
%TO.P,U4,6,VCC*%
%TO.N,/VCC1*%
X128176000Y-61024000D03*
%TO.P,U4,7,BOOT*%
%TO.N,Net-(U4-BOOT)*%
X128176000Y-59754000D03*
%TO.P,U4,8,SW*%
%TO.N,Net-(U4-SW)*%
X128176000Y-58484000D03*
D35*
%TO.P,U4,9,AGND*%
%TO.N,GND*%
X124826000Y-58439000D03*
X124826000Y-59739000D03*
X124826000Y-61039000D03*
X124826000Y-62339000D03*
D36*
X125476000Y-60389000D03*
D35*
X126126000Y-58439000D03*
X126126000Y-59739000D03*
X126126000Y-61039000D03*
X126126000Y-62339000D03*
%TD*%
D20*
%TO.P,C6,1*%
%TO.N,VCC*%
X145542000Y-72911000D03*
%TO.P,C6,2*%
%TO.N,GND*%
X145542000Y-71361000D03*
%TD*%
D19*
%TO.P,C18,1*%
%TO.N,/Reset*%
X122822000Y-76835000D03*
%TO.P,C18,2*%
%TO.N,GND*%
X121272000Y-76835000D03*
%TD*%
D33*
%TO.P,U8,1,VOUT*%
%TO.N,/VDAC2*%
X131693500Y-81722000D03*
%TO.P,U8,2,VSS*%
%TO.N,GND*%
X131693500Y-80772000D03*
%TO.P,U8,3,VDD*%
%TO.N,+5V*%
X131693500Y-79822000D03*
%TO.P,U8,4,SDA*%
%TO.N,/SDA*%
X129418500Y-79822000D03*
%TO.P,U8,5,SCL*%
%TO.N,/SCL*%
X129418500Y-80772000D03*
%TO.P,U8,6,A0*%
%TO.N,+5V*%
X129418500Y-81722000D03*
%TD*%
D27*
%TO.P,J2,1,Pin_1*%
%TO.N,/V_sense1*%
X157455000Y-67544000D03*
D28*
%TO.P,J2,2,Pin_2*%
%TO.N,/LEDOut1*%
X157455000Y-65004000D03*
%TD*%
D10*
%TO.P,R7,1*%
%TO.N,/Sum1*%
X142748000Y-69659000D03*
%TO.P,R7,2*%
%TO.N,Net-(U2A--)*%
X142748000Y-68009000D03*
%TD*%
D34*
%TO.P,U7,1,PGND*%
%TO.N,GND*%
X122776000Y-89205000D03*
%TO.P,U7,2,VIN*%
%TO.N,VCC*%
X122776000Y-90475000D03*
%TO.P,U7,3,EN*%
%TO.N,/Enable2*%
X122776000Y-91745000D03*
%TO.P,U7,4,PG*%
%TO.N,/PG2*%
X122776000Y-93015000D03*
%TO.P,U7,5,FB*%
%TO.N,/FB2*%
X128176000Y-93015000D03*
%TO.P,U7,6,VCC*%
%TO.N,/VCC2*%
X128176000Y-91745000D03*
%TO.P,U7,7,BOOT*%
%TO.N,Net-(U7-BOOT)*%
X128176000Y-90475000D03*
%TO.P,U7,8,SW*%
%TO.N,Net-(U7-SW)*%
X128176000Y-89205000D03*
D35*
%TO.P,U7,9,AGND*%
%TO.N,GND*%
X124826000Y-89160000D03*
X124826000Y-90460000D03*
X124826000Y-91760000D03*
X124826000Y-93060000D03*
D36*
X125476000Y-91110000D03*
D35*
X126126000Y-89160000D03*
X126126000Y-90460000D03*
X126126000Y-91760000D03*
X126126000Y-93060000D03*
%TD*%
D21*
%TO.P,R3,1*%
%TO.N,/V_sense1*%
X153670000Y-70550500D03*
%TO.P,R3,2*%
%TO.N,GND*%
X153670000Y-67625500D03*
%TD*%
D37*
%TO.P,L1,1,1*%
%TO.N,Net-(U4-SW)*%
X138436300Y-57432100D03*
D38*
X138436300Y-61432100D03*
D37*
%TO.P,L1,2,2*%
%TO.N,/LEDOut1*%
X143436300Y-57432100D03*
X143436300Y-61432100D03*
%TD*%
D39*
%TO.P,U9,1,PA2/~{RESET}*%
%TO.N,/Reset*%
X110666000Y-57531000D03*
%TO.P,U9,2,PD0*%
%TO.N,/UART_RX*%
X110666000Y-58801000D03*
%TO.P,U9,3,PD1*%
%TO.N,/UART_TX*%
X110666000Y-60071000D03*
%TO.P,U9,4,PA1/XTAL2*%
%TO.N,GND*%
X110666000Y-61341000D03*
%TO.P,U9,5,PA0/XTAL1*%
X110666000Y-62611000D03*
%TO.P,U9,6,PD2*%
%TO.N,unconnected-(U9-PD2-Pad6)*%
X110666000Y-63881000D03*
%TO.P,U9,7,PD3*%
%TO.N,unconnected-(U9-PD3-Pad7)*%
X110666000Y-65151000D03*
%TO.P,U9,8,PD4*%
%TO.N,unconnected-(U9-PD4-Pad8)*%
X110666000Y-66421000D03*
%TO.P,U9,9,PD5*%
%TO.N,unconnected-(U9-PD5-Pad9)*%
X110666000Y-67691000D03*
%TO.P,U9,10,GND*%
%TO.N,GND*%
X110666000Y-68961000D03*
%TO.P,U9,11,PD6*%
%TO.N,unconnected-(U9-PD6-Pad11)*%
X119966000Y-68961000D03*
%TO.P,U9,12,PB0*%
%TO.N,/PG2*%
X119966000Y-67691000D03*
%TO.P,U9,13,PB1*%
%TO.N,/Enable2*%
X119966000Y-66421000D03*
%TO.P,U9,14,PB2*%
%TO.N,/PG1*%
X119966000Y-65151000D03*
%TO.P,U9,15,PB3*%
%TO.N,/Enable1*%
X119966000Y-63881000D03*
%TO.P,U9,16,PB4*%
%TO.N,/Status*%
X119966000Y-62611000D03*
%TO.P,U9,17,PB5*%
%TO.N,/SDA*%
X119966000Y-61341000D03*
%TO.P,U9,18,PB6*%
%TO.N,Net-(J4-Pin_4)*%
X119966000Y-60071000D03*
%TO.P,U9,19,PB7*%
%TO.N,/SCL*%
X119966000Y-58801000D03*
%TO.P,U9,20,VCC*%
%TO.N,+5V*%
X119966000Y-57531000D03*
%TD*%
D10*
%TO.P,R8,1*%
%TO.N,/PG1*%
X131826000Y-66040000D03*
%TO.P,R8,2*%
%TO.N,/VCC1*%
X131826000Y-64390000D03*
%TD*%
D20*
%TO.P,C13,1*%
%TO.N,Net-(U7-BOOT)*%
X131826000Y-89612000D03*
%TO.P,C13,2*%
%TO.N,Net-(U7-SW)*%
X131826000Y-88062000D03*
%TD*%
D37*
%TO.P,L3,1,1*%
%TO.N,Net-(U7-SW)*%
X138430000Y-88138000D03*
D38*
X138430000Y-92138000D03*
D37*
%TO.P,L3,2,2*%
%TO.N,/LEDOut2*%
X143430000Y-88138000D03*
X143430000Y-92138000D03*
%TD*%
D20*
%TO.P,C17,1*%
%TO.N,GND*%
X131826000Y-93168000D03*
%TO.P,C17,2*%
%TO.N,/VCC2*%
X131826000Y-91618000D03*
%TD*%
D14*
%TO.P,R13,1*%
%TO.N,Net-(U2B-+)*%
X139954000Y-79693000D03*
%TO.P,R13,2*%
%TO.N,/50\u002AV_sense2*%
X139954000Y-81343000D03*
%TD*%
D40*
%TO.P,C16,1*%
%TO.N,/LEDOut2*%
X152654000Y-90264000D03*
%TO.P,C16,2*%
%TO.N,GND*%
X152654000Y-95664000D03*
%TD*%
D41*
%TO.N,VCC*%
X145542000Y-76454000D03*
X148402000Y-68204500D03*
X110871000Y-76835000D03*
X110871000Y-71120000D03*
X145542000Y-72898000D03*
X124460000Y-74168000D03*
X122776000Y-59754000D03*
%TO.N,GND*%
X126238000Y-66040000D03*
X109220000Y-81280000D03*
X153924000Y-85090000D03*
X157480000Y-53340000D03*
X149860000Y-53340000D03*
X109220000Y-96520000D03*
X131693500Y-80821503D03*
X157480000Y-96520000D03*
X142240000Y-96520000D03*
X131826000Y-60871000D03*
X157480000Y-88900000D03*
X131826000Y-93168000D03*
X145542000Y-79693000D03*
X149860000Y-88900000D03*
X116840000Y-96520000D03*
X109220000Y-60960000D03*
X109220000Y-88900000D03*
X157480000Y-81280000D03*
X131693500Y-68834000D03*
X149860000Y-96520000D03*
X150622000Y-65024000D03*
X157480000Y-60960000D03*
X132080000Y-53340000D03*
X150622000Y-85090000D03*
X153670000Y-67564000D03*
X153924000Y-65024000D03*
X145542000Y-77991000D03*
X157480000Y-73660000D03*
X109220000Y-68580000D03*
X124460000Y-53340000D03*
X149860000Y-73660000D03*
X153670000Y-78740000D03*
%TO.N,+5V*%
X129540000Y-75375000D03*
X131031000Y-67884000D03*
X129540000Y-72073000D03*
X131693500Y-79822000D03*
%TO.N,/Reset*%
X121208800Y-73914000D03*
X110666000Y-57531000D03*
X121208800Y-71120000D03*
X116717299Y-69304500D03*
%TO.N,/SCL*%
X119966000Y-58801000D03*
X129540000Y-73723000D03*
X129418500Y-80772000D03*
X117305500Y-70358000D03*
%TO.N,/SDA*%
X129418500Y-67884000D03*
X118364000Y-72390000D03*
X119966000Y-61341000D03*
%TO.N,Net-(U2A--)*%
X141097000Y-72201000D03*
X142748000Y-68072000D03*
%TO.N,/Sum2*%
X129032000Y-96774000D03*
X134620000Y-79756000D03*
%TO.N,/PG2*%
X122776000Y-93015000D03*
X119966000Y-67691000D03*
%TO.N,/Enable2*%
X122776000Y-91745000D03*
X119966000Y-66421000D03*
%TO.N,Net-(J4-Pin_4)*%
X117755500Y-71374000D03*
X119966000Y-60071000D03*
%TD*%
D42*
%TO.N,/SDA*%
X118794000Y-72820000D02*
X123112000Y-72820000D01*
X123112000Y-72820000D02*
X123698000Y-73406000D01*
X118364000Y-72390000D02*
X118794000Y-72820000D01*
X123698000Y-73406000D02*
X123698000Y-74676000D01*
X123698000Y-74676000D02*
X125984000Y-76962000D01*
%TO.N,/SCL*%
X117305500Y-70358000D02*
X118238396Y-70358000D01*
X118238396Y-70358000D02*
X119800396Y-71920000D01*
X119800396Y-71920000D02*
X125946000Y-71920000D01*
X125946000Y-71920000D02*
X125984000Y-71882000D01*
%TO.N,Net-(J4-Pin_4)*%
X123932000Y-72370000D02*
X125984000Y-74422000D01*
X117755500Y-71374000D02*
X118618000Y-71374000D01*
X118618000Y-71374000D02*
X119614000Y-72370000D01*
X119614000Y-72370000D02*
X123932000Y-72370000D01*
%TO.N,/Reset*%
X116717299Y-69304500D02*
X117821292Y-69304500D01*
X117821292Y-69304500D02*
X119636792Y-71120000D01*
X119636792Y-71120000D02*
X121222000Y-71120000D01*
%TO.N,/Status*%
X119966000Y-62611000D02*
X118941000Y-62611000D01*
X118941000Y-62611000D02*
X118616000Y-62936000D01*
X118616000Y-62936000D02*
X118616000Y-64227752D01*
X118616000Y-64227752D02*
X118894248Y-64506000D01*
X118894248Y-64506000D02*
X123328000Y-64506000D01*
X123328000Y-64506000D02*
X123444000Y-64390000D01*
%TO.N,/Enable1*%
X119966000Y-63881000D02*
X120991000Y-63881000D01*
X120991000Y-63881000D02*
X121361200Y-63510800D01*
X121361200Y-61663800D02*
X122001000Y-61024000D01*
X121361200Y-63510800D02*
X121361200Y-61663800D01*
X122001000Y-61024000D02*
X122776000Y-61024000D01*
%TO.N,Net-(D1-A)*%
X123444000Y-66040000D02*
X123444000Y-67134500D01*
X123444000Y-67134500D02*
X122936000Y-67642500D01*
%TO.N,/PG1*%
X119966000Y-65151000D02*
X125633000Y-65151000D01*
X125633000Y-65151000D02*
X125797000Y-65315000D01*
X122776000Y-62294000D02*
X125797000Y-65315000D01*
X125797000Y-65315000D02*
X131101000Y-65315000D01*
X131101000Y-65315000D02*
X131826000Y-66040000D01*
D43*
%TO.N,VCC*%
X112796000Y-78760000D02*
X110871000Y-76835000D01*
D44*
X117337950Y-93472000D02*
X121158000Y-89651950D01*
D43*
X117368000Y-78760000D02*
X112796000Y-78760000D01*
D42*
X127615366Y-74650000D02*
X126637564Y-75627802D01*
D43*
X116064000Y-77456000D02*
X116064000Y-76835000D01*
D42*
X124460000Y-74801604D02*
X124460000Y-74168000D01*
X145542000Y-72911000D02*
X145542000Y-72898000D01*
X145970500Y-76441000D02*
X148402000Y-78872500D01*
D44*
X121981050Y-90475000D02*
X121158000Y-89651950D01*
D42*
X130032462Y-74650000D02*
X127615366Y-74650000D01*
D43*
X121539000Y-82931000D02*
X116064000Y-77456000D01*
D42*
X142367000Y-77151000D02*
X142367000Y-76176000D01*
D44*
X116492000Y-93472000D02*
X117337950Y-93472000D01*
X121158000Y-89651950D02*
X121158000Y-83312000D01*
D43*
X121539000Y-82931000D02*
X117368000Y-78760000D01*
D44*
X122776000Y-90475000D02*
X121981050Y-90475000D01*
D42*
X143077000Y-76441000D02*
X145542000Y-76454000D01*
X130566462Y-75184000D02*
X130032462Y-74650000D01*
D44*
X121158000Y-83312000D02*
X121539000Y-82931000D01*
D42*
X145542000Y-76454000D02*
X145542000Y-76441000D01*
X115964000Y-75209500D02*
X115618500Y-74864000D01*
X142367000Y-77151000D02*
X143077000Y-76441000D01*
X126637564Y-75627802D02*
X125286198Y-75627802D01*
X125286198Y-75627802D02*
X124460000Y-74801604D01*
X145542000Y-76441000D02*
X145970500Y-76441000D01*
X115964000Y-76835000D02*
X115964000Y-75209500D01*
X142367000Y-76176000D02*
X141375000Y-75184000D01*
X141375000Y-75184000D02*
X130566462Y-75184000D01*
%TO.N,+5V*%
X119257188Y-70104000D02*
X121856000Y-70104000D01*
X119517000Y-54077000D02*
X119517000Y-57082000D01*
X130556000Y-81247000D02*
X130556000Y-80297000D01*
X115964000Y-71120000D02*
X115964000Y-68948000D01*
X128167000Y-67159000D02*
X130306000Y-67159000D01*
X121856000Y-70104000D02*
X122872000Y-71120000D01*
X115964000Y-68948000D02*
X116332000Y-68580000D01*
X122872000Y-71120000D02*
X124206000Y-71120000D01*
X119517000Y-57082000D02*
X119966000Y-57531000D01*
X131031000Y-79822000D02*
X131693500Y-79822000D01*
X130081000Y-81722000D02*
X130556000Y-81247000D01*
X131693500Y-67884000D02*
X131031000Y-67884000D01*
X115618500Y-72964000D02*
X115618500Y-71465500D01*
X124206000Y-71120000D02*
X125984000Y-69342000D01*
X130306000Y-67159000D02*
X131031000Y-67884000D01*
X129418500Y-81722000D02*
X130081000Y-81722000D01*
X116332000Y-68580000D02*
X117733188Y-68580000D01*
X117733188Y-68580000D02*
X119257188Y-70104000D01*
X125984000Y-69342000D02*
X128167000Y-67159000D01*
X115618500Y-71465500D02*
X115964000Y-71120000D01*
X130556000Y-80297000D02*
X131031000Y-79822000D01*
%TO.N,Net-(U4-BOOT)*%
X128176000Y-59754000D02*
X130950000Y-59754000D01*
X130950000Y-59754000D02*
X131826000Y-58878000D01*
D43*
%TO.N,Net-(U4-SW)*%
X129691000Y-56739000D02*
X128176000Y-58254000D01*
X133599400Y-56739000D02*
X129691000Y-56739000D01*
X136296400Y-59436000D02*
X133599400Y-56739000D01*
D42*
%TO.N,/VCC1*%
X131826000Y-62421000D02*
X131826000Y-64390000D01*
X130429000Y-61024000D02*
X131826000Y-62421000D01*
X128176000Y-61024000D02*
X130429000Y-61024000D01*
%TO.N,Net-(U7-BOOT)*%
X128176000Y-90475000D02*
X130963000Y-90475000D01*
X130963000Y-90475000D02*
X131826000Y-89612000D01*
D43*
%TO.N,Net-(U7-SW)*%
X133586400Y-87460000D02*
X129691000Y-87460000D01*
X136296400Y-90170000D02*
X133586400Y-87460000D01*
X129691000Y-87460000D02*
X128176000Y-88975000D01*
D42*
%TO.N,/VCC2*%
X128176000Y-91745000D02*
X131699000Y-91745000D01*
X131699000Y-91745000D02*
X131826000Y-91618000D01*
X128176000Y-91745000D02*
X128447000Y-91745000D01*
X128447000Y-91745000D02*
X131826000Y-95124000D01*
%TO.N,/Reset*%
X122822000Y-76835000D02*
X121222000Y-75235000D01*
X121222000Y-75235000D02*
X121222000Y-73914000D01*
%TO.N,/SCL*%
X119966000Y-58801000D02*
X119539248Y-58801000D01*
X129540000Y-73723000D02*
X129540000Y-73723000D01*
X129032000Y-68834000D02*
X125984000Y-71882000D01*
X127699000Y-71882000D02*
X125984000Y-71882000D01*
X129540000Y-73723000D02*
X127699000Y-71882000D01*
X129418500Y-68834000D02*
X129032000Y-68834000D01*
%TO.N,/SDA*%
X129477000Y-76962000D02*
X129540000Y-77025000D01*
X125984000Y-76962000D02*
X129477000Y-76962000D01*
X125984000Y-76962000D02*
X128844000Y-79822000D01*
X128844000Y-79822000D02*
X129418500Y-79822000D01*
%TO.N,/UART_RX*%
X114437000Y-56055000D02*
X114437000Y-54077000D01*
X110666000Y-58801000D02*
X111691000Y-58801000D01*
X111691000Y-58801000D02*
X114437000Y-56055000D01*
%TO.N,/UART_TX*%
X111691000Y-60071000D02*
X116977000Y-54785000D01*
X110666000Y-60071000D02*
X111691000Y-60071000D01*
X116977000Y-54785000D02*
X116977000Y-54077000D01*
%TO.N,Net-(U2A-+)*%
X139827000Y-69786000D02*
X139954000Y-69659000D01*
X137160000Y-69659000D02*
X139954000Y-69659000D01*
X139827000Y-72201000D02*
X139827000Y-69786000D01*
%TO.N,/50\u002AV_sense1*%
X141530538Y-68009000D02*
X142355538Y-68834000D01*
X139954000Y-68009000D02*
X141530538Y-68009000D01*
X146756500Y-68834000D02*
X148402000Y-70479500D01*
X142355538Y-68834000D02*
X146756500Y-68834000D01*
%TO.N,/FB1*%
X128176000Y-63534000D02*
X129032000Y-64390000D01*
X126238000Y-64390000D02*
X127320000Y-64390000D01*
X128176000Y-62294000D02*
X128176000Y-63534000D01*
X127320000Y-64390000D02*
X128176000Y-63534000D01*
%TO.N,/Sum1*%
X142685000Y-69596000D02*
X142748000Y-69659000D01*
X129286000Y-66294000D02*
X130862538Y-66294000D01*
X129032000Y-66040000D02*
X129286000Y-66294000D01*
X137986538Y-67259000D02*
X139661538Y-68934000D01*
X141108462Y-69596000D02*
X142367000Y-70854538D01*
X139661538Y-68934000D02*
X140446462Y-68934000D01*
X140446462Y-68934000D02*
X141108462Y-69596000D01*
X130862538Y-66294000D02*
X131827538Y-67259000D01*
X142367000Y-70854538D02*
X142367000Y-72201000D01*
X131827538Y-67259000D02*
X137986538Y-67259000D01*
X141108462Y-69596000D02*
X142685000Y-69596000D01*
%TO.N,/VDAC1*%
X131693500Y-69784000D02*
X135385000Y-69784000D01*
X135385000Y-69784000D02*
X137160000Y-68009000D01*
%TO.N,Net-(U2A--)*%
X142811000Y-68009000D02*
X145542000Y-68009000D01*
X142748000Y-68072000D02*
X142811000Y-68009000D01*
X142748000Y-68009000D02*
X142748000Y-68072000D01*
%TO.N,Net-(U2B-+)*%
X137160000Y-79693000D02*
X138557000Y-78296000D01*
X138557000Y-77151000D02*
X138557000Y-78296000D01*
X138557000Y-78296000D02*
X139954000Y-79693000D01*
%TO.N,/50\u002AV_sense2*%
X140679000Y-82068000D02*
X147481500Y-82068000D01*
X139954000Y-81343000D02*
X140679000Y-82068000D01*
X147481500Y-82068000D02*
X148402000Y-81147500D01*
%TO.N,/FB2*%
X128176000Y-94268000D02*
X129032000Y-95124000D01*
X126238000Y-95124000D02*
X129032000Y-95124000D01*
X128176000Y-93015000D02*
X128176000Y-94268000D01*
%TO.N,/Sum2*%
X137509000Y-75851000D02*
X134620000Y-78740000D01*
X141097000Y-77151000D02*
X141097000Y-76176000D01*
X140772000Y-75851000D02*
X137509000Y-75851000D01*
X141097000Y-76176000D02*
X140772000Y-75851000D01*
X141097000Y-78042000D02*
X142748000Y-79693000D01*
X141097000Y-77151000D02*
X141097000Y-78042000D01*
X134620000Y-78740000D02*
X134620000Y-79756000D01*
%TO.N,/VDAC2*%
X136781000Y-81722000D02*
X137160000Y-81343000D01*
X131693500Y-81722000D02*
X136781000Y-81722000D01*
%TO.N,/PG2*%
X122776000Y-93015000D02*
X125810000Y-96049000D01*
X125810000Y-96049000D02*
X131101000Y-96049000D01*
X131101000Y-96049000D02*
X131826000Y-96774000D01*
%TO.N,Net-(U2B--)*%
X139827000Y-78348538D02*
X142748000Y-81269538D01*
X142748000Y-81269538D02*
X142748000Y-81343000D01*
X139827000Y-77151000D02*
X139827000Y-78348538D01*
X142748000Y-81343000D02*
X145542000Y-81343000D01*
D43*
%TO.N,/LEDOut1*%
X154997000Y-62546000D02*
X157455000Y-65004000D01*
X152654000Y-59596000D02*
X152654000Y-62546000D01*
X145542000Y-59436000D02*
X148652000Y-62546000D01*
X148652000Y-62546000D02*
X152654000Y-62546000D01*
X152654000Y-62546000D02*
X154997000Y-62546000D01*
%TO.N,/LEDOut2*%
X152654000Y-86856000D02*
X156222000Y-86856000D01*
X145542000Y-90170000D02*
X148856000Y-86856000D01*
X148856000Y-86856000D02*
X152654000Y-86856000D01*
X152654000Y-90264000D02*
X152654000Y-86856000D01*
X156222000Y-86856000D02*
X157480000Y-85598000D01*
%TO.N,/V_sense1*%
X150923000Y-70550500D02*
X150852000Y-70479500D01*
X154448500Y-70550500D02*
X153670000Y-70550500D01*
X153670000Y-70550500D02*
X150923000Y-70550500D01*
X157455000Y-67544000D02*
X154448500Y-70550500D01*
%TO.N,/V_sense2*%
X155001500Y-83058000D02*
X153670000Y-81726500D01*
D42*
X150302000Y-81147500D02*
X150881000Y-81726500D01*
D43*
X157480000Y-83058000D02*
X155001500Y-83058000D01*
D42*
X150881000Y-81726500D02*
X153670000Y-81726500D01*
%TO.N,Net-(J4-Pin_2)*%
X125984000Y-79502000D02*
X125984000Y-78656656D01*
X125984000Y-78656656D02*
X122872000Y-75544656D01*
X122872000Y-75544656D02*
X122872000Y-73914000D01*
%TD*%
%TA.AperFunction,Conductor*%
%TO.N,GND*%
G36*
X133611434Y-51836185D02*
G01*
X133657189Y-51888989D01*
X133667133Y-51958147D01*
X133638108Y-52021703D01*
X133618706Y-52039766D01*
X133563955Y-52080752D01*
X133563952Y-52080755D01*
X133477706Y-52195964D01*
X133477702Y-52195971D01*
X133427408Y-52330817D01*
X133421001Y-52390416D01*
X133421001Y-52390423D01*
X133421000Y-52390435D01*
X133421000Y-55114500D01*
X133401315Y-55181539D01*
X133348511Y-55227294D01*
X133297000Y-55238500D01*
X129788019Y-55238500D01*
X129780347Y-55238024D01*
X129753221Y-55234643D01*
X129753219Y-55234643D01*
X129659965Y-55238500D01*
X129628933Y-55238500D01*
X129598009Y-55241062D01*
X129504765Y-55244918D01*
X129504751Y-55244920D01*
X129478017Y-55250526D01*
X129470409Y-55251635D01*
X129443185Y-55253890D01*
X129443175Y-55253892D01*
X129370815Y-55272216D01*
X129352725Y-55276797D01*
X129338755Y-55279726D01*
X129261390Y-55295948D01*
X129261375Y-55295953D01*
X129235920Y-55305886D01*
X129228599Y-55308231D01*
X129202119Y-55314937D01*
X129202113Y-55314939D01*
X129116667Y-55352419D01*
X129029723Y-55386345D01*
X129006247Y-55400333D01*
X128999413Y-55403851D01*
X128974388Y-55414829D01*
X128974385Y-55414830D01*
X128896275Y-55465862D01*
X128816101Y-55513637D01*
X128795250Y-55531297D01*
X128789087Y-55535892D01*
X128766215Y-55550835D01*
X128766212Y-55550838D01*
X128697554Y-55614042D01*
X128673871Y-55634101D01*
X128651934Y-55656038D01*
X128583261Y-55719257D01*
X128583256Y-55719262D01*
X128566472Y-55740826D01*
X128561383Y-55746589D01*
X127071100Y-57236871D01*
X126950633Y-57379107D01*
X126823342Y-57592729D01*
X126732953Y-57824376D01*
X126732951Y-57824383D01*
X126681918Y-58067765D01*
X126673314Y-58275819D01*
X126671643Y-58316221D01*
X126690315Y-58466018D01*
X126702401Y-58562981D01*
X126773356Y-58801315D01*
X126882562Y-59024700D01*
X126882568Y-59024711D01*
X126882571Y-59024716D01*
X126933789Y-59096452D01*
X126939101Y-59103891D01*
X126962036Y-59169889D01*
X126954366Y-59219277D01*
X126906909Y-59346517D01*
X126900500Y-59406127D01*
X126900500Y-59406134D01*
X126900500Y-59406135D01*
X126900500Y-60101870D01*
X126900501Y-60101876D01*
X126906908Y-60161483D01*
X126957202Y-60296328D01*
X126957205Y-60296334D01*
X126970947Y-60314691D01*
X126995363Y-60380156D01*
X126980510Y-60448429D01*
X126970947Y-60463309D01*
X126957205Y-60481665D01*
X126957202Y-60481671D01*
X126922478Y-60574773D01*
X126906909Y-60616517D01*
X126900500Y-60676127D01*
X126900500Y-60676134D01*
X126900500Y-60676135D01*
X126900500Y-61371870D01*
X126900501Y-61371876D01*
X126906908Y-61431483D01*
X126957202Y-61566328D01*
X126957205Y-61566334D01*
X126970947Y-61584691D01*
X126995363Y-61650156D01*
X126980510Y-61718429D01*
X126970947Y-61733309D01*
X126957205Y-61751665D01*
X126957202Y-61751671D01*
X126932899Y-61816833D01*
X126906909Y-61886517D01*
X126900500Y-61946127D01*
X126900500Y-61946134D01*
X126900500Y-61946135D01*
X126900500Y-62641870D01*
X126900501Y-62641876D01*
X126906908Y-62701483D01*
X126957202Y-62836328D01*
X126957206Y-62836335D01*
X127043452Y-62951544D01*
X127043455Y-62951547D01*
X127158664Y-63037793D01*
X127158671Y-63037797D01*
X127203618Y-63054561D01*
X127293517Y-63088091D01*
X127353127Y-63094500D01*
X127426500Y-63094499D01*
X127493538Y-63114183D01*
X127539294Y-63166986D01*
X127550500Y-63218499D01*
X127550500Y-63223546D01*
X127530815Y-63290585D01*
X127514181Y-63311227D01*
X127157213Y-63668194D01*
X127095890Y-63701679D01*
X127026198Y-63696695D01*
X126981850Y-63668193D01*
X126948188Y-63634531D01*
X126948188Y-63634530D01*
X126874227Y-63589819D01*
X126802606Y-63546522D01*
X126640196Y-63495914D01*
X126640194Y-63495913D01*
X126640192Y-63495913D01*
X126590778Y-63491423D01*
X126569616Y-63489500D01*
X125906384Y-63489500D01*
X125887145Y-63491248D01*
X125835807Y-63495913D01*
X125673393Y-63546522D01*
X125527811Y-63634530D01*
X125407530Y-63754811D01*
X125381608Y-63797691D01*
X125330079Y-63844878D01*
X125261219Y-63856715D01*
X125196891Y-63829445D01*
X125187811Y-63821220D01*
X124087818Y-62721227D01*
X124054333Y-62659904D01*
X124051499Y-62633555D01*
X124051499Y-61946128D01*
X124045773Y-61892862D01*
X124045091Y-61886516D01*
X123994797Y-61751670D01*
X123994796Y-61751669D01*
X123991406Y-61747141D01*
X123981053Y-61733311D01*
X123956635Y-61667850D01*
X123971485Y-61599576D01*
X123981050Y-61584691D01*
X123994796Y-61566331D01*
X123998391Y-61556694D01*
X124009743Y-61526256D01*
X124045091Y-61431483D01*
X124051500Y-61371873D01*
X124051499Y-60676128D01*
X124045091Y-60616517D01*
X124029522Y-60574773D01*
X123994797Y-60481670D01*
X123994796Y-60481669D01*
X123994540Y-60481327D01*
X123981053Y-60463311D01*
X123956635Y-60397850D01*
X123971485Y-60329576D01*
X123981050Y-60314691D01*
X123994796Y-60296331D01*
X123997244Y-60289769D01*
X124016547Y-60238013D01*
X124045091Y-60161483D01*
X124051500Y-60101873D01*
X124051499Y-59406128D01*
X124045773Y-59352862D01*
X124045091Y-59346516D01*
X123994797Y-59211671D01*
X123994793Y-59211664D01*
X123908547Y-59096455D01*
X123908544Y-59096452D01*
X123793335Y-59010206D01*
X123793328Y-59010202D01*
X123658482Y-58959908D01*
X123658483Y-58959908D01*
X123598883Y-58953501D01*
X123598881Y-58953500D01*
X123598873Y-58953500D01*
X123598865Y-58953500D01*
X123218367Y-58953500D01*
X123167931Y-58942779D01*
X123055807Y-58892857D01*
X123055802Y-58892855D01*
X122910001Y-58861865D01*
X122870646Y-58853500D01*
X122681354Y-58853500D01*
X122641999Y-58861865D01*
X122496198Y-58892855D01*
X122496197Y-58892855D01*
X122384065Y-58942780D01*
X122333630Y-58953500D01*
X121953130Y-58953500D01*
X121953123Y-58953501D01*
X121893516Y-58959908D01*
X121758671Y-59010202D01*
X121758668Y-59010204D01*
X121689811Y-59061751D01*
X121624347Y-59086168D01*
X121556074Y-59071316D01*
X121506668Y-59021911D01*
X121491500Y-58962484D01*
X121491500Y-58585304D01*
X121488598Y-58548432D01*
X121488597Y-58548426D01*
X121442745Y-58390606D01*
X121442744Y-58390603D01*
X121442744Y-58390602D01*
X121359081Y-58249135D01*
X121359078Y-58249132D01*
X121354298Y-58242969D01*
X121356750Y-58241066D01*
X121330155Y-58192421D01*
X121335104Y-58122726D01*
X121355940Y-58090304D01*
X121354298Y-58089031D01*
X121359075Y-58082870D01*
X121359081Y-58082865D01*
X121442744Y-57941398D01*
X121488598Y-57783569D01*
X121491500Y-57746694D01*
X121491500Y-57315306D01*
X121488598Y-57278431D01*
X121486855Y-57272432D01*
X121442745Y-57120606D01*
X121442744Y-57120603D01*
X121442744Y-57120602D01*
X121359081Y-56979135D01*
X121359079Y-56979133D01*
X121359076Y-56979129D01*
X121242870Y-56862923D01*
X121242862Y-56862917D01*
X121101396Y-56779255D01*
X121101393Y-56779254D01*
X120943573Y-56733402D01*
X120943567Y-56733401D01*
X120906696Y-56730500D01*
X120906694Y-56730500D01*
X120266500Y-56730500D01*
X120199461Y-56710815D01*
X120153706Y-56658011D01*
X120142500Y-56606500D01*
X120142500Y-55352226D01*
X120162185Y-55285187D01*
X120195374Y-55250654D01*
X120388401Y-55115495D01*
X120555495Y-54948401D01*
X120691035Y-54754830D01*
X120790903Y-54540663D01*
X120852063Y-54312408D01*
X120872659Y-54077000D01*
X120852063Y-53841592D01*
X120790903Y-53613337D01*
X120691035Y-53399171D01*
X120685425Y-53391158D01*
X120555494Y-53205597D01*
X120388402Y-53038506D01*
X120388395Y-53038501D01*
X120194834Y-52902967D01*
X120194830Y-52902965D01*
X120194828Y-52902964D01*
X119980663Y-52803097D01*
X119980659Y-52803096D01*
X119980655Y-52803094D01*
X119752413Y-52741938D01*
X119752403Y-52741936D01*
X119517001Y-52721341D01*
X119516999Y-52721341D01*
X119281596Y-52741936D01*
X119281586Y-52741938D01*
X119053344Y-52803094D01*
X119053335Y-52803098D01*
X118839171Y-52902964D01*
X118839169Y-52902965D01*
X118645597Y-53038505D01*
X118478505Y-53205597D01*
X118348575Y-53391158D01*
X118293998Y-53434783D01*
X118224500Y-53441977D01*
X118162145Y-53410454D01*
X118145425Y-53391158D01*
X118015494Y-53205597D01*
X117848402Y-53038506D01*
X117848395Y-53038501D01*
X117654834Y-52902967D01*
X117654830Y-52902965D01*
X117654828Y-52902964D01*
X117440663Y-52803097D01*
X117440659Y-52803096D01*
X117440655Y-52803094D01*
X117212413Y-52741938D01*
X117212403Y-52741936D01*
X116977001Y-52721341D01*
X116976999Y-52721341D01*
X116741596Y-52741936D01*
X116741586Y-52741938D01*
X116513344Y-52803094D01*
X116513335Y-52803098D01*
X116299171Y-52902964D01*
X116299169Y-52902965D01*
X116105597Y-53038505D01*
X115938505Y-53205597D01*
X115808575Y-53391158D01*
X115753998Y-53434783D01*
X115684500Y-53441977D01*
X115622145Y-53410454D01*
X115605425Y-53391158D01*
X115475494Y-53205597D01*
X115308402Y-53038506D01*
X115308395Y-53038501D01*
X115114834Y-52902967D01*
X115114830Y-52902965D01*
X115114828Y-52902964D01*
X114900663Y-52803097D01*
X114900659Y-52803096D01*
X114900655Y-52803094D01*
X114672413Y-52741938D01*
X114672403Y-52741936D01*
X114437001Y-52721341D01*
X114436999Y-52721341D01*
X114201596Y-52741936D01*
X114201586Y-52741938D01*
X113973344Y-52803094D01*
X113973335Y-52803098D01*
X113759171Y-52902964D01*
X113759169Y-52902965D01*
X113565597Y-53038505D01*
X113398505Y-53205597D01*
X113262965Y-53399169D01*
X113262964Y-53399171D01*
X113163098Y-53613335D01*
X113163094Y-53613344D01*
X113101938Y-53841586D01*
X113101936Y-53841596D01*
X113081341Y-54076999D01*
X113081341Y-54077000D01*
X113101936Y-54312403D01*
X113101938Y-54312413D01*
X113163094Y-54540655D01*
X113163096Y-54540659D01*
X113163097Y-54540663D01*
X113167000Y-54549032D01*
X113262965Y-54754830D01*
X113262967Y-54754834D01*
X113334914Y-54857584D01*
X113398505Y-54948401D01*
X113565599Y-55115495D01*
X113758624Y-55250653D01*
X113802248Y-55305228D01*
X113811500Y-55352226D01*
X113811500Y-55744547D01*
X113791815Y-55811586D01*
X113775181Y-55832228D01*
X112368461Y-57238947D01*
X112307138Y-57272432D01*
X112237446Y-57267448D01*
X112181513Y-57225576D01*
X112161704Y-57185861D01*
X112142745Y-57120606D01*
X112142744Y-57120603D01*
X112142744Y-57120602D01*
X112059081Y-56979135D01*
X112059079Y-56979133D01*
X112059076Y-56979129D01*
X111942870Y-56862923D01*
X111942862Y-56862917D01*
X111801396Y-56779255D01*
X111801393Y-56779254D01*
X111643573Y-56733402D01*
X111643567Y-56733401D01*
X111606696Y-56730500D01*
X111606694Y-56730500D01*
X111108367Y-56730500D01*
X111057931Y-56719779D01*
X110945807Y-56669857D01*
X110945802Y-56669855D01*
X110800001Y-56638865D01*
X110760646Y-56630500D01*
X110571354Y-56630500D01*
X110538897Y-56637398D01*
X110386197Y-56669855D01*
X110386192Y-56669857D01*
X110274069Y-56719779D01*
X110223633Y-56730500D01*
X109725304Y-56730500D01*
X109688432Y-56733401D01*
X109688426Y-56733402D01*
X109530606Y-56779254D01*
X109530603Y-56779255D01*
X109389137Y-56862917D01*
X109389129Y-56862923D01*
X109272923Y-56979129D01*
X109272917Y-56979137D01*
X109189255Y-57120603D01*
X109189254Y-57120606D01*
X109143402Y-57278426D01*
X109143401Y-57278432D01*
X109140500Y-57315304D01*
X109140500Y-57746696D01*
X109143401Y-57783567D01*
X109143402Y-57783573D01*
X109189254Y-57941393D01*
X109189255Y-57941396D01*
X109189256Y-57941398D01*
X109190324Y-57943204D01*
X109272917Y-58082862D01*
X109277702Y-58089031D01*
X109275256Y-58090927D01*
X109301857Y-58139642D01*
X109296873Y-58209334D01*
X109276069Y-58241703D01*
X109277702Y-58242969D01*
X109272917Y-58249137D01*
X109189255Y-58390603D01*
X109189254Y-58390606D01*
X109143402Y-58548426D01*
X109143401Y-58548432D01*
X109140500Y-58585304D01*
X109140500Y-59016696D01*
X109143401Y-59053567D01*
X109143402Y-59053573D01*
X109189254Y-59211393D01*
X109189255Y-59211396D01*
X109189256Y-59211398D01*
X109193916Y-59219277D01*
X109272917Y-59352862D01*
X109277702Y-59359031D01*
X109275256Y-59360927D01*
X109301857Y-59409642D01*
X109296873Y-59479334D01*
X109276069Y-59511703D01*
X109277702Y-59512969D01*
X109272917Y-59519137D01*
X109189255Y-59660603D01*
X109189254Y-59660606D01*
X109143402Y-59818426D01*
X109143401Y-59818432D01*
X109140500Y-59855304D01*
X109140500Y-60286696D01*
X109143401Y-60323567D01*
X109143402Y-60323573D01*
X109189254Y-60481393D01*
X109189255Y-60481396D01*
X109189256Y-60481398D01*
X109197116Y-60494689D01*
X109272917Y-60622862D01*
X109272923Y-60622870D01*
X109389129Y-60739076D01*
X109389133Y-60739079D01*
X109389135Y-60739081D01*
X109530602Y-60822744D01*
X109572224Y-60834836D01*
X109688426Y-60868597D01*
X109688429Y-60868597D01*
X109688431Y-60868598D01*
X109700722Y-60869565D01*
X109725304Y-60871500D01*
X109725306Y-60871500D01*
X111606696Y-60871500D01*
X111625131Y-60870049D01*
X111643569Y-60868598D01*
X111643571Y-60868597D01*
X111643573Y-60868597D01*
X111685191Y-60856505D01*
X111801398Y-60822744D01*
X111942865Y-60739081D01*
X112059081Y-60622865D01*
X112093844Y-60564082D01*
X112118207Y-60537324D01*
X112116901Y-60535933D01*
X112122577Y-60530600D01*
X112122587Y-60530594D01*
X112152299Y-60494676D01*
X112156212Y-60490376D01*
X117219131Y-55427458D01*
X117274715Y-55395367D01*
X117440663Y-55350903D01*
X117654830Y-55251035D01*
X117848401Y-55115495D01*
X118015495Y-54948401D01*
X118145425Y-54762842D01*
X118200002Y-54719217D01*
X118269500Y-54712023D01*
X118331855Y-54743546D01*
X118348575Y-54762842D01*
X118478500Y-54948395D01*
X118478505Y-54948401D01*
X118645599Y-55115495D01*
X118838624Y-55250653D01*
X118882248Y-55305228D01*
X118891500Y-55352226D01*
X118891500Y-56672512D01*
X118871815Y-56739551D01*
X118830621Y-56779244D01*
X118689138Y-56862916D01*
X118689129Y-56862923D01*
X118572923Y-56979129D01*
X118572917Y-56979137D01*
X118489255Y-57120603D01*
X118489254Y-57120606D01*
X118443402Y-57278426D01*
X118443401Y-57278432D01*
X118440500Y-57315304D01*
X118440500Y-57746696D01*
X118443401Y-57783567D01*
X118443402Y-57783573D01*
X118489254Y-57941393D01*
X118489255Y-57941396D01*
X118489256Y-57941398D01*
X118490324Y-57943204D01*
X118572917Y-58082862D01*
X118577702Y-58089031D01*
X118575256Y-58090927D01*
X118601857Y-58139642D01*
X118596873Y-58209334D01*
X118576069Y-58241703D01*
X118577702Y-58242969D01*
X118572917Y-58249137D01*
X118489255Y-58390603D01*
X118489254Y-58390606D01*
X118443402Y-58548426D01*
X118443401Y-58548432D01*
X118440500Y-58585304D01*
X118440500Y-59016696D01*
X118443401Y-59053567D01*
X118443402Y-59053573D01*
X118489254Y-59211393D01*
X118489255Y-59211396D01*
X118489256Y-59211398D01*
X118493916Y-59219277D01*
X118572917Y-59352862D01*
X118577702Y-59359031D01*
X118575256Y-59360927D01*
X118601857Y-59409642D01*
X118596873Y-59479334D01*
X118576069Y-59511703D01*
X118577702Y-59512969D01*
X118572917Y-59519137D01*
X118489255Y-59660603D01*
X118489254Y-59660606D01*
X118443402Y-59818426D01*
X118443401Y-59818432D01*
X118440500Y-59855304D01*
X118440500Y-60286696D01*
X118443401Y-60323567D01*
X118443402Y-60323573D01*
X118489254Y-60481393D01*
X118489255Y-60481396D01*
X118489256Y-60481398D01*
X118497116Y-60494689D01*
X118572917Y-60622862D01*
X118577702Y-60629031D01*
X118575256Y-60630927D01*
X118601857Y-60679642D01*
X118596873Y-60749334D01*
X118576069Y-60781703D01*
X118577702Y-60782969D01*
X118572917Y-60789137D01*
X118489255Y-60930603D01*
X118489254Y-60930606D01*
X118443402Y-61088426D01*
X118443401Y-61088432D01*
X118440500Y-61125304D01*
X118440500Y-61556696D01*
X118443401Y-61593567D01*
X118443402Y-61593573D01*
X118489254Y-61751393D01*
X118489255Y-61751396D01*
X118489256Y-61751398D01*
X118526681Y-61814681D01*
X118572917Y-61892862D01*
X118577702Y-61899031D01*
X118575256Y-61900927D01*
X118601857Y-61949642D01*
X118596873Y-62019334D01*
X118576070Y-62051702D01*
X118577702Y-62052968D01*
X118572920Y-62059132D01*
X118538152Y-62117921D01*
X118513804Y-62144683D01*
X118515101Y-62146064D01*
X118509414Y-62151404D01*
X118479709Y-62187310D01*
X118475777Y-62191631D01*
X118232208Y-62435199D01*
X118219951Y-62445020D01*
X118220134Y-62445241D01*
X118214123Y-62450213D01*
X118166772Y-62500636D01*
X118145889Y-62521519D01*
X118145877Y-62521532D01*
X118141621Y-62527017D01*
X118137837Y-62531447D01*
X118105937Y-62565418D01*
X118105936Y-62565420D01*
X118096284Y-62582976D01*
X118085610Y-62599226D01*
X118073329Y-62615061D01*
X118073324Y-62615068D01*
X118054815Y-62657838D01*
X118052245Y-62663084D01*
X118029803Y-62703906D01*
X118024822Y-62723307D01*
X118018521Y-62741710D01*
X118010562Y-62760102D01*
X118010561Y-62760105D01*
X118003271Y-62806127D01*
X118002087Y-62811846D01*
X117990501Y-62856972D01*
X117990500Y-62856982D01*
X117990500Y-62877016D01*
X117988973Y-62896415D01*
X117985840Y-62916194D01*
X117985840Y-62916195D01*
X117990225Y-62962583D01*
X117990500Y-62968421D01*
X117990500Y-64145007D01*
X117988775Y-64160624D01*
X117989061Y-64160651D01*
X117988327Y-64168417D01*
X117990500Y-64237559D01*
X117990500Y-64267095D01*
X117990501Y-64267112D01*
X117991368Y-64273983D01*
X117991826Y-64279802D01*
X117993290Y-64326376D01*
X117993291Y-64326379D01*
X117998880Y-64345619D01*
X118002824Y-64364663D01*
X118005336Y-64384543D01*
X118022490Y-64427871D01*
X118024382Y-64433399D01*
X118037381Y-64478140D01*
X118047580Y-64495386D01*
X118056138Y-64512855D01*
X118063514Y-64531484D01*
X118090898Y-64569175D01*
X118094106Y-64574059D01*
X118117827Y-64614168D01*
X118117833Y-64614176D01*
X118131990Y-64628332D01*
X118144628Y-64643128D01*
X118156405Y-64659338D01*
X118156406Y-64659339D01*
X118192308Y-64689039D01*
X118196619Y-64692961D01*
X118383263Y-64879606D01*
X118393446Y-64889789D01*
X118403268Y-64902048D01*
X118403489Y-64901866D01*
X118412041Y-64912203D01*
X118439609Y-64976404D01*
X118440500Y-64991246D01*
X118440500Y-65366696D01*
X118443401Y-65403567D01*
X118443402Y-65403573D01*
X118489254Y-65561393D01*
X118489255Y-65561396D01*
X118572917Y-65702862D01*
X118577702Y-65709031D01*
X118575256Y-65710927D01*
X118601857Y-65759642D01*
X118596873Y-65829334D01*
X118576069Y-65861703D01*
X118577702Y-65862969D01*
X118572917Y-65869137D01*
X118489255Y-66010603D01*
X118489254Y-66010606D01*
X118443402Y-66168426D01*
X118443401Y-66168432D01*
X118440500Y-66205304D01*
X118440500Y-66636696D01*
X118443401Y-66673567D01*
X118443402Y-66673573D01*
X118489254Y-66831393D01*
X118489255Y-66831396D01*
X118489256Y-66831398D01*
X118516516Y-66877493D01*
X118572917Y-66972862D01*
X118577702Y-66979031D01*
X118575256Y-66980927D01*
X118601857Y-67029642D01*
X118596873Y-67099334D01*
X118576069Y-67131703D01*
X118577702Y-67132969D01*
X118572917Y-67139137D01*
X118489255Y-67280603D01*
X118489254Y-67280606D01*
X118443402Y-67438426D01*
X118443401Y-67438432D01*
X118440500Y-67475304D01*
X118440500Y-67906696D01*
X118443401Y-67943567D01*
X118443402Y-67943573D01*
X118489254Y-68101393D01*
X118489254Y-68101394D01*
X118489255Y-68101396D01*
X118489256Y-68101398D01*
X118494272Y-68109880D01*
X118496297Y-68113303D01*
X118513478Y-68181027D01*
X118491318Y-68247289D01*
X118436852Y-68291052D01*
X118367372Y-68298421D01*
X118304938Y-68267056D01*
X118301883Y-68264104D01*
X118233991Y-68196212D01*
X118224168Y-68183950D01*
X118223947Y-68184134D01*
X118218974Y-68178123D01*
X118200350Y-68160634D01*
X118168552Y-68130773D01*
X118153365Y-68115586D01*
X118147663Y-68109883D01*
X118142174Y-68105625D01*
X118137749Y-68101847D01*
X118103770Y-68069938D01*
X118103768Y-68069936D01*
X118103765Y-68069935D01*
X118086217Y-68060288D01*
X118069951Y-68049604D01*
X118054124Y-68037327D01*
X118054123Y-68037326D01*
X118054121Y-68037325D01*
X118011356Y-68018818D01*
X118006110Y-68016248D01*
X117965281Y-67993803D01*
X117965280Y-67993802D01*
X117945881Y-67988822D01*
X117927469Y-67982518D01*
X117909086Y-67974562D01*
X117909080Y-67974560D01*
X117863062Y-67967272D01*
X117857340Y-67966087D01*
X117812209Y-67954500D01*
X117812207Y-67954500D01*
X117792172Y-67954500D01*
X117772774Y-67952973D01*
X117765350Y-67951797D01*
X117752993Y-67949840D01*
X117752992Y-67949840D01*
X117706604Y-67954225D01*
X117700766Y-67954500D01*
X116414743Y-67954500D01*
X116399122Y-67952775D01*
X116399095Y-67953061D01*
X116391333Y-67952326D01*
X116322172Y-67954500D01*
X116292649Y-67954500D01*
X116285778Y-67955367D01*
X116279959Y-67955825D01*
X116233374Y-67957289D01*
X116233368Y-67957290D01*
X116214126Y-67962880D01*
X116195087Y-67966823D01*
X116175217Y-67969334D01*
X116175203Y-67969337D01*
X116131883Y-67986488D01*
X116126358Y-67988380D01*
X116081613Y-68001380D01*
X116081610Y-68001381D01*
X116064366Y-68011579D01*
X116046905Y-68020133D01*
X116028274Y-68027510D01*
X116028262Y-68027517D01*
X115990570Y-68054902D01*
X115985687Y-68058109D01*
X115945580Y-68081829D01*
X115931415Y-68095994D01*
X115916623Y-68108628D01*
X115900412Y-68120405D01*
X115870706Y-68156313D01*
X115866774Y-68160634D01*
X115580211Y-68447197D01*
X115567948Y-68457022D01*
X115568131Y-68457244D01*
X115562121Y-68462215D01*
X115514772Y-68512636D01*
X115493889Y-68533519D01*
X115493877Y-68533532D01*
X115489621Y-68539017D01*
X115485837Y-68543447D01*
X115453937Y-68577418D01*
X115453936Y-68577420D01*
X115444284Y-68594976D01*
X115433610Y-68611226D01*
X115421329Y-68627061D01*
X115421324Y-68627068D01*
X115402815Y-68669838D01*
X115400245Y-68675084D01*
X115377803Y-68715906D01*
X115372822Y-68735307D01*
X115366521Y-68753710D01*
X115358562Y-68772102D01*
X115358561Y-68772105D01*
X115351271Y-68818127D01*
X115350087Y-68823846D01*
X115338501Y-68868972D01*
X115338500Y-68868982D01*
X115338500Y-68889016D01*
X115336973Y-68908415D01*
X115333840Y-68928194D01*
X115333840Y-68928195D01*
X115338225Y-68974583D01*
X115338500Y-68980421D01*
X115338500Y-70195452D01*
X115318815Y-70262491D01*
X115291410Y-70292719D01*
X115285958Y-70297029D01*
X115166029Y-70416959D01*
X115077001Y-70561294D01*
X115076996Y-70561305D01*
X115023651Y-70722290D01*
X115013500Y-70821647D01*
X115013500Y-71277078D01*
X115011973Y-71296478D01*
X115005772Y-71335626D01*
X115004587Y-71341347D01*
X114993000Y-71386478D01*
X114993000Y-71406516D01*
X114991473Y-71425915D01*
X114988340Y-71445694D01*
X114988340Y-71445695D01*
X114992725Y-71492083D01*
X114993000Y-71497921D01*
X114993000Y-72054541D01*
X114973315Y-72121580D01*
X114920511Y-72167335D01*
X114903595Y-72173617D01*
X114770606Y-72212254D01*
X114770603Y-72212255D01*
X114629137Y-72295917D01*
X114629129Y-72295923D01*
X114512923Y-72412129D01*
X114512917Y-72412137D01*
X114429255Y-72553603D01*
X114429254Y-72553606D01*
X114383402Y-72711426D01*
X114383401Y-72711432D01*
X114380500Y-72748304D01*
X114380500Y-73179696D01*
X114383401Y-73216567D01*
X114383402Y-73216573D01*
X114429254Y-73374393D01*
X114429255Y-73374396D01*
X114429256Y-73374398D01*
X114441917Y-73395807D01*
X114512917Y-73515862D01*
X114512923Y-73515870D01*
X114629129Y-73632076D01*
X114629133Y-73632079D01*
X114629135Y-73632081D01*
X114770602Y-73715744D01*
X114812224Y-73727836D01*
X114928426Y-73761597D01*
X114928429Y-73761597D01*
X114928431Y-73761598D01*
X114940722Y-73762565D01*
X114965304Y-73764500D01*
X114965306Y-73764500D01*
X116271696Y-73764500D01*
X116290131Y-73763049D01*
X116308569Y-73761598D01*
X116308571Y-73761597D01*
X116308573Y-73761597D01*
X116367609Y-73744445D01*
X116466398Y-73715744D01*
X116607865Y-73632081D01*
X116724081Y-73515865D01*
X116807744Y-73374398D01*
X116853598Y-73216569D01*
X116856133Y-73184355D01*
X116856500Y-73179696D01*
X116856500Y-72748304D01*
X116853598Y-72711432D01*
X116853597Y-72711426D01*
X116807745Y-72553606D01*
X116807744Y-72553603D01*
X116807744Y-72553602D01*
X116724081Y-72412135D01*
X116724079Y-72412133D01*
X116724076Y-72412129D01*
X116607870Y-72295923D01*
X116607862Y-72295917D01*
X116509885Y-72237974D01*
X116462202Y-72186905D01*
X116449698Y-72118163D01*
X116476343Y-72053574D01*
X116507904Y-72025706D01*
X116642044Y-71942968D01*
X116761968Y-71823044D01*
X116762918Y-71821504D01*
X116763844Y-71820670D01*
X116766449Y-71817377D01*
X116767011Y-71817821D01*
X116814865Y-71774778D01*
X116883827Y-71763554D01*
X116947910Y-71791396D01*
X116975844Y-71824597D01*
X117022967Y-71906216D01*
X117139471Y-72035606D01*
X117149629Y-72046888D01*
X117302765Y-72158148D01*
X117302767Y-72158149D01*
X117302770Y-72158151D01*
X117392554Y-72198125D01*
X117445790Y-72243375D01*
X117466111Y-72310224D01*
X117465438Y-72324364D01*
X117463217Y-72345498D01*
X117458540Y-72390000D01*
X117478326Y-72578256D01*
X117478327Y-72578259D01*
X117536818Y-72758277D01*
X117536821Y-72758284D01*
X117631467Y-72922216D01*
X117746907Y-73050425D01*
X117758129Y-73062888D01*
X117911265Y-73174148D01*
X117911270Y-73174151D01*
X118084192Y-73251142D01*
X118084197Y-73251144D01*
X118269354Y-73290500D01*
X118332194Y-73290500D01*
X118399233Y-73310185D01*
X118417075Y-73324106D01*
X118423418Y-73330062D01*
X118440976Y-73339714D01*
X118457233Y-73350393D01*
X118473064Y-73362673D01*
X118492737Y-73371186D01*
X118515833Y-73381182D01*
X118521077Y-73383750D01*
X118561908Y-73406197D01*
X118574523Y-73409435D01*
X118581305Y-73411177D01*
X118599719Y-73417481D01*
X118618104Y-73425438D01*
X118664157Y-73432732D01*
X118669826Y-73433906D01*
X118714981Y-73445500D01*
X118735016Y-73445500D01*
X118754413Y-73447026D01*
X118774196Y-73450160D01*
X118820584Y-73445775D01*
X118826422Y-73445500D01*
X120198160Y-73445500D01*
X120265199Y-73465185D01*
X120310954Y-73517989D01*
X120321458Y-73579574D01*
X120321500Y-73579574D01*
X120321500Y-73579581D01*
X120321627Y-73579587D01*
X120321591Y-73580361D01*
X120321652Y-73580714D01*
X120321500Y-73582387D01*
X120321500Y-73737960D01*
X120321160Y-73744445D01*
X120303340Y-73913999D01*
X120321160Y-74083553D01*
X120321500Y-74090038D01*
X120321500Y-74245616D01*
X120322274Y-74254134D01*
X120327913Y-74316192D01*
X120327913Y-74316194D01*
X120327914Y-74316196D01*
X120378522Y-74478606D01*
X120466528Y-74624185D01*
X120560182Y-74717839D01*
X120593666Y-74779160D01*
X120596500Y-74805519D01*
X120596500Y-75152255D01*
X120594775Y-75167872D01*
X120595061Y-75167899D01*
X120594326Y-75175665D01*
X120596500Y-75244814D01*
X120596500Y-75274343D01*
X120596501Y-75274360D01*
X120597368Y-75281231D01*
X120597826Y-75287050D01*
X120599290Y-75333624D01*
X120599291Y-75333627D01*
X120604880Y-75352867D01*
X120608824Y-75371911D01*
X120611336Y-75391791D01*
X120628490Y-75435119D01*
X120630382Y-75440647D01*
X120642148Y-75481145D01*
X120643382Y-75485390D01*
X120652406Y-75500650D01*
X120653580Y-75502634D01*
X120662136Y-75520100D01*
X120666881Y-75532082D01*
X120669514Y-75538732D01*
X120696898Y-75576423D01*
X120700106Y-75581307D01*
X120723827Y-75621416D01*
X120723833Y-75621424D01*
X120737990Y-75635580D01*
X120750628Y-75650376D01*
X120762405Y-75666586D01*
X120762406Y-75666587D01*
X120798309Y-75696288D01*
X120802620Y-75700210D01*
X121328768Y-76226358D01*
X121835181Y-76732771D01*
X121868666Y-76794094D01*
X121871500Y-76820452D01*
X121871500Y-77133336D01*
X121871501Y-77133355D01*
X121881650Y-77232707D01*
X121881651Y-77232710D01*
X121934996Y-77393694D01*
X121935001Y-77393705D01*
X122024029Y-77538040D01*
X122024032Y-77538044D01*
X122143955Y-77657967D01*
X122143959Y-77657970D01*
X122288294Y-77746998D01*
X122288297Y-77746999D01*
X122288303Y-77747003D01*
X122449292Y-77800349D01*
X122548655Y-77810500D01*
X123095344Y-77810499D01*
X123095352Y-77810498D01*
X123095355Y-77810498D01*
X123149760Y-77804940D01*
X123194708Y-77800349D01*
X123355697Y-77747003D01*
X123500044Y-77657968D01*
X123619968Y-77538044D01*
X123675297Y-77448342D01*
X123727241Y-77401620D01*
X123796204Y-77390397D01*
X123860286Y-77418240D01*
X123868514Y-77425760D01*
X124924584Y-78481830D01*
X124958069Y-78543153D01*
X124953085Y-78612845D01*
X124938478Y-78640634D01*
X124809965Y-78824169D01*
X124809964Y-78824171D01*
X124710098Y-79038335D01*
X124710094Y-79038344D01*
X124648938Y-79266586D01*
X124648936Y-79266596D01*
X124628341Y-79501999D01*
X124628341Y-79502000D01*
X124648936Y-79737403D01*
X124648938Y-79737413D01*
X124710094Y-79965655D01*
X124710096Y-79965659D01*
X124710097Y-79965663D01*
X124791393Y-80140002D01*
X124809965Y-80179830D01*
X124809967Y-80179834D01*
X124892008Y-80297000D01*
X124945505Y-80373401D01*
X125112599Y-80540495D01*
X125205693Y-80605680D01*
X125306165Y-80676032D01*
X125306167Y-80676033D01*
X125306170Y-80676035D01*
X125520337Y-80775903D01*
X125520343Y-80775904D01*
X125520344Y-80775905D01*
X125575285Y-80790626D01*
X125748592Y-80837063D01*
X125935241Y-80853393D01*
X125983999Y-80857659D01*
X125984000Y-80857659D01*
X125984001Y-80857659D01*
X126032759Y-80853393D01*
X126219408Y-80837063D01*
X126447663Y-80775903D01*
X126661830Y-80676035D01*
X126855401Y-80540495D01*
X127022495Y-80373401D01*
X127158035Y-80179830D01*
X127257903Y-79965663D01*
X127319063Y-79737408D01*
X127339659Y-79502000D01*
X127339659Y-79501999D01*
X127339659Y-79501611D01*
X127339707Y-79501445D01*
X127340131Y-79496606D01*
X127341103Y-79496691D01*
X127359344Y-79434572D01*
X127412148Y-79388817D01*
X127481306Y-79378873D01*
X127544862Y-79407898D01*
X127551340Y-79413930D01*
X128254899Y-80117489D01*
X128286294Y-80170575D01*
X128304254Y-80232393D01*
X128304254Y-80232394D01*
X128304255Y-80232396D01*
X128304256Y-80232398D01*
X128305133Y-80233881D01*
X128305466Y-80235195D01*
X128307353Y-80239554D01*
X128306649Y-80239858D01*
X128322315Y-80301604D01*
X128306861Y-80354233D01*
X128307353Y-80354446D01*
X128305630Y-80358426D01*
X128305133Y-80360118D01*
X128304506Y-80361177D01*
X128304254Y-80361605D01*
X128304254Y-80361606D01*
X128258402Y-80519426D01*
X128258401Y-80519432D01*
X128255500Y-80556304D01*
X128255500Y-80987696D01*
X128258401Y-81024567D01*
X128258402Y-81024573D01*
X128304254Y-81182393D01*
X128304254Y-81182394D01*
X128304255Y-81182396D01*
X128304256Y-81182398D01*
X128305133Y-81183881D01*
X128305466Y-81185195D01*
X128307353Y-81189554D01*
X128306649Y-81189858D01*
X128322315Y-81251604D01*
X128306861Y-81304233D01*
X128307353Y-81304446D01*
X128305630Y-81308426D01*
X128305133Y-81310118D01*
X128304506Y-81311177D01*
X128304254Y-81311605D01*
X128304254Y-81311606D01*
X128258402Y-81469426D01*
X128258401Y-81469432D01*
X128255500Y-81506304D01*
X128255500Y-81937696D01*
X128258401Y-81974567D01*
X128258402Y-81974573D01*
X128304254Y-82132393D01*
X128304255Y-82132396D01*
X128304256Y-82132398D01*
X128320656Y-82160129D01*
X128387917Y-82273862D01*
X128387923Y-82273870D01*
X128504129Y-82390076D01*
X128504133Y-82390079D01*
X128504135Y-82390081D01*
X128645602Y-82473744D01*
X128687224Y-82485836D01*
X128803426Y-82519597D01*
X128803429Y-82519597D01*
X128803431Y-82519598D01*
X128815722Y-82520565D01*
X128840304Y-82522500D01*
X128840306Y-82522500D01*
X129996696Y-82522500D01*
X130015131Y-82521049D01*
X130033569Y-82519598D01*
X130033571Y-82519597D01*
X130033573Y-82519597D01*
X130075191Y-82507505D01*
X130191398Y-82473744D01*
X130332865Y-82390081D01*
X130449081Y-82273865D01*
X130449261Y-82273559D01*
X130449464Y-82273369D01*
X130453861Y-82267702D01*
X130454774Y-82268410D01*
X130500323Y-82225872D01*
X130569063Y-82213360D01*
X130633656Y-82239998D01*
X130657856Y-82267921D01*
X130658139Y-82267702D01*
X130662167Y-82272896D01*
X130662725Y-82273539D01*
X130662913Y-82273856D01*
X130662923Y-82273870D01*
X130779129Y-82390076D01*
X130779133Y-82390079D01*
X130779135Y-82390081D01*
X130920602Y-82473744D01*
X130962224Y-82485836D01*
X131078426Y-82519597D01*
X131078429Y-82519597D01*
X131078431Y-82519598D01*
X131090722Y-82520565D01*
X131115304Y-82522500D01*
X131115306Y-82522500D01*
X132271696Y-82522500D01*
X132290131Y-82521049D01*
X132308569Y-82519598D01*
X132308571Y-82519597D01*
X132308573Y-82519597D01*
X132350191Y-82507505D01*
X132466398Y-82473744D01*
X132607865Y-82390081D01*
X132610172Y-82387774D01*
X132614128Y-82383819D01*
X132675451Y-82350334D01*
X132701809Y-82347500D01*
X136698257Y-82347500D01*
X136713877Y-82349224D01*
X136713904Y-82348939D01*
X136721660Y-82349671D01*
X136721667Y-82349673D01*
X136790814Y-82347500D01*
X136820350Y-82347500D01*
X136827228Y-82346630D01*
X136833041Y-82346172D01*
X136879627Y-82344709D01*
X136898869Y-82339117D01*
X136917912Y-82335174D01*
X136937792Y-82332664D01*
X136981122Y-82315507D01*
X136986646Y-82313617D01*
X136990396Y-82312527D01*
X137031390Y-82300618D01*
X137048629Y-82290422D01*
X137066103Y-82281862D01*
X137084729Y-82274487D01*
X137084730Y-82274487D01*
X137084730Y-82274486D01*
X137084732Y-82274486D01*
X137094782Y-82267183D01*
X137160588Y-82243702D01*
X137167670Y-82243500D01*
X137491613Y-82243500D01*
X137491616Y-82243500D01*
X137562196Y-82237086D01*
X137724606Y-82186478D01*
X137870185Y-82098472D01*
X137990472Y-81978185D01*
X138078478Y-81832606D01*
X138129086Y-81670196D01*
X138135500Y-81599616D01*
X138135500Y-81086384D01*
X138129086Y-81015804D01*
X138078478Y-80853394D01*
X137990472Y-80707815D01*
X137990470Y-80707813D01*
X137990469Y-80707811D01*
X137888339Y-80605681D01*
X137854854Y-80544358D01*
X137859838Y-80474666D01*
X137888339Y-80430319D01*
X137990468Y-80328189D01*
X137990469Y-80328188D01*
X137990472Y-80328185D01*
X138078478Y-80182606D01*
X138129086Y-80020196D01*
X138135500Y-79949616D01*
X138135500Y-79653452D01*
X138155185Y-79586413D01*
X138171819Y-79565771D01*
X138469319Y-79268271D01*
X138530642Y-79234786D01*
X138600334Y-79239770D01*
X138644681Y-79268271D01*
X138942181Y-79565771D01*
X138975666Y-79627094D01*
X138978500Y-79653452D01*
X138978500Y-79949613D01*
X138984913Y-80020192D01*
X138984913Y-80020194D01*
X138984914Y-80020196D01*
X139035522Y-80182606D01*
X139114704Y-80313589D01*
X139123530Y-80328188D01*
X139225661Y-80430319D01*
X139259146Y-80491642D01*
X139254162Y-80561334D01*
X139225661Y-80605681D01*
X139123531Y-80707810D01*
X139123530Y-80707811D01*
X139035522Y-80853393D01*
X138984913Y-81015807D01*
X138978500Y-81086386D01*
X138978500Y-81599613D01*
X138984913Y-81670192D01*
X138984913Y-81670194D01*
X138984914Y-81670196D01*
X139035522Y-81832606D01*
X139121344Y-81974573D01*
X139123530Y-81978188D01*
X139243811Y-82098469D01*
X139243813Y-82098470D01*
X139243815Y-82098472D01*
X139389394Y-82186478D01*
X139551804Y-82237086D01*
X139622384Y-82243500D01*
X139918547Y-82243500D01*
X139985586Y-82263185D01*
X140006228Y-82279819D01*
X140178197Y-82451788D01*
X140188022Y-82464051D01*
X140188243Y-82463869D01*
X140193214Y-82469878D01*
X140214043Y-82489437D01*
X140243635Y-82517226D01*
X140264529Y-82538120D01*
X140270011Y-82542373D01*
X140274443Y-82546157D01*
X140308418Y-82578062D01*
X140325976Y-82587714D01*
X140342233Y-82598393D01*
X140358064Y-82610673D01*
X140377737Y-82619186D01*
X140400833Y-82629182D01*
X140406077Y-82631750D01*
X140446908Y-82654197D01*
X140459523Y-82657435D01*
X140466305Y-82659177D01*
X140484719Y-82665481D01*
X140503104Y-82673438D01*
X140549157Y-82680732D01*
X140554826Y-82681906D01*
X140599981Y-82693500D01*
X140620016Y-82693500D01*
X140639413Y-82695026D01*
X140659196Y-82698160D01*
X140705584Y-82693775D01*
X140711422Y-82693500D01*
X142652602Y-82693500D01*
X142719641Y-82713185D01*
X142765396Y-82765989D01*
X142775340Y-82835147D01*
X142751869Y-82891811D01*
X142723304Y-82929968D01*
X142723302Y-82929971D01*
X142673008Y-83064817D01*
X142666601Y-83124416D01*
X142666601Y-83124423D01*
X142666600Y-83124435D01*
X142666600Y-86896842D01*
X142646915Y-86963881D01*
X142618762Y-86994695D01*
X142478222Y-87104081D01*
X142478219Y-87104084D01*
X142321016Y-87274852D01*
X142194075Y-87469151D01*
X142100842Y-87681699D01*
X142043866Y-87906691D01*
X142043864Y-87906702D01*
X142024700Y-88137993D01*
X142024700Y-88138006D01*
X142043864Y-88369297D01*
X142043866Y-88369308D01*
X142100842Y-88594300D01*
X142194075Y-88806848D01*
X142321016Y-89001147D01*
X142321019Y-89001151D01*
X142321021Y-89001153D01*
X142478216Y-89171913D01*
X142618763Y-89281305D01*
X142659575Y-89338013D01*
X142666600Y-89379157D01*
X142666600Y-90896842D01*
X142646915Y-90963881D01*
X142618762Y-90994695D01*
X142478222Y-91104081D01*
X142478219Y-91104084D01*
X142478216Y-91104086D01*
X142478216Y-91104087D01*
X142453886Y-91130517D01*
X142321016Y-91274852D01*
X142194075Y-91469151D01*
X142100842Y-91681699D01*
X142043866Y-91906691D01*
X142043864Y-91906702D01*
X142024700Y-92137993D01*
X142024700Y-92138006D01*
X142043864Y-92369297D01*
X142043866Y-92369308D01*
X142100842Y-92594300D01*
X142194075Y-92806848D01*
X142321016Y-93001147D01*
X142321019Y-93001151D01*
X142321021Y-93001153D01*
X142478216Y-93171913D01*
X142618763Y-93281305D01*
X142659575Y-93338013D01*
X142666600Y-93379157D01*
X142666600Y-97215570D01*
X142666601Y-97215576D01*
X142673008Y-97275183D01*
X142723302Y-97410028D01*
X142723306Y-97410035D01*
X142809552Y-97525244D01*
X142809555Y-97525247D01*
X142924764Y-97611493D01*
X142924771Y-97611497D01*
X143059617Y-97661791D01*
X143059616Y-97661791D01*
X143066544Y-97662535D01*
X143119227Y-97668200D01*
X147964772Y-97668199D01*
X148024383Y-97661791D01*
X148159231Y-97611496D01*
X148274446Y-97525246D01*
X148360696Y-97410031D01*
X148410991Y-97275183D01*
X148417400Y-97215573D01*
X148417399Y-89467989D01*
X148437084Y-89400951D01*
X148453718Y-89380309D01*
X149441209Y-88392819D01*
X149502532Y-88359334D01*
X149528890Y-88356500D01*
X151029500Y-88356500D01*
X151096539Y-88376185D01*
X151142294Y-88428989D01*
X151153500Y-88480500D01*
X151153500Y-90326065D01*
X151168890Y-90511813D01*
X151168892Y-90511824D01*
X151229936Y-90752881D01*
X151329824Y-90980601D01*
X151329826Y-90980605D01*
X151333309Y-90985936D01*
X151353496Y-91052825D01*
X151353500Y-91053757D01*
X151353500Y-91814001D01*
X151353501Y-91814019D01*
X151364000Y-91916796D01*
X151364001Y-91916799D01*
X151419185Y-92083331D01*
X151419187Y-92083336D01*
X151451165Y-92135181D01*
X151511288Y-92232656D01*
X151635344Y-92356712D01*
X151784666Y-92448814D01*
X151951203Y-92503999D01*
X152053991Y-92514500D01*
X153254008Y-92514499D01*
X153356797Y-92503999D01*
X153523334Y-92448814D01*
X153672656Y-92356712D01*
X153796712Y-92232656D01*
X153888814Y-92083334D01*
X153943999Y-91916797D01*
X153954500Y-91814009D01*
X153954499Y-91053758D01*
X153974183Y-90986720D01*
X153974693Y-90985933D01*
X153978172Y-90980608D01*
X153978173Y-90980607D01*
X154078063Y-90752881D01*
X154139108Y-90511821D01*
X154139878Y-90502536D01*
X154154500Y-90326065D01*
X154154500Y-88480500D01*
X154174185Y-88413461D01*
X154226989Y-88367706D01*
X154278500Y-88356500D01*
X156124981Y-88356500D01*
X156132652Y-88356975D01*
X156159779Y-88360357D01*
X156253035Y-88356500D01*
X156284067Y-88356500D01*
X156314990Y-88353937D01*
X156408237Y-88350081D01*
X156434982Y-88344472D01*
X156442582Y-88343364D01*
X156469821Y-88341108D01*
X156469824Y-88341107D01*
X156469826Y-88341107D01*
X156469829Y-88341106D01*
X156560288Y-88318198D01*
X156651614Y-88299049D01*
X156677077Y-88289112D01*
X156684374Y-88286774D01*
X156710881Y-88280063D01*
X156796335Y-88242579D01*
X156883274Y-88208656D01*
X156906761Y-88194659D01*
X156913581Y-88191149D01*
X156938607Y-88180173D01*
X157016720Y-88129139D01*
X157096894Y-88081366D01*
X157117754Y-88063697D01*
X157123894Y-88059117D01*
X157146785Y-88044164D01*
X157215435Y-87980966D01*
X157239126Y-87960902D01*
X157261078Y-87938949D01*
X157329738Y-87875744D01*
X157346530Y-87854167D01*
X157351604Y-87848422D01*
X158253015Y-86947012D01*
X158584900Y-86615128D01*
X158584900Y-86615127D01*
X158705360Y-86472901D01*
X158705359Y-86472901D01*
X158705366Y-86472894D01*
X158832656Y-86259273D01*
X158919802Y-86035939D01*
X158923046Y-86027625D01*
X158923046Y-86027621D01*
X158923050Y-86027614D01*
X158974081Y-85784237D01*
X158984357Y-85535779D01*
X158953599Y-85289019D01*
X158882644Y-85050686D01*
X158773429Y-84827284D01*
X158628932Y-84624904D01*
X158628930Y-84624901D01*
X158549420Y-84545391D01*
X158515935Y-84484068D01*
X158520919Y-84414376D01*
X158562791Y-84358443D01*
X158567461Y-84355442D01*
X158614109Y-84320520D01*
X158687546Y-84265546D01*
X158773796Y-84150331D01*
X158824091Y-84015483D01*
X158830500Y-83955873D01*
X158830499Y-83746557D01*
X158845446Y-83687536D01*
X158858828Y-83662810D01*
X158939571Y-83427614D01*
X158980500Y-83182335D01*
X158980500Y-82933665D01*
X158939571Y-82688386D01*
X158858828Y-82453190D01*
X158845443Y-82428456D01*
X158830499Y-82369440D01*
X158830499Y-82160129D01*
X158830498Y-82160123D01*
X158828704Y-82143437D01*
X158824091Y-82100517D01*
X158823328Y-82098472D01*
X158773797Y-81965671D01*
X158773793Y-81965664D01*
X158687547Y-81850455D01*
X158687544Y-81850452D01*
X158572335Y-81764206D01*
X158572328Y-81764202D01*
X158437482Y-81713908D01*
X158437483Y-81713908D01*
X158377883Y-81707501D01*
X158377881Y-81707500D01*
X158377873Y-81707500D01*
X158377865Y-81707500D01*
X158162587Y-81707500D01*
X158112778Y-81697056D01*
X157968881Y-81633937D01*
X157968879Y-81633936D01*
X157968878Y-81633936D01*
X157727824Y-81572892D01*
X157727813Y-81572890D01*
X157562548Y-81559197D01*
X157542067Y-81557500D01*
X157542065Y-81557500D01*
X155674389Y-81557500D01*
X155607350Y-81537815D01*
X155586708Y-81521181D01*
X154687129Y-80621600D01*
X154615972Y-80561334D01*
X154544894Y-80501134D01*
X154331274Y-80373844D01*
X154331272Y-80373843D01*
X154331270Y-80373842D01*
X154099623Y-80283453D01*
X154099616Y-80283451D01*
X153856234Y-80232418D01*
X153607782Y-80222143D01*
X153607781Y-80222143D01*
X153607779Y-80222143D01*
X153444968Y-80242437D01*
X153361018Y-80252901D01*
X153122684Y-80323856D01*
X152899291Y-80433066D01*
X152899284Y-80433070D01*
X152696901Y-80577569D01*
X152521069Y-80753401D01*
X152376571Y-80955783D01*
X152369496Y-80970256D01*
X152339574Y-81031462D01*
X152292448Y-81083042D01*
X152228175Y-81101000D01*
X151226500Y-81101000D01*
X151159461Y-81081315D01*
X151113706Y-81028511D01*
X151102500Y-80977000D01*
X151102500Y-80569304D01*
X151099598Y-80532432D01*
X151099597Y-80532426D01*
X151053745Y-80374606D01*
X151053744Y-80374603D01*
X151053744Y-80374602D01*
X150970081Y-80233135D01*
X150970079Y-80233133D01*
X150970076Y-80233129D01*
X150853870Y-80116923D01*
X150853862Y-80116917D01*
X150767197Y-80065664D01*
X150712398Y-80033256D01*
X150712397Y-80033255D01*
X150712396Y-80033255D01*
X150712393Y-80033254D01*
X150554573Y-79987402D01*
X150554567Y-79987401D01*
X150517696Y-79984500D01*
X150517694Y-79984500D01*
X150086306Y-79984500D01*
X150086304Y-79984500D01*
X150049432Y-79987401D01*
X150049426Y-79987402D01*
X149891606Y-80033254D01*
X149891603Y-80033255D01*
X149750137Y-80116917D01*
X149750129Y-80116923D01*
X149633923Y-80233129D01*
X149633917Y-80233137D01*
X149550255Y-80374603D01*
X149550254Y-80374606D01*
X149504402Y-80532426D01*
X149504401Y-80532432D01*
X149501500Y-80569304D01*
X149501500Y-81725696D01*
X149504401Y-81762567D01*
X149504402Y-81762573D01*
X149550254Y-81920393D01*
X149550255Y-81920396D01*
X149633917Y-82061862D01*
X149633923Y-82061870D01*
X149750129Y-82178076D01*
X149750133Y-82178079D01*
X149750135Y-82178081D01*
X149891602Y-82261744D01*
X149929987Y-82272896D01*
X150049426Y-82307597D01*
X150049429Y-82307597D01*
X150049431Y-82307598D01*
X150061722Y-82308565D01*
X150086304Y-82310500D01*
X150086306Y-82310500D01*
X150517696Y-82310500D01*
X150529985Y-82309532D01*
X150554569Y-82307598D01*
X150560895Y-82305760D01*
X150630761Y-82305956D01*
X150641422Y-82310406D01*
X150641653Y-82309825D01*
X150648903Y-82312695D01*
X150648905Y-82312695D01*
X150648908Y-82312697D01*
X150668312Y-82317679D01*
X150686710Y-82323978D01*
X150705105Y-82331938D01*
X150751129Y-82339226D01*
X150756832Y-82340407D01*
X150801981Y-82352000D01*
X150822016Y-82352000D01*
X150841413Y-82353526D01*
X150861196Y-82356660D01*
X150907584Y-82352275D01*
X150913422Y-82352000D01*
X152225570Y-82352000D01*
X152292609Y-82371685D01*
X152332093Y-82412526D01*
X152444634Y-82601394D01*
X152495629Y-82661604D01*
X152565100Y-82743629D01*
X152886288Y-83064816D01*
X153871892Y-84050419D01*
X153876976Y-84056177D01*
X153893758Y-84077739D01*
X153893765Y-84077747D01*
X153962433Y-84140961D01*
X153984371Y-84162899D01*
X154008052Y-84182955D01*
X154076715Y-84246164D01*
X154076717Y-84246165D01*
X154076718Y-84246166D01*
X154099586Y-84261106D01*
X154105750Y-84265702D01*
X154126606Y-84283366D01*
X154206772Y-84331134D01*
X154248571Y-84358443D01*
X154284893Y-84382173D01*
X154309914Y-84393148D01*
X154316745Y-84396664D01*
X154340226Y-84410655D01*
X154364624Y-84420175D01*
X154427151Y-84444574D01*
X154489616Y-84471973D01*
X154512619Y-84482063D01*
X154512623Y-84482064D01*
X154539109Y-84488771D01*
X154546432Y-84491116D01*
X154571886Y-84501049D01*
X154663202Y-84520196D01*
X154753679Y-84543108D01*
X154780915Y-84545364D01*
X154788518Y-84546471D01*
X154815263Y-84552080D01*
X154908494Y-84555936D01*
X154939433Y-84558500D01*
X154939435Y-84558500D01*
X154970474Y-84558500D01*
X155063721Y-84562357D01*
X155080414Y-84560276D01*
X155090842Y-84558977D01*
X155098518Y-84558500D01*
X156098111Y-84558500D01*
X156165150Y-84578185D01*
X156210905Y-84630989D01*
X156220849Y-84700147D01*
X156191824Y-84763703D01*
X156185795Y-84770177D01*
X155905286Y-85050686D01*
X155636791Y-85319181D01*
X155575468Y-85352666D01*
X155549110Y-85355500D01*
X148953019Y-85355500D01*
X148945347Y-85355024D01*
X148918221Y-85351643D01*
X148918219Y-85351643D01*
X148824965Y-85355500D01*
X148793933Y-85355500D01*
X148763009Y-85358062D01*
X148669765Y-85361918D01*
X148669751Y-85361920D01*
X148643017Y-85367526D01*
X148635409Y-85368635D01*
X148608185Y-85370890D01*
X148608175Y-85370892D01*
X148571838Y-85380094D01*
X148502017Y-85377468D01*
X148444700Y-85337511D01*
X148418085Y-85272910D01*
X148417399Y-85259888D01*
X148417399Y-83124429D01*
X148417398Y-83124423D01*
X148417397Y-83124416D01*
X148410991Y-83064817D01*
X148360696Y-82929969D01*
X148360695Y-82929968D01*
X148360693Y-82929964D01*
X148274447Y-82814755D01*
X148274444Y-82814752D01*
X148159235Y-82728506D01*
X148159228Y-82728502D01*
X148024385Y-82678209D01*
X148023595Y-82678023D01*
X148023044Y-82677709D01*
X148017115Y-82675498D01*
X148017473Y-82674537D01*
X147962878Y-82643452D01*
X147930489Y-82581543D01*
X147936713Y-82511951D01*
X147964422Y-82469666D01*
X148087744Y-82346344D01*
X148149065Y-82312861D01*
X148185152Y-82310409D01*
X148186306Y-82310500D01*
X148617696Y-82310500D01*
X148636131Y-82309049D01*
X148654569Y-82307598D01*
X148654571Y-82307597D01*
X148654573Y-82307597D01*
X148696191Y-82295505D01*
X148812398Y-82261744D01*
X148953865Y-82178081D01*
X149070081Y-82061865D01*
X149153744Y-81920398D01*
X149187505Y-81804191D01*
X149199597Y-81762573D01*
X149199598Y-81762567D01*
X149202500Y-81725696D01*
X149202500Y-80569304D01*
X149199598Y-80532432D01*
X149199597Y-80532426D01*
X149153745Y-80374606D01*
X149153744Y-80374603D01*
X149153744Y-80374602D01*
X149070081Y-80233135D01*
X149070079Y-80233133D01*
X149070076Y-80233129D01*
X148953870Y-80116923D01*
X148953867Y-80116921D01*
X148953865Y-80116919D01*
X148953549Y-80116732D01*
X148953353Y-80116522D01*
X148947702Y-80112139D01*
X148948409Y-80111227D01*
X148905866Y-80065664D01*
X148893362Y-79996923D01*
X148920006Y-79932333D01*
X148947921Y-79908144D01*
X148947702Y-79907861D01*
X148952911Y-79903820D01*
X148953550Y-79903267D01*
X148953865Y-79903081D01*
X149070081Y-79786865D01*
X149153744Y-79645398D01*
X149196948Y-79496691D01*
X149199597Y-79487573D01*
X149199598Y-79487567D01*
X149202500Y-79450696D01*
X149202500Y-78294304D01*
X149199598Y-78257432D01*
X149199597Y-78257426D01*
X149153745Y-78099606D01*
X149153744Y-78099603D01*
X149153744Y-78099602D01*
X149070081Y-77958135D01*
X149070079Y-77958133D01*
X149070076Y-77958129D01*
X148953870Y-77841923D01*
X148953862Y-77841917D01*
X148812396Y-77758255D01*
X148812393Y-77758254D01*
X148654573Y-77712402D01*
X148654567Y-77712401D01*
X148617696Y-77709500D01*
X148617694Y-77709500D01*
X148186306Y-77709500D01*
X148186291Y-77709500D01*
X148185128Y-77709592D01*
X148116754Y-77695213D01*
X148087744Y-77673653D01*
X146540053Y-76125962D01*
X146511674Y-76073991D01*
X146509479Y-76074719D01*
X146491341Y-76019983D01*
X146454003Y-75907303D01*
X146453999Y-75907297D01*
X146453998Y-75907294D01*
X146364970Y-75762959D01*
X146364967Y-75762955D01*
X146245044Y-75643032D01*
X146245040Y-75643029D01*
X146100705Y-75554001D01*
X146100699Y-75553998D01*
X146100697Y-75553997D01*
X146100694Y-75553996D01*
X145939709Y-75500651D01*
X145840346Y-75490500D01*
X145243662Y-75490500D01*
X145243644Y-75490501D01*
X145144292Y-75500650D01*
X145144289Y-75500651D01*
X144983305Y-75553996D01*
X144983294Y-75554001D01*
X144838959Y-75643029D01*
X144719031Y-75762956D01*
X144719030Y-75762958D01*
X144717956Y-75764699D01*
X144716910Y-75765639D01*
X144714556Y-75768617D01*
X144714046Y-75768214D01*
X144666001Y-75811416D01*
X144611773Y-75823584D01*
X143161035Y-75815933D01*
X143144097Y-75814018D01*
X143144093Y-75814061D01*
X143136335Y-75813327D01*
X143136333Y-75813327D01*
X143136329Y-75813327D01*
X143068825Y-75815447D01*
X143068685Y-75815447D01*
X143040958Y-75815300D01*
X143040944Y-75815301D01*
X143032273Y-75816350D01*
X143026774Y-75816768D01*
X142974525Y-75818410D01*
X142907511Y-75801203D01*
X142860082Y-75773154D01*
X142833319Y-75748799D01*
X142831934Y-75750100D01*
X142826595Y-75744415D01*
X142826596Y-75744415D01*
X142826594Y-75744413D01*
X142790689Y-75714710D01*
X142786377Y-75710787D01*
X141875803Y-74800212D01*
X141865980Y-74787950D01*
X141865759Y-74788134D01*
X141860786Y-74782123D01*
X141857631Y-74779160D01*
X141810364Y-74734773D01*
X141799919Y-74724328D01*
X141789475Y-74713883D01*
X141783986Y-74709625D01*
X141779561Y-74705847D01*
X141745582Y-74673938D01*
X141745580Y-74673936D01*
X141745577Y-74673935D01*
X141728029Y-74664288D01*
X141711763Y-74653604D01*
X141704933Y-74648306D01*
X141695936Y-74641327D01*
X141695935Y-74641326D01*
X141695933Y-74641325D01*
X141653168Y-74622818D01*
X141647922Y-74620248D01*
X141607093Y-74597803D01*
X141607092Y-74597802D01*
X141587693Y-74592822D01*
X141569281Y-74586518D01*
X141550898Y-74578562D01*
X141550892Y-74578560D01*
X141504874Y-74571272D01*
X141499152Y-74570087D01*
X141454021Y-74558500D01*
X141454019Y-74558500D01*
X141433984Y-74558500D01*
X141414586Y-74556973D01*
X141407162Y-74555797D01*
X141394805Y-74553840D01*
X141394804Y-74553840D01*
X141348416Y-74558225D01*
X141342578Y-74558500D01*
X130876914Y-74558500D01*
X130809875Y-74538815D01*
X130789233Y-74522181D01*
X130533265Y-74266212D01*
X130523442Y-74253950D01*
X130523221Y-74254134D01*
X130513275Y-74242111D01*
X130514787Y-74240859D01*
X130484653Y-74189571D01*
X130486546Y-74122530D01*
X130509086Y-74050196D01*
X130515500Y-73979616D01*
X130515500Y-73466384D01*
X130509086Y-73395804D01*
X130458478Y-73233394D01*
X130370472Y-73087815D01*
X130370470Y-73087813D01*
X130370469Y-73087811D01*
X130268339Y-72985681D01*
X130234854Y-72924358D01*
X130239838Y-72854666D01*
X130268339Y-72810319D01*
X130370468Y-72708189D01*
X130370469Y-72708188D01*
X130370472Y-72708185D01*
X130458478Y-72562606D01*
X130509086Y-72400196D01*
X130515500Y-72329616D01*
X130515500Y-71816384D01*
X130509086Y-71745804D01*
X130458478Y-71583394D01*
X130370472Y-71437815D01*
X130370470Y-71437813D01*
X130370469Y-71437811D01*
X130250188Y-71317530D01*
X130214247Y-71295803D01*
X130104606Y-71229522D01*
X129942196Y-71178914D01*
X129942194Y-71178913D01*
X129942192Y-71178913D01*
X129892778Y-71174423D01*
X129871616Y-71172500D01*
X129208384Y-71172500D01*
X129189145Y-71174248D01*
X129137807Y-71178913D01*
X128975393Y-71229522D01*
X128829811Y-71317530D01*
X128709530Y-71437811D01*
X128665846Y-71510074D01*
X128629472Y-71570244D01*
X128621521Y-71583396D01*
X128602591Y-71644144D01*
X128563853Y-71702292D01*
X128499828Y-71730265D01*
X128430843Y-71719183D01*
X128396525Y-71694934D01*
X128199803Y-71498212D01*
X128189980Y-71485950D01*
X128189759Y-71486134D01*
X128184786Y-71480123D01*
X128148123Y-71445694D01*
X128134364Y-71432773D01*
X128123919Y-71422328D01*
X128113475Y-71411883D01*
X128107986Y-71407625D01*
X128103561Y-71403847D01*
X128069582Y-71371938D01*
X128069580Y-71371936D01*
X128069577Y-71371935D01*
X128052029Y-71362288D01*
X128035763Y-71351604D01*
X128019933Y-71339325D01*
X127977168Y-71320818D01*
X127971922Y-71318248D01*
X127931093Y-71295803D01*
X127931092Y-71295802D01*
X127911693Y-71290822D01*
X127893281Y-71284518D01*
X127874898Y-71276562D01*
X127874892Y-71276560D01*
X127828874Y-71269272D01*
X127823152Y-71268087D01*
X127778011Y-71256497D01*
X127777047Y-71256376D01*
X127776346Y-71256070D01*
X127770463Y-71254560D01*
X127770706Y-71253610D01*
X127713005Y-71228441D01*
X127674233Y-71170316D01*
X127673040Y-71100456D01*
X127704913Y-71045676D01*
X129079772Y-69670819D01*
X129141095Y-69637334D01*
X129167453Y-69634500D01*
X129996696Y-69634500D01*
X130015131Y-69633049D01*
X130033569Y-69631598D01*
X130033571Y-69631597D01*
X130033573Y-69631597D01*
X130135806Y-69601895D01*
X130191398Y-69585744D01*
X130318807Y-69510395D01*
X130339580Y-69498110D01*
X130340655Y-69499928D01*
X130395532Y-69478381D01*
X130464050Y-69492059D01*
X130514296Y-69540609D01*
X130530500Y-69601895D01*
X130530500Y-69999696D01*
X130533401Y-70036567D01*
X130533402Y-70036573D01*
X130579254Y-70194393D01*
X130579255Y-70194396D01*
X130579256Y-70194398D01*
X130587116Y-70207689D01*
X130662917Y-70335862D01*
X130662923Y-70335870D01*
X130779129Y-70452076D01*
X130779133Y-70452079D01*
X130779135Y-70452081D01*
X130920602Y-70535744D01*
X130953621Y-70545337D01*
X131078426Y-70581597D01*
X131078429Y-70581597D01*
X131078431Y-70581598D01*
X131090722Y-70582565D01*
X131115304Y-70584500D01*
X131115306Y-70584500D01*
X132271696Y-70584500D01*
X132290131Y-70583049D01*
X132308569Y-70581598D01*
X132308571Y-70581597D01*
X132308573Y-70581597D01*
X132384630Y-70559500D01*
X132466398Y-70535744D01*
X132607865Y-70452081D01*
X132607870Y-70452076D01*
X132614128Y-70445819D01*
X132675451Y-70412334D01*
X132701809Y-70409500D01*
X135302257Y-70409500D01*
X135317877Y-70411224D01*
X135317904Y-70410939D01*
X135325660Y-70411671D01*
X135325667Y-70411673D01*
X135394814Y-70409500D01*
X135424350Y-70409500D01*
X135431228Y-70408630D01*
X135437041Y-70408172D01*
X135483627Y-70406709D01*
X135502869Y-70401117D01*
X135521912Y-70397174D01*
X135541792Y-70394664D01*
X135585122Y-70377507D01*
X135590646Y-70375617D01*
X135594396Y-70374527D01*
X135635390Y-70362618D01*
X135652629Y-70352422D01*
X135670103Y-70343862D01*
X135688727Y-70336488D01*
X135688727Y-70336487D01*
X135688732Y-70336486D01*
X135726449Y-70309082D01*
X135731305Y-70305892D01*
X135771420Y-70282170D01*
X135785589Y-70267999D01*
X135800379Y-70255368D01*
X135816587Y-70243594D01*
X135846299Y-70207676D01*
X135850212Y-70203376D01*
X136016528Y-70037061D01*
X136077848Y-70003579D01*
X136147540Y-70008563D01*
X136203473Y-70050435D01*
X136222590Y-70087852D01*
X136241522Y-70148606D01*
X136325386Y-70287334D01*
X136329530Y-70294188D01*
X136449811Y-70414469D01*
X136449813Y-70414470D01*
X136449815Y-70414472D01*
X136595394Y-70502478D01*
X136757804Y-70553086D01*
X136828384Y-70559500D01*
X136828387Y-70559500D01*
X137491613Y-70559500D01*
X137491616Y-70559500D01*
X137562196Y-70553086D01*
X137724606Y-70502478D01*
X137870185Y-70414472D01*
X137912500Y-70372157D01*
X137963839Y-70320819D01*
X138025162Y-70287334D01*
X138051520Y-70284500D01*
X139062480Y-70284500D01*
X139129519Y-70304185D01*
X139150158Y-70320816D01*
X139165178Y-70335835D01*
X139198665Y-70397157D01*
X139201500Y-70423519D01*
X139201500Y-70880191D01*
X139181815Y-70947230D01*
X139165181Y-70967872D01*
X139158923Y-70974129D01*
X139158917Y-70974137D01*
X139075255Y-71115603D01*
X139075254Y-71115606D01*
X139029402Y-71273426D01*
X139029401Y-71273432D01*
X139026500Y-71310304D01*
X139026500Y-73091696D01*
X139029401Y-73128567D01*
X139029402Y-73128573D01*
X139075254Y-73286393D01*
X139075255Y-73286396D01*
X139158917Y-73427862D01*
X139158923Y-73427870D01*
X139275129Y-73544076D01*
X139275133Y-73544079D01*
X139275135Y-73544081D01*
X139416602Y-73627744D01*
X139431561Y-73632090D01*
X139574426Y-73673597D01*
X139574429Y-73673597D01*
X139574431Y-73673598D01*
X139586722Y-73674565D01*
X139611304Y-73676500D01*
X139611306Y-73676500D01*
X140042696Y-73676500D01*
X140061131Y-73675049D01*
X140079569Y-73673598D01*
X140079571Y-73673597D01*
X140079573Y-73673597D01*
X140121191Y-73661505D01*
X140237398Y-73627744D01*
X140378865Y-73544081D01*
X140378870Y-73544075D01*
X140385031Y-73539298D01*
X140386933Y-73541750D01*
X140435579Y-73515155D01*
X140505274Y-73520104D01*
X140537695Y-73540940D01*
X140538969Y-73539298D01*
X140545132Y-73544078D01*
X140545135Y-73544081D01*
X140686602Y-73627744D01*
X140701561Y-73632090D01*
X140844426Y-73673597D01*
X140844429Y-73673597D01*
X140844431Y-73673598D01*
X140856722Y-73674565D01*
X140881304Y-73676500D01*
X140881306Y-73676500D01*
X141312696Y-73676500D01*
X141331131Y-73675049D01*
X141349569Y-73673598D01*
X141349571Y-73673597D01*
X141349573Y-73673597D01*
X141391191Y-73661505D01*
X141507398Y-73627744D01*
X141648865Y-73544081D01*
X141648870Y-73544075D01*
X141655031Y-73539298D01*
X141656933Y-73541750D01*
X141705579Y-73515155D01*
X141775274Y-73520104D01*
X141807695Y-73540940D01*
X141808969Y-73539298D01*
X141815132Y-73544078D01*
X141815135Y-73544081D01*
X141956602Y-73627744D01*
X141971561Y-73632090D01*
X142114426Y-73673597D01*
X142114429Y-73673597D01*
X142114431Y-73673598D01*
X142126722Y-73674565D01*
X142151304Y-73676500D01*
X142151306Y-73676500D01*
X142582696Y-73676500D01*
X142601131Y-73675049D01*
X142619569Y-73673598D01*
X142619571Y-73673597D01*
X142619573Y-73673597D01*
X142661191Y-73661505D01*
X142777398Y-73627744D01*
X142918865Y-73544081D01*
X143035081Y-73427865D01*
X143118744Y-73286398D01*
X143148396Y-73184337D01*
X144566500Y-73184337D01*
X144566501Y-73184355D01*
X144576650Y-73283707D01*
X144576651Y-73283710D01*
X144629996Y-73444694D01*
X144630001Y-73444705D01*
X144719029Y-73589040D01*
X144719032Y-73589044D01*
X144838955Y-73708967D01*
X144838959Y-73708970D01*
X144983294Y-73797998D01*
X144983297Y-73797999D01*
X144983303Y-73798003D01*
X145144292Y-73851349D01*
X145243655Y-73861500D01*
X145840344Y-73861499D01*
X145840352Y-73861498D01*
X145840355Y-73861498D01*
X145894760Y-73855940D01*
X145939708Y-73851349D01*
X146100697Y-73798003D01*
X146245044Y-73708968D01*
X146364968Y-73589044D01*
X146454003Y-73444697D01*
X146507349Y-73283708D01*
X146517500Y-73184345D01*
X146517499Y-72637656D01*
X146507349Y-72538292D01*
X146454003Y-72377303D01*
X146453999Y-72377297D01*
X146453998Y-72377294D01*
X146364970Y-72232959D01*
X146364967Y-72232955D01*
X146245044Y-72113032D01*
X146245040Y-72113029D01*
X146100705Y-72024001D01*
X146100699Y-72023998D01*
X146100697Y-72023997D01*
X146066593Y-72012696D01*
X145939709Y-71970651D01*
X145840346Y-71960500D01*
X145243662Y-71960500D01*
X145243644Y-71960501D01*
X145144292Y-71970650D01*
X145144289Y-71970651D01*
X144983305Y-72023996D01*
X144983294Y-72024001D01*
X144838959Y-72113029D01*
X144838955Y-72113032D01*
X144719032Y-72232955D01*
X144719029Y-72232959D01*
X144630001Y-72377294D01*
X144629996Y-72377305D01*
X144576651Y-72538290D01*
X144566500Y-72637647D01*
X144566500Y-73184337D01*
X143148396Y-73184337D01*
X143164598Y-73128569D01*
X143167500Y-73091694D01*
X143167500Y-71310306D01*
X143164598Y-71273431D01*
X143163045Y-71268087D01*
X143118745Y-71115606D01*
X143118744Y-71115603D01*
X143118744Y-71115602D01*
X143035081Y-70974135D01*
X143035079Y-70974133D01*
X143035076Y-70974129D01*
X143030033Y-70969086D01*
X142996548Y-70907763D01*
X142993775Y-70885299D01*
X142992500Y-70844709D01*
X142992500Y-70815194D01*
X142992500Y-70815188D01*
X142991631Y-70808317D01*
X142991173Y-70802490D01*
X142991159Y-70802041D01*
X142989710Y-70755911D01*
X142984119Y-70736668D01*
X142980174Y-70717623D01*
X142977664Y-70697746D01*
X142977662Y-70697743D01*
X142977649Y-70697633D01*
X142988779Y-70628656D01*
X143035433Y-70576645D01*
X143089447Y-70558606D01*
X143150196Y-70553086D01*
X143312606Y-70502478D01*
X143458185Y-70414472D01*
X143578472Y-70294185D01*
X143666478Y-70148606D01*
X143717086Y-69986196D01*
X143723500Y-69915616D01*
X143723500Y-69583500D01*
X143743185Y-69516461D01*
X143795989Y-69470706D01*
X143847500Y-69459500D01*
X146446048Y-69459500D01*
X146513087Y-69479185D01*
X146533729Y-69495819D01*
X147565181Y-70527271D01*
X147598666Y-70588594D01*
X147601500Y-70614952D01*
X147601500Y-71057696D01*
X147604401Y-71094567D01*
X147604402Y-71094573D01*
X147650254Y-71252393D01*
X147650255Y-71252396D01*
X147650256Y-71252398D01*
X147672980Y-71290822D01*
X147733917Y-71393862D01*
X147733923Y-71393870D01*
X147850129Y-71510076D01*
X147850133Y-71510079D01*
X147850135Y-71510081D01*
X147991602Y-71593744D01*
X148033224Y-71605836D01*
X148149426Y-71639597D01*
X148149429Y-71639597D01*
X148149431Y-71639598D01*
X148161722Y-71640565D01*
X148186304Y-71642500D01*
X148186306Y-71642500D01*
X148617696Y-71642500D01*
X148636131Y-71641049D01*
X148654569Y-71639598D01*
X148654571Y-71639597D01*
X148654573Y-71639597D01*
X148696191Y-71627505D01*
X148812398Y-71593744D01*
X148953865Y-71510081D01*
X149070081Y-71393865D01*
X149153744Y-71252398D01*
X149199598Y-71094569D01*
X149202500Y-71057694D01*
X149202500Y-71038932D01*
X149222185Y-70971893D01*
X149274989Y-70926138D01*
X149344147Y-70916194D01*
X149407703Y-70945219D01*
X149442017Y-70993857D01*
X149499343Y-71140772D01*
X149499343Y-71140773D01*
X149527287Y-71187669D01*
X149539839Y-71216544D01*
X149550256Y-71252398D01*
X149602860Y-71341347D01*
X149633917Y-71393862D01*
X149633923Y-71393870D01*
X149750127Y-71510074D01*
X149750130Y-71510076D01*
X149750135Y-71510081D01*
X149762149Y-71517186D01*
X149786708Y-71536236D01*
X149793384Y-71542912D01*
X149798473Y-71548674D01*
X149815262Y-71570244D01*
X149815264Y-71570246D01*
X149815265Y-71570247D01*
X149883921Y-71633450D01*
X149895473Y-71645001D01*
X149905874Y-71655402D01*
X149929564Y-71675466D01*
X149998215Y-71738664D01*
X149998217Y-71738665D01*
X149998218Y-71738666D01*
X150021086Y-71753606D01*
X150027250Y-71758202D01*
X150048106Y-71775866D01*
X150048113Y-71775870D01*
X150128278Y-71823639D01*
X150179312Y-71856980D01*
X150206393Y-71874673D01*
X150231412Y-71885647D01*
X150238243Y-71889163D01*
X150251657Y-71897156D01*
X150261720Y-71903153D01*
X150261730Y-71903158D01*
X150348663Y-71937079D01*
X150386147Y-71953520D01*
X150434119Y-71974563D01*
X150458908Y-71980840D01*
X150460609Y-71981271D01*
X150467932Y-71983616D01*
X150493386Y-71993549D01*
X150584702Y-72012696D01*
X150675179Y-72035608D01*
X150702415Y-72037864D01*
X150710018Y-72038971D01*
X150736763Y-72044580D01*
X150829994Y-72048436D01*
X150860933Y-72051000D01*
X150860935Y-72051000D01*
X150891974Y-72051000D01*
X150985221Y-72054857D01*
X151001914Y-72052776D01*
X151012342Y-72051477D01*
X151020018Y-72051000D01*
X153607933Y-72051000D01*
X154351481Y-72051000D01*
X154359152Y-72051475D01*
X154386279Y-72054857D01*
X154479535Y-72051000D01*
X154510567Y-72051000D01*
X154541490Y-72048437D01*
X154634737Y-72044581D01*
X154661482Y-72038972D01*
X154669082Y-72037864D01*
X154696321Y-72035608D01*
X154696324Y-72035607D01*
X154696326Y-72035607D01*
X154696329Y-72035606D01*
X154786788Y-72012698D01*
X154786798Y-72012696D01*
X154878114Y-71993549D01*
X154903577Y-71983612D01*
X154910874Y-71981274D01*
X154937381Y-71974563D01*
X155022835Y-71937079D01*
X155109774Y-71903156D01*
X155133261Y-71889159D01*
X155140081Y-71885649D01*
X155165107Y-71874673D01*
X155243220Y-71823639D01*
X155323394Y-71775866D01*
X155344254Y-71758197D01*
X155350394Y-71753617D01*
X155373285Y-71738664D01*
X155441935Y-71675466D01*
X155465626Y-71655402D01*
X155487578Y-71633449D01*
X155556238Y-71570244D01*
X155573030Y-71548667D01*
X155578104Y-71542922D01*
X158190209Y-68930818D01*
X158251532Y-68897333D01*
X158277890Y-68894499D01*
X158352871Y-68894499D01*
X158352872Y-68894499D01*
X158412483Y-68888091D01*
X158547331Y-68837796D01*
X158662546Y-68751546D01*
X158748796Y-68636331D01*
X158799091Y-68501483D01*
X158805500Y-68441873D01*
X158805499Y-68234138D01*
X158813982Y-68189063D01*
X158898046Y-67973623D01*
X158898048Y-67973616D01*
X158898049Y-67973614D01*
X158949081Y-67730237D01*
X158959357Y-67481779D01*
X158928598Y-67235019D01*
X158857644Y-66996687D01*
X158836719Y-66953884D01*
X158818098Y-66915792D01*
X158805499Y-66861333D01*
X158805499Y-66646129D01*
X158805498Y-66646123D01*
X158805497Y-66646116D01*
X158799091Y-66586517D01*
X158796802Y-66580381D01*
X158748797Y-66451671D01*
X158748793Y-66451664D01*
X158662547Y-66336455D01*
X158662544Y-66336452D01*
X158540231Y-66244888D01*
X158542032Y-66242481D01*
X158503267Y-66203712D01*
X158488417Y-66135439D01*
X158512837Y-66069975D01*
X158524413Y-66056614D01*
X158603932Y-65977096D01*
X158748429Y-65774716D01*
X158778695Y-65712807D01*
X158857643Y-65551315D01*
X158857644Y-65551313D01*
X158928599Y-65312981D01*
X158959357Y-65066221D01*
X158949081Y-64817763D01*
X158898049Y-64574386D01*
X158898048Y-64574383D01*
X158898046Y-64574376D01*
X158823973Y-64384544D01*
X158807656Y-64342727D01*
X158777071Y-64291398D01*
X158680372Y-64129115D01*
X158680368Y-64129110D01*
X158680366Y-64129106D01*
X158598294Y-64032203D01*
X158559900Y-63986871D01*
X156126615Y-61553587D01*
X156121524Y-61547822D01*
X156104739Y-61526257D01*
X156036078Y-61463049D01*
X156014129Y-61441100D01*
X155990435Y-61421033D01*
X155921786Y-61357837D01*
X155921785Y-61357836D01*
X155898904Y-61342887D01*
X155892747Y-61338296D01*
X155871894Y-61320634D01*
X155791720Y-61272860D01*
X155713607Y-61221827D01*
X155713604Y-61221825D01*
X155688588Y-61210852D01*
X155681750Y-61207332D01*
X155658275Y-61193344D01*
X155571335Y-61159420D01*
X155485881Y-61121937D01*
X155485877Y-61121936D01*
X155485875Y-61121935D01*
X155459387Y-61115227D01*
X155452067Y-61112882D01*
X155435593Y-61106454D01*
X155426614Y-61102951D01*
X155335288Y-61083801D01*
X155244819Y-61060891D01*
X155217590Y-61058635D01*
X155209983Y-61057526D01*
X155189986Y-61053334D01*
X155183237Y-61051919D01*
X155183235Y-61051918D01*
X155089990Y-61048062D01*
X155059067Y-61045500D01*
X155059064Y-61045500D01*
X155028035Y-61045500D01*
X154934780Y-61041643D01*
X154934779Y-61041643D01*
X154907652Y-61045024D01*
X154899981Y-61045500D01*
X154278500Y-61045500D01*
X154211461Y-61025815D01*
X154165706Y-60973011D01*
X154154500Y-60921500D01*
X154154500Y-59533935D01*
X154139109Y-59348186D01*
X154139107Y-59348175D01*
X154078063Y-59107118D01*
X153978172Y-58879391D01*
X153974689Y-58874059D01*
X153954502Y-58807169D01*
X153954499Y-58806240D01*
X153954499Y-58045998D01*
X153954498Y-58045981D01*
X153943999Y-57943203D01*
X153943998Y-57943200D01*
X153925839Y-57888400D01*
X153888814Y-57776666D01*
X153796712Y-57627344D01*
X153672656Y-57503288D01*
X153557230Y-57432093D01*
X153523336Y-57411187D01*
X153523331Y-57411185D01*
X153521862Y-57410698D01*
X153356797Y-57356001D01*
X153356795Y-57356000D01*
X153254010Y-57345500D01*
X152053998Y-57345500D01*
X152053981Y-57345501D01*
X151951203Y-57356000D01*
X151951200Y-57356001D01*
X151784668Y-57411185D01*
X151784663Y-57411187D01*
X151635342Y-57503289D01*
X151511289Y-57627342D01*
X151419187Y-57776663D01*
X151419185Y-57776668D01*
X151416897Y-57783573D01*
X151364001Y-57943203D01*
X151364001Y-57943204D01*
X151364000Y-57943204D01*
X151353500Y-58045983D01*
X151353500Y-58806242D01*
X151333815Y-58873281D01*
X151333312Y-58874058D01*
X151329829Y-58879389D01*
X151329824Y-58879398D01*
X151229936Y-59107118D01*
X151168892Y-59348175D01*
X151168890Y-59348186D01*
X151153500Y-59533935D01*
X151153500Y-60921500D01*
X151133815Y-60988539D01*
X151081011Y-61034294D01*
X151029500Y-61045500D01*
X149324890Y-61045500D01*
X149257851Y-61025815D01*
X149237209Y-61009181D01*
X148453718Y-60225690D01*
X148420233Y-60164367D01*
X148417399Y-60138009D01*
X148417399Y-52390429D01*
X148417398Y-52390423D01*
X148417397Y-52390416D01*
X148410991Y-52330817D01*
X148360696Y-52195969D01*
X148360695Y-52195968D01*
X148360693Y-52195964D01*
X148274447Y-52080755D01*
X148274444Y-52080752D01*
X148219694Y-52039766D01*
X148177823Y-51983832D01*
X148172839Y-51914141D01*
X148206325Y-51852818D01*
X148267648Y-51819334D01*
X148294005Y-51816500D01*
X159260500Y-51816500D01*
X159327539Y-51836185D01*
X159373294Y-51888989D01*
X159384500Y-51940500D01*
X159384500Y-97919500D01*
X159364815Y-97986539D01*
X159312011Y-98032294D01*
X159260500Y-98043500D01*
X107820500Y-98043500D01*
X107753461Y-98023815D01*
X107707706Y-97971011D01*
X107696500Y-97919500D01*
X107696500Y-81866781D01*
X113538500Y-81866781D01*
X113538501Y-83995218D01*
X113548904Y-84127413D01*
X113548905Y-84127420D01*
X113603902Y-84345678D01*
X113603903Y-84345681D01*
X113696991Y-84550622D01*
X113696997Y-84550632D01*
X113825174Y-84735645D01*
X113825178Y-84735650D01*
X113825181Y-84735654D01*
X113984346Y-84894819D01*
X113984350Y-84894822D01*
X113984354Y-84894825D01*
X114025506Y-84923335D01*
X114169374Y-85023007D01*
X114374317Y-85116096D01*
X114374321Y-85116097D01*
X114592579Y-85171094D01*
X114592581Y-85171094D01*
X114592588Y-85171096D01*
X114703973Y-85179862D01*
X114724781Y-85181500D01*
X114724782Y-85181499D01*
X114724783Y-85181500D01*
X115538999Y-85181499D01*
X116353218Y-85181499D01*
X116372505Y-85179980D01*
X116485412Y-85171096D01*
X116703683Y-85116096D01*
X116908626Y-85023007D01*
X117093654Y-84894819D01*
X117252819Y-84735654D01*
X117381007Y-84550626D01*
X117474096Y-84345683D01*
X117529096Y-84127412D01*
X117539500Y-83995217D01*
X117539499Y-81866784D01*
X117529096Y-81734588D01*
X117526855Y-81725696D01*
X117474097Y-81516321D01*
X117474096Y-81516318D01*
X117469548Y-81506306D01*
X117381007Y-81311374D01*
X117339598Y-81251604D01*
X117252825Y-81126354D01*
X117252822Y-81126350D01*
X117252819Y-81126346D01*
X117093654Y-80967181D01*
X117093650Y-80967178D01*
X117093645Y-80967174D01*
X116908632Y-80838997D01*
X116908630Y-80838995D01*
X116908626Y-80838993D01*
X116874411Y-80823452D01*
X116703681Y-80745903D01*
X116703678Y-80745902D01*
X116485420Y-80690905D01*
X116485413Y-80690904D01*
X116353219Y-80680500D01*
X116353217Y-80680500D01*
X115539000Y-80680500D01*
X114724782Y-80680501D01*
X114592586Y-80690904D01*
X114592579Y-80690905D01*
X114374321Y-80745902D01*
X114374318Y-80745903D01*
X114169377Y-80838991D01*
X114169367Y-80838997D01*
X113984354Y-80967174D01*
X113984342Y-80967184D01*
X113825184Y-81126342D01*
X113825174Y-81126354D01*
X113696997Y-81311367D01*
X113696991Y-81311377D01*
X113603903Y-81516318D01*
X113603902Y-81516321D01*
X113548905Y-81734579D01*
X113548904Y-81734586D01*
X113538500Y-81866781D01*
X107696500Y-81866781D01*
X107696500Y-76772779D01*
X109366643Y-76772779D01*
X109376918Y-77021234D01*
X109427951Y-77264616D01*
X109427953Y-77264623D01*
X109499642Y-77448345D01*
X109518344Y-77496274D01*
X109645634Y-77709894D01*
X109705408Y-77780469D01*
X109766100Y-77852129D01*
X111666384Y-79752412D01*
X111671473Y-79758174D01*
X111688262Y-79779744D01*
X111688264Y-79779746D01*
X111688265Y-79779747D01*
X111756921Y-79842950D01*
X111778866Y-79864894D01*
X111778874Y-79864902D01*
X111802564Y-79884966D01*
X111871215Y-79948164D01*
X111871217Y-79948165D01*
X111871218Y-79948166D01*
X111894086Y-79963106D01*
X111900250Y-79967702D01*
X111921106Y-79985366D01*
X111924523Y-79987402D01*
X112001278Y-80033139D01*
X112051063Y-80065664D01*
X112079393Y-80084173D01*
X112104412Y-80095147D01*
X112111243Y-80098663D01*
X112124657Y-80106656D01*
X112134720Y-80112653D01*
X112134730Y-80112658D01*
X112221663Y-80146579D01*
X112259147Y-80163020D01*
X112307119Y-80184063D01*
X112331908Y-80190340D01*
X112333609Y-80190771D01*
X112340932Y-80193116D01*
X112366386Y-80203049D01*
X112457702Y-80222196D01*
X112548179Y-80245108D01*
X112575415Y-80247364D01*
X112583018Y-80248471D01*
X112609763Y-80254080D01*
X112702994Y-80257936D01*
X112733933Y-80260500D01*
X112733935Y-80260500D01*
X112764974Y-80260500D01*
X112858221Y-80264357D01*
X112874914Y-80262276D01*
X112885342Y-80260977D01*
X112893018Y-80260500D01*
X116695110Y-80260500D01*
X116762149Y-80280185D01*
X116782791Y-80296819D01*
X119252181Y-82766209D01*
X119285666Y-82827532D01*
X119288500Y-82853890D01*
X119288500Y-84728870D01*
X119288501Y-84728876D01*
X119294908Y-84788483D01*
X119345202Y-84923328D01*
X119345206Y-84923335D01*
X119431452Y-85038544D01*
X119431455Y-85038547D01*
X119546664Y-85124793D01*
X119546671Y-85124797D01*
X119591618Y-85141561D01*
X119681517Y-85175091D01*
X119741127Y-85181500D01*
X120033501Y-85181499D01*
X120100539Y-85201183D01*
X120146294Y-85253987D01*
X120157500Y-85305499D01*
X120157500Y-89186167D01*
X120137815Y-89253206D01*
X120121181Y-89273848D01*
X117259847Y-92135181D01*
X117198524Y-92168666D01*
X117172166Y-92171500D01*
X114941998Y-92171500D01*
X114941981Y-92171501D01*
X114839203Y-92182000D01*
X114839200Y-92182001D01*
X114672668Y-92237185D01*
X114672663Y-92237187D01*
X114523342Y-92329289D01*
X114399289Y-92453342D01*
X114307187Y-92602663D01*
X114307185Y-92602668D01*
X114285827Y-92667123D01*
X114252001Y-92769203D01*
X114252001Y-92769204D01*
X114252000Y-92769204D01*
X114241500Y-92871983D01*
X114241500Y-94072001D01*
X114241501Y-94072018D01*
X114252000Y-94174796D01*
X114252001Y-94174799D01*
X114307185Y-94341331D01*
X114307187Y-94341336D01*
X114325239Y-94370603D01*
X114399288Y-94490656D01*
X114523344Y-94614712D01*
X114672666Y-94706814D01*
X114839203Y-94761999D01*
X114941991Y-94772500D01*
X118042008Y-94772499D01*
X118144797Y-94761999D01*
X118311334Y-94706814D01*
X118460656Y-94614712D01*
X118584712Y-94490656D01*
X118676814Y-94341334D01*
X118731999Y-94174797D01*
X118742500Y-94072009D01*
X118742499Y-93533731D01*
X118762183Y-93466693D01*
X118778813Y-93446056D01*
X121070320Y-91154550D01*
X121131641Y-91121067D01*
X121201333Y-91126051D01*
X121245680Y-91154552D01*
X121260558Y-91169429D01*
X121264616Y-91173487D01*
X121325991Y-91238053D01*
X121325994Y-91238055D01*
X121325995Y-91238056D01*
X121376345Y-91273101D01*
X121380097Y-91275929D01*
X121427642Y-91314697D01*
X121433908Y-91317970D01*
X121484216Y-91366453D01*
X121500500Y-91427880D01*
X121500500Y-92092870D01*
X121500501Y-92092876D01*
X121506908Y-92152483D01*
X121557202Y-92287328D01*
X121557205Y-92287334D01*
X121570947Y-92305691D01*
X121595363Y-92371156D01*
X121580510Y-92439429D01*
X121570947Y-92454309D01*
X121557205Y-92472665D01*
X121557202Y-92472671D01*
X121506910Y-92607513D01*
X121506909Y-92607517D01*
X121500500Y-92667127D01*
X121500500Y-92667134D01*
X121500500Y-92667135D01*
X121500500Y-93362870D01*
X121500501Y-93362876D01*
X121506908Y-93422483D01*
X121557202Y-93557328D01*
X121557206Y-93557335D01*
X121643452Y-93672544D01*
X121643455Y-93672547D01*
X121758664Y-93758793D01*
X121758671Y-93758797D01*
X121803618Y-93775561D01*
X121893517Y-93809091D01*
X121953127Y-93815500D01*
X122333632Y-93815499D01*
X122384067Y-93826219D01*
X122496197Y-93876144D01*
X122681354Y-93915500D01*
X122740548Y-93915500D01*
X122807587Y-93935185D01*
X122828229Y-93951819D01*
X125309197Y-96432788D01*
X125319022Y-96445051D01*
X125319243Y-96444869D01*
X125324214Y-96450878D01*
X125350217Y-96475295D01*
X125374635Y-96498226D01*
X125395529Y-96519120D01*
X125401011Y-96523373D01*
X125405443Y-96527157D01*
X125439418Y-96559062D01*
X125456976Y-96568714D01*
X125473233Y-96579393D01*
X125489064Y-96591673D01*
X125508737Y-96600186D01*
X125531833Y-96610182D01*
X125537077Y-96612750D01*
X125577908Y-96635197D01*
X125590523Y-96638435D01*
X125597305Y-96640177D01*
X125615719Y-96646481D01*
X125634104Y-96654438D01*
X125680157Y-96661732D01*
X125685826Y-96662906D01*
X125730981Y-96674500D01*
X125751016Y-96674500D01*
X125770413Y-96676026D01*
X125790196Y-96679160D01*
X125836584Y-96674775D01*
X125842422Y-96674500D01*
X127932500Y-96674500D01*
X127999539Y-96694185D01*
X128045294Y-96746989D01*
X128056500Y-96798500D01*
X128056500Y-97030613D01*
X128062913Y-97101192D01*
X128113522Y-97263606D01*
X128201530Y-97409188D01*
X128321811Y-97529469D01*
X128321813Y-97529470D01*
X128321815Y-97529472D01*
X128467394Y-97617478D01*
X128629804Y-97668086D01*
X128700384Y-97674500D01*
X128700387Y-97674500D01*
X129363613Y-97674500D01*
X129363616Y-97674500D01*
X129434196Y-97668086D01*
X129596606Y-97617478D01*
X129742185Y-97529472D01*
X129862472Y-97409185D01*
X129950478Y-97263606D01*
X130001086Y-97101196D01*
X130007500Y-97030616D01*
X130007500Y-96798500D01*
X130027185Y-96731461D01*
X130079989Y-96685706D01*
X130131500Y-96674500D01*
X130726500Y-96674500D01*
X130793539Y-96694185D01*
X130839294Y-96746989D01*
X130850500Y-96798500D01*
X130850500Y-97030613D01*
X130856913Y-97101192D01*
X130907522Y-97263606D01*
X130995530Y-97409188D01*
X131115811Y-97529469D01*
X131115813Y-97529470D01*
X131115815Y-97529472D01*
X131261394Y-97617478D01*
X131423804Y-97668086D01*
X131494384Y-97674500D01*
X131494387Y-97674500D01*
X132157613Y-97674500D01*
X132157616Y-97674500D01*
X132228196Y-97668086D01*
X132390606Y-97617478D01*
X132536185Y-97529472D01*
X132656472Y-97409185D01*
X132744478Y-97263606D01*
X132795086Y-97101196D01*
X132801500Y-97030616D01*
X132801500Y-96517384D01*
X132795086Y-96446804D01*
X132744478Y-96284394D01*
X132656472Y-96138815D01*
X132656470Y-96138813D01*
X132656469Y-96138811D01*
X132554339Y-96036681D01*
X132520854Y-95975358D01*
X132525838Y-95905666D01*
X132554339Y-95861319D01*
X132656468Y-95759189D01*
X132656469Y-95759188D01*
X132656472Y-95759185D01*
X132744478Y-95613606D01*
X132795086Y-95451196D01*
X132801500Y-95380616D01*
X132801500Y-94867384D01*
X132795086Y-94796804D01*
X132744478Y-94634394D01*
X132656472Y-94488815D01*
X132656470Y-94488813D01*
X132656469Y-94488811D01*
X132536188Y-94368530D01*
X132390606Y-94280522D01*
X132381916Y-94277814D01*
X132228196Y-94229914D01*
X132228194Y-94229913D01*
X132228192Y-94229913D01*
X132178778Y-94225423D01*
X132157616Y-94223500D01*
X132157613Y-94223500D01*
X131861452Y-94223500D01*
X131794413Y-94203815D01*
X131773771Y-94187181D01*
X130168772Y-92582181D01*
X130135287Y-92520858D01*
X130140271Y-92451166D01*
X130182143Y-92395233D01*
X130247607Y-92370816D01*
X130256453Y-92370500D01*
X131026126Y-92370500D01*
X131093165Y-92390185D01*
X131113807Y-92406819D01*
X131122955Y-92415967D01*
X131122959Y-92415970D01*
X131267294Y-92504998D01*
X131267297Y-92504999D01*
X131267303Y-92505003D01*
X131428292Y-92558349D01*
X131527655Y-92568500D01*
X132124344Y-92568499D01*
X132124352Y-92568498D01*
X132124355Y-92568498D01*
X132178760Y-92562940D01*
X132223708Y-92558349D01*
X132384697Y-92505003D01*
X132529044Y-92415968D01*
X132648968Y-92296044D01*
X132738003Y-92151697D01*
X132791349Y-91990708D01*
X132801500Y-91891345D01*
X132801499Y-91344656D01*
X132800769Y-91337513D01*
X132791349Y-91245292D01*
X132791348Y-91245289D01*
X132777226Y-91202671D01*
X132738003Y-91084303D01*
X132737999Y-91084297D01*
X132737998Y-91084294D01*
X132648970Y-90939959D01*
X132648967Y-90939955D01*
X132529044Y-90820032D01*
X132529040Y-90820029D01*
X132384705Y-90731001D01*
X132384698Y-90730998D01*
X132384697Y-90730997D01*
X132384694Y-90730996D01*
X132378154Y-90727947D01*
X132379332Y-90725418D01*
X132332421Y-90692950D01*
X132305586Y-90628439D01*
X132317889Y-90559661D01*
X132365424Y-90508453D01*
X132378379Y-90502536D01*
X132378154Y-90502053D01*
X132384687Y-90499006D01*
X132384697Y-90499003D01*
X132529044Y-90409968D01*
X132648968Y-90290044D01*
X132738003Y-90145697D01*
X132791349Y-89984708D01*
X132801500Y-89885345D01*
X132801499Y-89338656D01*
X132801433Y-89338013D01*
X132791349Y-89239292D01*
X132791348Y-89239289D01*
X132752981Y-89123504D01*
X132750579Y-89053675D01*
X132786311Y-88993634D01*
X132848831Y-88962441D01*
X132870687Y-88960500D01*
X132913510Y-88960500D01*
X132980549Y-88980185D01*
X133001191Y-88996819D01*
X133384681Y-89380309D01*
X133418166Y-89441632D01*
X133421000Y-89467990D01*
X133421000Y-97215570D01*
X133421001Y-97215576D01*
X133427408Y-97275183D01*
X133477702Y-97410028D01*
X133477706Y-97410035D01*
X133563952Y-97525244D01*
X133563955Y-97525247D01*
X133679164Y-97611493D01*
X133679171Y-97611497D01*
X133814017Y-97661791D01*
X133814016Y-97661791D01*
X133820944Y-97662535D01*
X133873627Y-97668200D01*
X138719172Y-97668199D01*
X138778783Y-97661791D01*
X138913631Y-97611496D01*
X139028846Y-97525246D01*
X139115096Y-97410031D01*
X139165391Y-97275183D01*
X139171800Y-97215573D01*
X139171799Y-93662498D01*
X139191484Y-93595460D01*
X139244288Y-93549705D01*
X139295799Y-93538499D01*
X139377871Y-93538499D01*
X139377872Y-93538499D01*
X139437483Y-93532091D01*
X139572331Y-93481796D01*
X139687546Y-93395546D01*
X139773796Y-93280331D01*
X139824091Y-93145483D01*
X139830500Y-93085873D01*
X139830499Y-91190128D01*
X139824091Y-91130517D01*
X139822425Y-91126051D01*
X139773797Y-90995671D01*
X139773793Y-90995664D01*
X139687547Y-90880455D01*
X139687544Y-90880452D01*
X139572335Y-90794206D01*
X139572328Y-90794202D01*
X139437482Y-90743908D01*
X139437483Y-90743908D01*
X139377883Y-90737501D01*
X139377881Y-90737500D01*
X139377873Y-90737500D01*
X139377865Y-90737500D01*
X139295799Y-90737500D01*
X139228760Y-90717815D01*
X139183005Y-90665011D01*
X139171799Y-90613500D01*
X139171799Y-89395969D01*
X139191484Y-89328930D01*
X139219632Y-89298120D01*
X139381784Y-89171913D01*
X139538979Y-89001153D01*
X139665924Y-88806849D01*
X139759157Y-88594300D01*
X139816134Y-88369305D01*
X139816135Y-88369297D01*
X139835300Y-88138006D01*
X139835300Y-88137993D01*
X139816135Y-87906702D01*
X139816133Y-87906691D01*
X139759157Y-87681699D01*
X139665924Y-87469151D01*
X139538983Y-87274852D01*
X139538980Y-87274849D01*
X139538979Y-87274847D01*
X139381784Y-87104087D01*
X139381779Y-87104083D01*
X139381777Y-87104081D01*
X139219637Y-86977882D01*
X139178824Y-86921172D01*
X139171799Y-86880029D01*
X139171799Y-83124429D01*
X139171798Y-83124423D01*
X139171797Y-83124416D01*
X139165391Y-83064817D01*
X139115096Y-82929969D01*
X139115095Y-82929968D01*
X139115093Y-82929964D01*
X139028847Y-82814755D01*
X139028844Y-82814752D01*
X138913635Y-82728506D01*
X138913628Y-82728502D01*
X138778782Y-82678208D01*
X138778783Y-82678208D01*
X138719183Y-82671801D01*
X138719181Y-82671800D01*
X138719173Y-82671800D01*
X138719164Y-82671800D01*
X133873629Y-82671800D01*
X133873623Y-82671801D01*
X133814016Y-82678208D01*
X133679171Y-82728502D01*
X133679164Y-82728506D01*
X133563955Y-82814752D01*
X133563952Y-82814755D01*
X133477706Y-82929964D01*
X133477702Y-82929971D01*
X133427408Y-83064817D01*
X133421001Y-83124416D01*
X133421001Y-83124423D01*
X133421000Y-83124435D01*
X133421000Y-85835500D01*
X133401315Y-85902539D01*
X133348511Y-85948294D01*
X133297000Y-85959500D01*
X129788019Y-85959500D01*
X129780347Y-85959024D01*
X129753221Y-85955643D01*
X129753219Y-85955643D01*
X129659965Y-85959500D01*
X129628933Y-85959500D01*
X129598009Y-85962062D01*
X129504765Y-85965918D01*
X129504751Y-85965920D01*
X129478017Y-85971526D01*
X129470409Y-85972635D01*
X129443185Y-85974890D01*
X129443175Y-85974892D01*
X129370815Y-85993216D01*
X129352725Y-85997797D01*
X129338755Y-86000726D01*
X129261390Y-86016948D01*
X129261375Y-86016953D01*
X129235920Y-86026886D01*
X129228599Y-86029231D01*
X129202119Y-86035937D01*
X129202113Y-86035939D01*
X129116667Y-86073419D01*
X129029723Y-86107345D01*
X129006247Y-86121333D01*
X128999413Y-86124851D01*
X128974388Y-86135829D01*
X128974385Y-86135830D01*
X128896275Y-86186862D01*
X128816101Y-86234637D01*
X128795250Y-86252297D01*
X128789087Y-86256892D01*
X128766215Y-86271835D01*
X128766212Y-86271838D01*
X128697554Y-86335042D01*
X128673871Y-86355101D01*
X128651934Y-86377038D01*
X128583261Y-86440257D01*
X128583256Y-86440262D01*
X128566472Y-86461826D01*
X128561383Y-86467589D01*
X127071100Y-87957871D01*
X126950633Y-88100107D01*
X126823342Y-88313729D01*
X126732953Y-88545376D01*
X126732951Y-88545383D01*
X126681918Y-88788765D01*
X126671643Y-89037217D01*
X126702401Y-89283981D01*
X126773356Y-89522315D01*
X126882562Y-89745700D01*
X126882568Y-89745711D01*
X126882571Y-89745716D01*
X126933789Y-89817452D01*
X126939101Y-89824891D01*
X126962036Y-89890889D01*
X126954366Y-89940277D01*
X126937795Y-89984708D01*
X126906909Y-90067517D01*
X126900500Y-90127127D01*
X126900500Y-90127134D01*
X126900500Y-90127135D01*
X126900500Y-90822870D01*
X126900501Y-90822876D01*
X126906908Y-90882483D01*
X126957202Y-91017328D01*
X126957205Y-91017334D01*
X126970947Y-91035691D01*
X126995363Y-91101156D01*
X126980510Y-91169429D01*
X126970947Y-91184309D01*
X126957205Y-91202665D01*
X126957202Y-91202671D01*
X126915420Y-91314697D01*
X126906909Y-91337517D01*
X126900500Y-91397127D01*
X126900500Y-91397134D01*
X126900500Y-91397135D01*
X126900500Y-92092870D01*
X126900501Y-92092876D01*
X126906908Y-92152483D01*
X126957202Y-92287328D01*
X126957205Y-92287334D01*
X126970947Y-92305691D01*
X126995363Y-92371156D01*
X126980510Y-92439429D01*
X126970947Y-92454309D01*
X126957205Y-92472665D01*
X126957202Y-92472671D01*
X126906910Y-92607513D01*
X126906909Y-92607517D01*
X126900500Y-92667127D01*
X126900500Y-92667134D01*
X126900500Y-92667135D01*
X126900500Y-93362870D01*
X126900501Y-93362876D01*
X126906908Y-93422483D01*
X126957202Y-93557328D01*
X126957206Y-93557335D01*
X127043452Y-93672544D01*
X127043455Y-93672547D01*
X127158664Y-93758793D01*
X127158671Y-93758797D01*
X127203618Y-93775561D01*
X127293517Y-93809091D01*
X127353127Y-93815500D01*
X127426500Y-93815499D01*
X127493538Y-93835183D01*
X127539294Y-93887986D01*
X127550500Y-93939499D01*
X127550500Y-94185255D01*
X127548775Y-94200872D01*
X127549061Y-94200899D01*
X127548326Y-94208665D01*
X127550500Y-94277814D01*
X127550500Y-94307343D01*
X127550501Y-94307360D01*
X127551368Y-94314231D01*
X127551826Y-94320049D01*
X127553416Y-94370603D01*
X127535848Y-94438228D01*
X127484508Y-94485620D01*
X127429477Y-94498500D01*
X127129520Y-94498500D01*
X127062481Y-94478815D01*
X127041839Y-94462181D01*
X126948188Y-94368530D01*
X126802606Y-94280522D01*
X126793916Y-94277814D01*
X126640196Y-94229914D01*
X126640194Y-94229913D01*
X126640192Y-94229913D01*
X126590778Y-94225423D01*
X126569616Y-94223500D01*
X125906384Y-94223500D01*
X125887145Y-94225248D01*
X125835807Y-94229913D01*
X125673393Y-94280522D01*
X125527811Y-94368530D01*
X125407531Y-94488810D01*
X125407528Y-94488814D01*
X125386506Y-94523589D01*
X125334978Y-94570776D01*
X125266119Y-94582614D01*
X125201790Y-94555344D01*
X125192709Y-94547119D01*
X124690818Y-94045228D01*
X124087816Y-93442225D01*
X124054333Y-93380905D01*
X124051499Y-93354556D01*
X124051499Y-92667128D01*
X124045091Y-92607517D01*
X124045090Y-92607513D01*
X123994797Y-92472670D01*
X123994796Y-92472669D01*
X123994793Y-92472665D01*
X123981053Y-92454311D01*
X123956635Y-92388850D01*
X123971485Y-92320576D01*
X123981050Y-92305691D01*
X123994796Y-92287331D01*
X124045091Y-92152483D01*
X124051500Y-92092873D01*
X124051499Y-91397128D01*
X124045091Y-91337517D01*
X124036580Y-91314697D01*
X123994797Y-91202670D01*
X123994796Y-91202669D01*
X123985408Y-91190129D01*
X123981053Y-91184311D01*
X123956635Y-91118850D01*
X123971485Y-91050576D01*
X123981050Y-91035691D01*
X123994796Y-91017331D01*
X123994979Y-91016842D01*
X124008495Y-90980601D01*
X124045091Y-90882483D01*
X124051500Y-90822873D01*
X124051499Y-90127128D01*
X124045091Y-90067517D01*
X124014205Y-89984708D01*
X123994797Y-89932671D01*
X123994793Y-89932664D01*
X123908547Y-89817455D01*
X123908544Y-89817452D01*
X123793335Y-89731206D01*
X123793328Y-89731202D01*
X123658482Y-89680908D01*
X123658483Y-89680908D01*
X123598883Y-89674501D01*
X123598881Y-89674500D01*
X123598873Y-89674500D01*
X123598865Y-89674500D01*
X123416162Y-89674500D01*
X123349123Y-89654815D01*
X123345325Y-89652275D01*
X123344276Y-89651545D01*
X123320755Y-89635174D01*
X123264050Y-89595705D01*
X123077056Y-89515459D01*
X122877741Y-89474500D01*
X122446833Y-89474500D01*
X122379794Y-89454815D01*
X122359152Y-89438181D01*
X122194819Y-89273848D01*
X122161334Y-89212525D01*
X122158500Y-89186167D01*
X122158500Y-85305499D01*
X122178185Y-85238460D01*
X122230989Y-85192705D01*
X122282500Y-85181499D01*
X123336871Y-85181499D01*
X123336872Y-85181499D01*
X123396483Y-85175091D01*
X123531331Y-85124796D01*
X123646546Y-85038546D01*
X123732796Y-84923331D01*
X123783091Y-84788483D01*
X123789500Y-84728873D01*
X123789499Y-81133128D01*
X123783091Y-81073517D01*
X123775781Y-81053919D01*
X123732797Y-80938671D01*
X123732793Y-80938664D01*
X123646547Y-80823455D01*
X123646544Y-80823452D01*
X123531335Y-80737206D01*
X123531328Y-80737202D01*
X123396482Y-80686908D01*
X123396483Y-80686908D01*
X123336883Y-80680501D01*
X123336881Y-80680500D01*
X123336873Y-80680500D01*
X123336865Y-80680500D01*
X121461890Y-80680500D01*
X121394851Y-80660815D01*
X121374209Y-80644181D01*
X118497615Y-77767587D01*
X118492524Y-77761822D01*
X118475739Y-77740257D01*
X118407079Y-77677050D01*
X118385127Y-77655099D01*
X117600819Y-76870791D01*
X117567334Y-76809468D01*
X117564500Y-76783110D01*
X117564500Y-76772935D01*
X117564181Y-76769090D01*
X117549108Y-76587179D01*
X117524015Y-76488090D01*
X117488063Y-76346118D01*
X117388173Y-76118393D01*
X117252166Y-75910217D01*
X117210178Y-75864606D01*
X117083744Y-75727262D01*
X116887509Y-75574526D01*
X116887508Y-75574525D01*
X116887505Y-75574523D01*
X116887503Y-75574522D01*
X116805905Y-75530364D01*
X116756314Y-75481145D01*
X116741206Y-75412928D01*
X116758188Y-75358192D01*
X116807744Y-75274398D01*
X116853598Y-75116569D01*
X116856500Y-75079694D01*
X116856500Y-74648306D01*
X116853598Y-74611431D01*
X116849638Y-74597802D01*
X116807745Y-74453606D01*
X116807744Y-74453603D01*
X116807744Y-74453602D01*
X116724081Y-74312135D01*
X116724079Y-74312133D01*
X116724076Y-74312129D01*
X116607870Y-74195923D01*
X116607862Y-74195917D01*
X116466396Y-74112255D01*
X116466393Y-74112254D01*
X116308573Y-74066402D01*
X116308567Y-74066401D01*
X116271696Y-74063500D01*
X116271694Y-74063500D01*
X114965306Y-74063500D01*
X114965304Y-74063500D01*
X114928432Y-74066401D01*
X114928426Y-74066402D01*
X114770606Y-74112254D01*
X114770603Y-74112255D01*
X114629137Y-74195917D01*
X114629129Y-74195923D01*
X114512923Y-74312129D01*
X114512917Y-74312137D01*
X114429255Y-74453603D01*
X114429254Y-74453606D01*
X114383402Y-74611426D01*
X114383401Y-74611432D01*
X114380500Y-74648304D01*
X114380500Y-75079696D01*
X114383401Y-75116567D01*
X114383402Y-75116573D01*
X114429254Y-75274393D01*
X114429255Y-75274396D01*
X114429256Y-75274398D01*
X114436738Y-75287050D01*
X114512917Y-75415862D01*
X114512923Y-75415870D01*
X114629129Y-75532076D01*
X114629133Y-75532079D01*
X114629135Y-75532081D01*
X114770602Y-75615744D01*
X114875340Y-75646173D01*
X114934224Y-75683779D01*
X114963431Y-75747251D01*
X114953685Y-75816438D01*
X114931975Y-75849231D01*
X114875833Y-75910217D01*
X114739826Y-76118393D01*
X114639936Y-76346118D01*
X114578892Y-76587175D01*
X114578890Y-76587186D01*
X114569725Y-76697804D01*
X114563819Y-76769090D01*
X114563500Y-76772935D01*
X114563500Y-77135500D01*
X114543815Y-77202539D01*
X114491011Y-77248294D01*
X114439500Y-77259500D01*
X113468890Y-77259500D01*
X113401851Y-77239815D01*
X113381209Y-77223181D01*
X111888129Y-75730100D01*
X111785327Y-75643032D01*
X111745894Y-75609634D01*
X111532274Y-75482344D01*
X111532272Y-75482343D01*
X111532270Y-75482342D01*
X111300623Y-75391953D01*
X111300616Y-75391951D01*
X111057234Y-75340918D01*
X110808782Y-75330643D01*
X110808781Y-75330643D01*
X110808779Y-75330643D01*
X110630556Y-75352858D01*
X110562018Y-75361401D01*
X110323684Y-75432356D01*
X110100291Y-75541566D01*
X110100284Y-75541570D01*
X109897901Y-75686069D01*
X109722069Y-75861901D01*
X109577570Y-76064284D01*
X109577566Y-76064291D01*
X109468358Y-76287681D01*
X109468357Y-76287681D01*
X109397401Y-76526018D01*
X109366643Y-76772779D01*
X107696500Y-76772779D01*
X107696500Y-71645001D01*
X109870500Y-71645001D01*
X109870501Y-71645019D01*
X109881000Y-71747796D01*
X109881001Y-71747799D01*
X109926679Y-71885643D01*
X109936186Y-71914334D01*
X110028288Y-72063656D01*
X110152344Y-72187712D01*
X110301666Y-72279814D01*
X110468203Y-72334999D01*
X110570991Y-72345500D01*
X111171008Y-72345499D01*
X111171016Y-72345498D01*
X111171019Y-72345498D01*
X111227302Y-72339748D01*
X111273797Y-72334999D01*
X111440334Y-72279814D01*
X111589656Y-72187712D01*
X111713712Y-72063656D01*
X111805814Y-71914334D01*
X111860999Y-71747797D01*
X111871500Y-71645009D01*
X111871499Y-70594992D01*
X111870845Y-70588594D01*
X111860999Y-70492203D01*
X111860998Y-70492200D01*
X111838239Y-70423519D01*
X111805814Y-70325666D01*
X111713712Y-70176344D01*
X111589656Y-70052288D01*
X111440334Y-69960186D01*
X111273797Y-69905001D01*
X111273795Y-69905000D01*
X111171010Y-69894500D01*
X110570998Y-69894500D01*
X110570980Y-69894501D01*
X110468203Y-69905000D01*
X110468200Y-69905001D01*
X110301668Y-69960185D01*
X110301663Y-69960187D01*
X110152342Y-70052289D01*
X110028289Y-70176342D01*
X109936187Y-70325663D01*
X109936185Y-70325668D01*
X109913323Y-70394662D01*
X109881001Y-70492203D01*
X109881001Y-70492204D01*
X109881000Y-70492204D01*
X109870500Y-70594983D01*
X109870500Y-71645001D01*
X107696500Y-71645001D01*
X107696500Y-67906696D01*
X109140500Y-67906696D01*
X109143401Y-67943567D01*
X109143402Y-67943573D01*
X109189254Y-68101393D01*
X109189255Y-68101396D01*
X109189256Y-68101398D01*
X109197647Y-68115586D01*
X109272917Y-68242862D01*
X109272923Y-68242870D01*
X109389129Y-68359076D01*
X109389133Y-68359079D01*
X109389135Y-68359081D01*
X109530602Y-68442744D01*
X109556307Y-68450212D01*
X109688426Y-68488597D01*
X109688429Y-68488597D01*
X109688431Y-68488598D01*
X109700722Y-68489565D01*
X109725304Y-68491500D01*
X109725306Y-68491500D01*
X111606696Y-68491500D01*
X111625131Y-68490049D01*
X111643569Y-68488598D01*
X111643571Y-68488597D01*
X111643573Y-68488597D01*
X111718291Y-68466889D01*
X111801398Y-68442744D01*
X111942865Y-68359081D01*
X112059081Y-68242865D01*
X112142744Y-68101398D01*
X112179866Y-67973623D01*
X112188597Y-67943573D01*
X112188598Y-67943567D01*
X112189082Y-67937424D01*
X112191500Y-67906694D01*
X112191500Y-67475306D01*
X112188598Y-67438431D01*
X112186759Y-67432102D01*
X112145514Y-67290137D01*
X112142744Y-67280602D01*
X112059081Y-67139135D01*
X112059078Y-67139132D01*
X112054298Y-67132969D01*
X112056750Y-67131066D01*
X112030155Y-67082421D01*
X112035104Y-67012726D01*
X112055940Y-66980304D01*
X112054298Y-66979031D01*
X112059075Y-66972870D01*
X112059081Y-66972865D01*
X112142744Y-66831398D01*
X112181092Y-66699406D01*
X112188597Y-66673573D01*
X112188598Y-66673567D01*
X112189601Y-66660830D01*
X112190757Y-66646135D01*
X112191500Y-66636696D01*
X112191500Y-66205304D01*
X112188598Y-66168432D01*
X112188597Y-66168426D01*
X112142745Y-66010606D01*
X112142744Y-66010603D01*
X112142744Y-66010602D01*
X112059081Y-65869135D01*
X112059078Y-65869132D01*
X112054298Y-65862969D01*
X112056750Y-65861066D01*
X112030155Y-65812421D01*
X112035104Y-65742726D01*
X112055940Y-65710304D01*
X112054298Y-65709031D01*
X112059075Y-65702870D01*
X112059081Y-65702865D01*
X112142744Y-65561398D01*
X112188598Y-65403569D01*
X112191500Y-65366694D01*
X112191500Y-64935306D01*
X112188598Y-64898431D01*
X112186087Y-64889789D01*
X112142745Y-64740606D01*
X112142744Y-64740603D01*
X112142744Y-64740602D01*
X112059081Y-64599135D01*
X112059078Y-64599132D01*
X112054298Y-64592969D01*
X112056750Y-64591066D01*
X112030155Y-64542421D01*
X112035104Y-64472726D01*
X112055940Y-64440304D01*
X112054298Y-64439031D01*
X112059075Y-64432870D01*
X112059081Y-64432865D01*
X112142744Y-64291398D01*
X112188598Y-64133569D01*
X112191500Y-64096694D01*
X112191500Y-63665306D01*
X112188598Y-63628431D01*
X112177379Y-63589816D01*
X112142745Y-63470606D01*
X112142744Y-63470603D01*
X112142744Y-63470602D01*
X112059081Y-63329135D01*
X112059079Y-63329133D01*
X112059076Y-63329129D01*
X111942870Y-63212923D01*
X111942862Y-63212917D01*
X111801396Y-63129255D01*
X111801393Y-63129254D01*
X111643573Y-63083402D01*
X111643567Y-63083401D01*
X111606696Y-63080500D01*
X111606694Y-63080500D01*
X109725306Y-63080500D01*
X109725304Y-63080500D01*
X109688432Y-63083401D01*
X109688426Y-63083402D01*
X109530606Y-63129254D01*
X109530603Y-63129255D01*
X109389137Y-63212917D01*
X109389129Y-63212923D01*
X109272923Y-63329129D01*
X109272917Y-63329137D01*
X109189255Y-63470603D01*
X109189254Y-63470606D01*
X109143402Y-63628426D01*
X109143401Y-63628432D01*
X109140500Y-63665304D01*
X109140500Y-64096696D01*
X109143401Y-64133567D01*
X109143402Y-64133573D01*
X109189254Y-64291393D01*
X109189255Y-64291396D01*
X109272917Y-64432862D01*
X109277702Y-64439031D01*
X109275256Y-64440927D01*
X109301857Y-64489642D01*
X109296873Y-64559334D01*
X109276069Y-64591703D01*
X109277702Y-64592969D01*
X109272917Y-64599137D01*
X109189255Y-64740603D01*
X109189254Y-64740606D01*
X109143402Y-64898426D01*
X109143401Y-64898432D01*
X109140500Y-64935304D01*
X109140500Y-65366696D01*
X109143401Y-65403567D01*
X109143402Y-65403573D01*
X109189254Y-65561393D01*
X109189255Y-65561396D01*
X109272917Y-65702862D01*
X109277702Y-65709031D01*
X109275256Y-65710927D01*
X109301857Y-65759642D01*
X109296873Y-65829334D01*
X109276069Y-65861703D01*
X109277702Y-65862969D01*
X109272917Y-65869137D01*
X109189255Y-66010603D01*
X109189254Y-66010606D01*
X109143402Y-66168426D01*
X109143401Y-66168432D01*
X109140500Y-66205304D01*
X109140500Y-66636696D01*
X109143401Y-66673567D01*
X109143402Y-66673573D01*
X109189254Y-66831393D01*
X109189255Y-66831396D01*
X109189256Y-66831398D01*
X109216516Y-66877493D01*
X109272917Y-66972862D01*
X109277702Y-66979031D01*
X109275256Y-66980927D01*
X109301857Y-67029642D01*
X109296873Y-67099334D01*
X109276069Y-67131703D01*
X109277702Y-67132969D01*
X109272917Y-67139137D01*
X109189255Y-67280603D01*
X109189254Y-67280606D01*
X109143402Y-67438426D01*
X109143401Y-67438432D01*
X109140500Y-67475304D01*
X109140500Y-67906696D01*
X107696500Y-67906696D01*
X107696500Y-51940500D01*
X107716185Y-51873461D01*
X107768989Y-51827706D01*
X107820500Y-51816500D01*
X133544395Y-51816500D01*
X133611434Y-51836185D01*
G37*
%TD.AperFunction*%
%TA.AperFunction,Conductor*%
G36*
X144624564Y-77074670D02*
G01*
X144691499Y-77094708D01*
X144713292Y-77114569D01*
X144713925Y-77113937D01*
X144719031Y-77119043D01*
X144719032Y-77119044D01*
X144838956Y-77238968D01*
X144838958Y-77238969D01*
X144838959Y-77238970D01*
X144983294Y-77327998D01*
X144983297Y-77327999D01*
X144983303Y-77328003D01*
X145144292Y-77381349D01*
X145243655Y-77391500D01*
X145840344Y-77391499D01*
X145840352Y-77391498D01*
X145840355Y-77391498D01*
X145851287Y-77390381D01*
X145939708Y-77381349D01*
X145939716Y-77381346D01*
X145945047Y-77380206D01*
X146014721Y-77385419D01*
X146058687Y-77413777D01*
X147565181Y-78920271D01*
X147598666Y-78981594D01*
X147601500Y-79007952D01*
X147601500Y-79450696D01*
X147604401Y-79487567D01*
X147604402Y-79487573D01*
X147650254Y-79645393D01*
X147650255Y-79645396D01*
X147733917Y-79786862D01*
X147733923Y-79786870D01*
X147850129Y-79903076D01*
X147850140Y-79903085D01*
X147850455Y-79903271D01*
X147850650Y-79903480D01*
X147856298Y-79907861D01*
X147855591Y-79908772D01*
X147898136Y-79954343D01*
X147910637Y-80023085D01*
X147883988Y-80087673D01*
X147856078Y-80111856D01*
X147856298Y-80112139D01*
X147851092Y-80116176D01*
X147850455Y-80116729D01*
X147850140Y-80116914D01*
X147850129Y-80116923D01*
X147733923Y-80233129D01*
X147733917Y-80233137D01*
X147650255Y-80374603D01*
X147650254Y-80374606D01*
X147604402Y-80532426D01*
X147604401Y-80532432D01*
X147601500Y-80569304D01*
X147601500Y-81012047D01*
X147581815Y-81079086D01*
X147565181Y-81099728D01*
X147258728Y-81406181D01*
X147197405Y-81439666D01*
X147171047Y-81442500D01*
X146641500Y-81442500D01*
X146574461Y-81422815D01*
X146528706Y-81370011D01*
X146517500Y-81318500D01*
X146517500Y-81086386D01*
X146516331Y-81073517D01*
X146511086Y-81015804D01*
X146460478Y-80853394D01*
X146372472Y-80707815D01*
X146372470Y-80707813D01*
X146372469Y-80707811D01*
X146252188Y-80587530D01*
X146229383Y-80573744D01*
X146106606Y-80499522D01*
X145944196Y-80448914D01*
X145944194Y-80448913D01*
X145944192Y-80448913D01*
X145894778Y-80444423D01*
X145873616Y-80442500D01*
X145210384Y-80442500D01*
X145191145Y-80444248D01*
X145139807Y-80448913D01*
X144977393Y-80499522D01*
X144831811Y-80587530D01*
X144831810Y-80587531D01*
X144738161Y-80681181D01*
X144676838Y-80714666D01*
X144650480Y-80717500D01*
X143639520Y-80717500D01*
X143572481Y-80697815D01*
X143551839Y-80681181D01*
X143476339Y-80605681D01*
X143442854Y-80544358D01*
X143447838Y-80474666D01*
X143476339Y-80430319D01*
X143578468Y-80328189D01*
X143578469Y-80328188D01*
X143578472Y-80328185D01*
X143666478Y-80182606D01*
X143717086Y-80020196D01*
X143723500Y-79949616D01*
X143723500Y-79436384D01*
X143717086Y-79365804D01*
X143666478Y-79203394D01*
X143578472Y-79057815D01*
X143578470Y-79057813D01*
X143578469Y-79057811D01*
X143458188Y-78937530D01*
X143431671Y-78921500D01*
X143312606Y-78849522D01*
X143150196Y-78798914D01*
X143150194Y-78798913D01*
X143150192Y-78798913D01*
X143100778Y-78794423D01*
X143079616Y-78792500D01*
X143079613Y-78792500D01*
X142867533Y-78792500D01*
X142800494Y-78772815D01*
X142754739Y-78720011D01*
X142744795Y-78650853D01*
X142773820Y-78587297D01*
X142804412Y-78561768D01*
X142918865Y-78494081D01*
X143035081Y-78377865D01*
X143118744Y-78236398D01*
X143164598Y-78078569D01*
X143167500Y-78041694D01*
X143167500Y-77286452D01*
X143187185Y-77219413D01*
X143203814Y-77198775D01*
X143298133Y-77104455D01*
X143359454Y-77070972D01*
X143386458Y-77068140D01*
X144624564Y-77074670D01*
G37*
%TD.AperFunction*%
%TA.AperFunction,Conductor*%
G36*
X136433587Y-75829185D02*
G01*
X136479342Y-75881989D01*
X136489286Y-75951147D01*
X136460261Y-76014703D01*
X136454229Y-76021181D01*
X134236208Y-78239199D01*
X134223951Y-78249020D01*
X134224134Y-78249241D01*
X134218123Y-78254213D01*
X134170772Y-78304636D01*
X134149889Y-78325519D01*
X134149877Y-78325532D01*
X134145621Y-78331017D01*
X134141837Y-78335447D01*
X134109937Y-78369418D01*
X134109936Y-78369420D01*
X134100284Y-78386976D01*
X134089610Y-78403226D01*
X134077329Y-78419061D01*
X134077324Y-78419068D01*
X134058815Y-78461838D01*
X134056245Y-78467084D01*
X134033803Y-78507906D01*
X134028822Y-78527307D01*
X134022521Y-78545710D01*
X134014562Y-78564102D01*
X134014561Y-78564105D01*
X134007271Y-78610127D01*
X134006087Y-78615846D01*
X133994501Y-78660972D01*
X133994500Y-78660982D01*
X133994500Y-78681016D01*
X133992973Y-78700415D01*
X133989840Y-78720194D01*
X133989840Y-78720195D01*
X133994225Y-78766583D01*
X133994500Y-78772421D01*
X133994500Y-79057312D01*
X133974815Y-79124351D01*
X133962650Y-79140284D01*
X133887466Y-79223784D01*
X133792821Y-79387715D01*
X133792818Y-79387722D01*
X133734967Y-79565771D01*
X133734326Y-79567744D01*
X133714540Y-79756000D01*
X133734326Y-79944256D01*
X133734327Y-79944259D01*
X133792818Y-80124277D01*
X133792821Y-80124284D01*
X133887467Y-80288216D01*
X133965253Y-80374606D01*
X134014129Y-80428888D01*
X134167265Y-80540148D01*
X134167270Y-80540151D01*
X134340192Y-80617142D01*
X134340197Y-80617144D01*
X134525354Y-80656500D01*
X134525355Y-80656500D01*
X134714644Y-80656500D01*
X134714646Y-80656500D01*
X134899803Y-80617144D01*
X135072730Y-80540151D01*
X135225871Y-80428888D01*
X135352533Y-80288216D01*
X135447179Y-80124284D01*
X135505674Y-79944256D01*
X135525460Y-79756000D01*
X135505674Y-79567744D01*
X135447179Y-79387716D01*
X135352533Y-79223784D01*
X135289630Y-79153923D01*
X135277350Y-79140284D01*
X135247120Y-79077292D01*
X135245500Y-79057312D01*
X135245500Y-79050452D01*
X135265185Y-78983413D01*
X135281819Y-78962771D01*
X137544819Y-76699771D01*
X137606142Y-76666286D01*
X137675834Y-76671270D01*
X137731767Y-76713142D01*
X137756184Y-76778606D01*
X137756500Y-76787452D01*
X137756500Y-78041696D01*
X137759401Y-78078562D01*
X137759403Y-78078572D01*
X137768307Y-78109222D01*
X137768106Y-78179092D01*
X137736911Y-78231496D01*
X137212228Y-78756181D01*
X137150905Y-78789666D01*
X137124547Y-78792500D01*
X136828384Y-78792500D01*
X136809145Y-78794248D01*
X136757807Y-78798913D01*
X136595393Y-78849522D01*
X136449811Y-78937530D01*
X136329530Y-79057811D01*
X136241522Y-79203393D01*
X136190913Y-79365807D01*
X136184500Y-79436386D01*
X136184500Y-79949613D01*
X136190913Y-80020192D01*
X136190913Y-80020194D01*
X136190914Y-80020196D01*
X136241522Y-80182606D01*
X136320704Y-80313589D01*
X136329530Y-80328188D01*
X136431661Y-80430319D01*
X136465146Y-80491642D01*
X136460162Y-80561334D01*
X136431661Y-80605681D01*
X136329531Y-80707810D01*
X136329530Y-80707811D01*
X136311760Y-80737206D01*
X136241522Y-80853394D01*
X136192912Y-81009391D01*
X136154177Y-81067537D01*
X136090152Y-81095512D01*
X136074528Y-81096500D01*
X132701809Y-81096500D01*
X132634770Y-81076815D01*
X132614128Y-81060181D01*
X132607870Y-81053923D01*
X132607862Y-81053917D01*
X132529681Y-81007681D01*
X132466398Y-80970256D01*
X132466397Y-80970255D01*
X132466396Y-80970255D01*
X132466393Y-80970254D01*
X132308573Y-80924402D01*
X132308567Y-80924401D01*
X132271696Y-80921500D01*
X132271694Y-80921500D01*
X132021321Y-80921500D01*
X131954282Y-80901815D01*
X131908527Y-80849011D01*
X131898583Y-80779853D01*
X131927608Y-80716297D01*
X131970885Y-80684221D01*
X132085431Y-80633221D01*
X132135867Y-80622500D01*
X132271696Y-80622500D01*
X132290131Y-80621049D01*
X132308569Y-80619598D01*
X132308571Y-80619597D01*
X132308573Y-80619597D01*
X132356475Y-80605680D01*
X132466398Y-80573744D01*
X132607865Y-80490081D01*
X132724081Y-80373865D01*
X132807744Y-80232398D01*
X132847170Y-80096694D01*
X132853597Y-80074573D01*
X132853598Y-80074567D01*
X132856500Y-80037696D01*
X132856500Y-79606304D01*
X132853598Y-79569432D01*
X132853597Y-79569426D01*
X132807745Y-79411606D01*
X132807744Y-79411603D01*
X132807744Y-79411602D01*
X132724081Y-79270135D01*
X132724078Y-79270132D01*
X132724076Y-79270129D01*
X132607870Y-79153923D01*
X132607862Y-79153917D01*
X132466396Y-79070255D01*
X132466393Y-79070254D01*
X132308573Y-79024402D01*
X132308567Y-79024401D01*
X132271696Y-79021500D01*
X132271694Y-79021500D01*
X132135867Y-79021500D01*
X132085431Y-79010779D01*
X131973307Y-78960857D01*
X131973302Y-78960855D01*
X131827501Y-78929865D01*
X131788146Y-78921500D01*
X131598854Y-78921500D01*
X131566397Y-78928398D01*
X131413697Y-78960855D01*
X131413692Y-78960857D01*
X131301569Y-79010779D01*
X131251133Y-79021500D01*
X131115304Y-79021500D01*
X131078432Y-79024401D01*
X131078426Y-79024402D01*
X130920606Y-79070254D01*
X130920603Y-79070255D01*
X130779137Y-79153917D01*
X130779129Y-79153923D01*
X130662921Y-79270132D01*
X130662918Y-79270135D01*
X130662730Y-79270454D01*
X130662516Y-79270652D01*
X130658140Y-79276296D01*
X130657229Y-79275589D01*
X130611659Y-79318136D01*
X130542917Y-79330638D01*
X130478329Y-79303990D01*
X130454144Y-79276078D01*
X130453861Y-79276298D01*
X130449820Y-79271088D01*
X130449267Y-79270450D01*
X130449081Y-79270135D01*
X130449078Y-79270132D01*
X130449076Y-79270129D01*
X130332870Y-79153923D01*
X130332862Y-79153917D01*
X130191396Y-79070255D01*
X130191393Y-79070254D01*
X130033573Y-79024402D01*
X130033567Y-79024401D01*
X129996696Y-79021500D01*
X129996694Y-79021500D01*
X128979452Y-79021500D01*
X128912413Y-79001815D01*
X128891771Y-78985181D01*
X127705772Y-77799181D01*
X127672287Y-77737858D01*
X127677271Y-77668166D01*
X127719143Y-77612233D01*
X127784607Y-77587816D01*
X127793453Y-77587500D01*
X128595652Y-77587500D01*
X128662691Y-77607185D01*
X128701767Y-77647347D01*
X128708187Y-77657967D01*
X128709530Y-77660188D01*
X128829811Y-77780469D01*
X128829813Y-77780470D01*
X128829815Y-77780472D01*
X128975394Y-77868478D01*
X129137804Y-77919086D01*
X129208384Y-77925500D01*
X129208387Y-77925500D01*
X129871613Y-77925500D01*
X129871616Y-77925500D01*
X129942196Y-77919086D01*
X130104606Y-77868478D01*
X130250185Y-77780472D01*
X130370472Y-77660185D01*
X130458478Y-77514606D01*
X130509086Y-77352196D01*
X130515500Y-77281616D01*
X130515500Y-76768384D01*
X130509086Y-76697804D01*
X130458478Y-76535394D01*
X130370472Y-76389815D01*
X130370470Y-76389813D01*
X130370469Y-76389811D01*
X130268339Y-76287681D01*
X130234854Y-76226358D01*
X130239838Y-76156666D01*
X130268339Y-76112319D01*
X130370468Y-76010189D01*
X130370469Y-76010188D01*
X130370472Y-76010185D01*
X130453182Y-75873365D01*
X130504708Y-75826181D01*
X130547626Y-75814068D01*
X130593046Y-75809775D01*
X130598884Y-75809500D01*
X136366548Y-75809500D01*
X136433587Y-75829185D01*
G37*
%TD.AperFunction*%
%TA.AperFunction,Conductor*%
G36*
X125392649Y-65796185D02*
G01*
X125410491Y-65810105D01*
X125426418Y-65825062D01*
X125443976Y-65834714D01*
X125460233Y-65845393D01*
X125476064Y-65857673D01*
X125495737Y-65866186D01*
X125518833Y-65876182D01*
X125524077Y-65878750D01*
X125564908Y-65901197D01*
X125577523Y-65904435D01*
X125584305Y-65906177D01*
X125602719Y-65912481D01*
X125621104Y-65920438D01*
X125667157Y-65927732D01*
X125672826Y-65928906D01*
X125717981Y-65940500D01*
X125738016Y-65940500D01*
X125757413Y-65942026D01*
X125777196Y-65945160D01*
X125823584Y-65940775D01*
X125829422Y-65940500D01*
X127932500Y-65940500D01*
X127999539Y-65960185D01*
X128045294Y-66012989D01*
X128056500Y-66064500D01*
X128056500Y-66296616D01*
X128062914Y-66367196D01*
X128073147Y-66400034D01*
X128074297Y-66469894D01*
X128037496Y-66529286D01*
X128000407Y-66552216D01*
X127966884Y-66565488D01*
X127961358Y-66567380D01*
X127916610Y-66580381D01*
X127916609Y-66580382D01*
X127899367Y-66590579D01*
X127881899Y-66599137D01*
X127863269Y-66606513D01*
X127863267Y-66606514D01*
X127825576Y-66633898D01*
X127820694Y-66637105D01*
X127780579Y-66660830D01*
X127766408Y-66675000D01*
X127751623Y-66687628D01*
X127735412Y-66699407D01*
X127705709Y-66735310D01*
X127701777Y-66739631D01*
X126439646Y-68001761D01*
X126378323Y-68035246D01*
X126319873Y-68033855D01*
X126219408Y-68006937D01*
X125984001Y-67986341D01*
X125983999Y-67986341D01*
X125748596Y-68006936D01*
X125748586Y-68006938D01*
X125520344Y-68068094D01*
X125520337Y-68068096D01*
X125520337Y-68068097D01*
X125516393Y-68069936D01*
X125306171Y-68167964D01*
X125306169Y-68167965D01*
X125112597Y-68303505D01*
X124945505Y-68470597D01*
X124809965Y-68664169D01*
X124809964Y-68664171D01*
X124710098Y-68878335D01*
X124710094Y-68878344D01*
X124648938Y-69106586D01*
X124648936Y-69106596D01*
X124628341Y-69341999D01*
X124628341Y-69342000D01*
X124648936Y-69577403D01*
X124648938Y-69577413D01*
X124675856Y-69677872D01*
X124674193Y-69747722D01*
X124643762Y-69797646D01*
X123983228Y-70458181D01*
X123921905Y-70491666D01*
X123895547Y-70494500D01*
X123748602Y-70494500D01*
X123681563Y-70474815D01*
X123642486Y-70434651D01*
X123631984Y-70417279D01*
X123627472Y-70409815D01*
X123627471Y-70409814D01*
X123627468Y-70409810D01*
X123507188Y-70289530D01*
X123503555Y-70287334D01*
X123361606Y-70201522D01*
X123199196Y-70150914D01*
X123199194Y-70150913D01*
X123199192Y-70150913D01*
X123149778Y-70146423D01*
X123128616Y-70144500D01*
X123128613Y-70144500D01*
X122832453Y-70144500D01*
X122765414Y-70124815D01*
X122744772Y-70108181D01*
X122356803Y-69720212D01*
X122346980Y-69707950D01*
X122346759Y-69708134D01*
X122341786Y-69702123D01*
X122332534Y-69693435D01*
X122291364Y-69654773D01*
X122280919Y-69644328D01*
X122270475Y-69633883D01*
X122264986Y-69629625D01*
X122260561Y-69625847D01*
X122226582Y-69593938D01*
X122226580Y-69593936D01*
X122226577Y-69593935D01*
X122209029Y-69584288D01*
X122192763Y-69573604D01*
X122185933Y-69568306D01*
X122176936Y-69561327D01*
X122176935Y-69561326D01*
X122176933Y-69561325D01*
X122134168Y-69542818D01*
X122128922Y-69540248D01*
X122088093Y-69517803D01*
X122088092Y-69517802D01*
X122068693Y-69512822D01*
X122050281Y-69506518D01*
X122031898Y-69498562D01*
X122031892Y-69498560D01*
X121985874Y-69491272D01*
X121980152Y-69490087D01*
X121935021Y-69478500D01*
X121935019Y-69478500D01*
X121914984Y-69478500D01*
X121895586Y-69476973D01*
X121888162Y-69475797D01*
X121875805Y-69473840D01*
X121875804Y-69473840D01*
X121829416Y-69478225D01*
X121823578Y-69478500D01*
X121576781Y-69478500D01*
X121509742Y-69458815D01*
X121463987Y-69406011D01*
X121454043Y-69336853D01*
X121457705Y-69319905D01*
X121488597Y-69213573D01*
X121488598Y-69213567D01*
X121491500Y-69176696D01*
X121491500Y-68745304D01*
X121488598Y-68708432D01*
X121488597Y-68708426D01*
X121450535Y-68577418D01*
X121442744Y-68550602D01*
X121359081Y-68409135D01*
X121359078Y-68409132D01*
X121354298Y-68402969D01*
X121356750Y-68401066D01*
X121330155Y-68352421D01*
X121335104Y-68282726D01*
X121355940Y-68250304D01*
X121354298Y-68249031D01*
X121359075Y-68242870D01*
X121359081Y-68242865D01*
X121442744Y-68101398D01*
X121479866Y-67973623D01*
X121488597Y-67943573D01*
X121488598Y-67943566D01*
X121488781Y-67941245D01*
X121489244Y-67940028D01*
X121489737Y-67937333D01*
X121490237Y-67937424D01*
X121513662Y-67875956D01*
X121569892Y-67834483D01*
X121639617Y-67829994D01*
X121700701Y-67863914D01*
X121733749Y-67925474D01*
X121735757Y-67938367D01*
X121745913Y-68037776D01*
X121800637Y-68202922D01*
X121800642Y-68202933D01*
X121891971Y-68350999D01*
X121891974Y-68351003D01*
X122014996Y-68474025D01*
X122015000Y-68474028D01*
X122163066Y-68565357D01*
X122163069Y-68565358D01*
X122163075Y-68565362D01*
X122328225Y-68620087D01*
X122430152Y-68630500D01*
X122430157Y-68630500D01*
X123441843Y-68630500D01*
X123441848Y-68630500D01*
X123543775Y-68620087D01*
X123708925Y-68565362D01*
X123857003Y-68474026D01*
X123980026Y-68351003D01*
X124071362Y-68202925D01*
X124126087Y-68037775D01*
X124136500Y-67935848D01*
X124136500Y-67349152D01*
X124126087Y-67247225D01*
X124098614Y-67164316D01*
X124075794Y-67095449D01*
X124069500Y-67056445D01*
X124069500Y-66916601D01*
X124089185Y-66849562D01*
X124129348Y-66810485D01*
X124154185Y-66795472D01*
X124274472Y-66675185D01*
X124362478Y-66529606D01*
X124413086Y-66367196D01*
X124419500Y-66296616D01*
X124419500Y-65900500D01*
X124439185Y-65833461D01*
X124491989Y-65787706D01*
X124543500Y-65776500D01*
X125325610Y-65776500D01*
X125392649Y-65796185D01*
G37*
%TD.AperFunction*%
%TA.AperFunction,Conductor*%
G36*
X148558994Y-64043936D02*
G01*
X148589933Y-64046500D01*
X148589935Y-64046500D01*
X148620974Y-64046500D01*
X148714221Y-64050357D01*
X148730914Y-64048276D01*
X148741342Y-64046977D01*
X148749018Y-64046500D01*
X149773769Y-64046500D01*
X149820691Y-64056902D01*
X149820811Y-64056542D01*
X149824335Y-64057709D01*
X149826172Y-64058117D01*
X149827662Y-64058811D01*
X149827666Y-64058814D01*
X149994203Y-64113999D01*
X150096991Y-64124500D01*
X151147008Y-64124499D01*
X151147016Y-64124498D01*
X151147019Y-64124498D01*
X151203302Y-64118748D01*
X151249797Y-64113999D01*
X151416334Y-64058814D01*
X151416340Y-64058809D01*
X151417828Y-64058117D01*
X151419664Y-64057709D01*
X151423189Y-64056542D01*
X151423308Y-64056902D01*
X151470231Y-64046500D01*
X152529665Y-64046500D01*
X152591933Y-64046500D01*
X153075769Y-64046500D01*
X153122691Y-64056902D01*
X153122811Y-64056542D01*
X153126335Y-64057709D01*
X153128172Y-64058117D01*
X153129662Y-64058811D01*
X153129666Y-64058814D01*
X153296203Y-64113999D01*
X153398991Y-64124500D01*
X154402109Y-64124499D01*
X154469148Y-64144183D01*
X154489790Y-64160818D01*
X156385579Y-66056608D01*
X156419064Y-66117931D01*
X156414080Y-66187623D01*
X156372208Y-66243556D01*
X156367537Y-66246558D01*
X156247455Y-66336452D01*
X156247452Y-66336455D01*
X156161206Y-66451664D01*
X156161202Y-66451671D01*
X156110908Y-66586517D01*
X156105514Y-66636694D01*
X156104501Y-66646123D01*
X156104500Y-66646135D01*
X156104500Y-66721109D01*
X156084815Y-66788148D01*
X156068181Y-66808790D01*
X153863291Y-69013681D01*
X153801968Y-69047166D01*
X153775610Y-69050000D01*
X151339674Y-69050000D01*
X151294600Y-69041518D01*
X151281619Y-69036453D01*
X151281615Y-69036451D01*
X151038234Y-68985418D01*
X150789782Y-68975143D01*
X150789781Y-68975143D01*
X150789779Y-68975143D01*
X150612976Y-68997181D01*
X150543018Y-69005901D01*
X150304684Y-69076856D01*
X150081291Y-69186066D01*
X150081284Y-69186070D01*
X149878905Y-69330567D01*
X149786705Y-69422765D01*
X149762152Y-69441811D01*
X149750138Y-69448916D01*
X149633920Y-69565133D01*
X149633917Y-69565137D01*
X149550255Y-69706603D01*
X149550255Y-69706604D01*
X149539494Y-69743640D01*
X149531820Y-69763502D01*
X149449355Y-69932188D01*
X149445345Y-69945659D01*
X149407349Y-70004294D01*
X149343684Y-70033080D01*
X149274564Y-70022875D01*
X149221933Y-69976922D01*
X149202500Y-69910276D01*
X149202500Y-69901304D01*
X149199598Y-69864432D01*
X149199597Y-69864426D01*
X149154189Y-69708134D01*
X149153744Y-69706602D01*
X149070081Y-69565135D01*
X149070079Y-69565133D01*
X149070076Y-69565129D01*
X148953870Y-69448923D01*
X148953867Y-69448921D01*
X148953865Y-69448919D01*
X148953549Y-69448732D01*
X148953353Y-69448522D01*
X148947702Y-69444139D01*
X148948409Y-69443227D01*
X148905866Y-69397664D01*
X148893362Y-69328923D01*
X148920006Y-69264333D01*
X148947921Y-69240144D01*
X148947702Y-69239861D01*
X148952911Y-69235820D01*
X148953550Y-69235267D01*
X148953865Y-69235081D01*
X149070081Y-69118865D01*
X149153744Y-68977398D01*
X149195405Y-68834000D01*
X149199597Y-68819573D01*
X149199598Y-68819567D01*
X149202500Y-68782696D01*
X149202500Y-68652218D01*
X149219112Y-68590220D01*
X149229179Y-68572784D01*
X149287674Y-68392756D01*
X149307460Y-68204500D01*
X149287674Y-68016244D01*
X149229179Y-67836216D01*
X149229178Y-67836215D01*
X149229178Y-67836213D01*
X149219112Y-67818777D01*
X149202500Y-67756779D01*
X149202500Y-67626304D01*
X149199598Y-67589432D01*
X149199597Y-67589426D01*
X149155728Y-67438431D01*
X149153744Y-67431602D01*
X149070081Y-67290135D01*
X149070079Y-67290133D01*
X149070076Y-67290129D01*
X148953870Y-67173923D01*
X148953862Y-67173917D01*
X148875681Y-67127681D01*
X148812398Y-67090256D01*
X148812397Y-67090255D01*
X148812396Y-67090255D01*
X148812393Y-67090254D01*
X148654573Y-67044402D01*
X148654567Y-67044401D01*
X148617696Y-67041500D01*
X148617694Y-67041500D01*
X148312706Y-67041500D01*
X148245667Y-67021815D01*
X148199912Y-66969011D01*
X148189968Y-66899853D01*
X148218993Y-66836297D01*
X148238390Y-66818237D01*
X148274446Y-66791246D01*
X148360696Y-66676031D01*
X148410991Y-66541183D01*
X148417400Y-66481573D01*
X148417399Y-64167313D01*
X148437084Y-64100275D01*
X148489887Y-64054520D01*
X148546523Y-64043420D01*
X148558994Y-64043936D01*
G37*
%TD.AperFunction*%
%TA.AperFunction,Conductor*%
G36*
X136127539Y-67904185D02*
G01*
X136173294Y-67956989D01*
X136184500Y-68008500D01*
X136184500Y-68048547D01*
X136164815Y-68115586D01*
X136148181Y-68136228D01*
X135162228Y-69122181D01*
X135100905Y-69155666D01*
X135074547Y-69158500D01*
X132701809Y-69158500D01*
X132634770Y-69138815D01*
X132614128Y-69122181D01*
X132607870Y-69115923D01*
X132607862Y-69115917D01*
X132529681Y-69069681D01*
X132466398Y-69032256D01*
X132466397Y-69032255D01*
X132466396Y-69032255D01*
X132466393Y-69032254D01*
X132308573Y-68986402D01*
X132308567Y-68986401D01*
X132271696Y-68983500D01*
X132271694Y-68983500D01*
X131358821Y-68983500D01*
X131291782Y-68963815D01*
X131246027Y-68911011D01*
X131236083Y-68841853D01*
X131265108Y-68778297D01*
X131308385Y-68746221D01*
X131422931Y-68695221D01*
X131473367Y-68684500D01*
X132271696Y-68684500D01*
X132290131Y-68683049D01*
X132308569Y-68681598D01*
X132308571Y-68681597D01*
X132308573Y-68681597D01*
X132350191Y-68669505D01*
X132466398Y-68635744D01*
X132607865Y-68552081D01*
X132724081Y-68435865D01*
X132807744Y-68294398D01*
X132853598Y-68136569D01*
X132856500Y-68099694D01*
X132856500Y-68008500D01*
X132876185Y-67941461D01*
X132928989Y-67895706D01*
X132980500Y-67884500D01*
X136060500Y-67884500D01*
X136127539Y-67904185D01*
G37*
%TD.AperFunction*%
%TA.AperFunction,Conductor*%
G36*
X130744724Y-68744024D02*
G01*
X130745013Y-68743135D01*
X130751191Y-68745141D01*
X130751197Y-68745144D01*
X130936354Y-68784500D01*
X130936355Y-68784500D01*
X130936854Y-68784606D01*
X130998336Y-68817798D01*
X131032113Y-68878961D01*
X131027461Y-68948675D01*
X130985857Y-69004808D01*
X130945671Y-69024972D01*
X130920603Y-69032255D01*
X130772420Y-69119890D01*
X130771345Y-69118073D01*
X130716448Y-69139620D01*
X130647932Y-69125931D01*
X130597694Y-69077373D01*
X130581500Y-69016104D01*
X130581500Y-68860533D01*
X130601185Y-68793494D01*
X130653989Y-68747739D01*
X130723147Y-68737795D01*
X130744724Y-68744024D01*
G37*
%TD.AperFunction*%
%TA.AperFunction,Conductor*%
G36*
X132993549Y-58259185D02*
G01*
X133014191Y-58275819D01*
X133384681Y-58646309D01*
X133418166Y-58707632D01*
X133421000Y-58733990D01*
X133421000Y-66481570D01*
X133421001Y-66481581D01*
X133422578Y-66496249D01*
X133410170Y-66565008D01*
X133362558Y-66616144D01*
X133299288Y-66633500D01*
X132880624Y-66633500D01*
X132813585Y-66613815D01*
X132767830Y-66561011D01*
X132757886Y-66491853D01*
X132762238Y-66472611D01*
X132768763Y-66451671D01*
X132795086Y-66367196D01*
X132801500Y-66296616D01*
X132801500Y-65783384D01*
X132795086Y-65712804D01*
X132744478Y-65550394D01*
X132656472Y-65404815D01*
X132656470Y-65404813D01*
X132656469Y-65404811D01*
X132554339Y-65302681D01*
X132520854Y-65241358D01*
X132525838Y-65171666D01*
X132554339Y-65127319D01*
X132656468Y-65025189D01*
X132656469Y-65025188D01*
X132656472Y-65025185D01*
X132744478Y-64879606D01*
X132795086Y-64717196D01*
X132801500Y-64646616D01*
X132801500Y-64133384D01*
X132795086Y-64062804D01*
X132744478Y-63900394D01*
X132656472Y-63754815D01*
X132656470Y-63754813D01*
X132656469Y-63754811D01*
X132536188Y-63634530D01*
X132536186Y-63634529D01*
X132536185Y-63634528D01*
X132511348Y-63619513D01*
X132464162Y-63567984D01*
X132451500Y-63513397D01*
X132451500Y-63336004D01*
X132471185Y-63268965D01*
X132510403Y-63230465D01*
X132529044Y-63218968D01*
X132648968Y-63099044D01*
X132738003Y-62954697D01*
X132791349Y-62793708D01*
X132801500Y-62694345D01*
X132801499Y-62147656D01*
X132801336Y-62146064D01*
X132791349Y-62048292D01*
X132791348Y-62048289D01*
X132758660Y-61949642D01*
X132738003Y-61887303D01*
X132737999Y-61887297D01*
X132737998Y-61887294D01*
X132648970Y-61742959D01*
X132648967Y-61742955D01*
X132529044Y-61623032D01*
X132529040Y-61623029D01*
X132384705Y-61534001D01*
X132384699Y-61533998D01*
X132384697Y-61533997D01*
X132361336Y-61526256D01*
X132223709Y-61480651D01*
X132124352Y-61470500D01*
X132124345Y-61470500D01*
X131811453Y-61470500D01*
X131744414Y-61450815D01*
X131723772Y-61434181D01*
X130929803Y-60640212D01*
X130919980Y-60627950D01*
X130919759Y-60628134D01*
X130914786Y-60622123D01*
X130884724Y-60593893D01*
X130849329Y-60533652D01*
X130852121Y-60463838D01*
X130892215Y-60406617D01*
X130956880Y-60380155D01*
X130969607Y-60379500D01*
X130989347Y-60379500D01*
X130989350Y-60379500D01*
X130996228Y-60378630D01*
X131002041Y-60378172D01*
X131048627Y-60376709D01*
X131067869Y-60371117D01*
X131086912Y-60367174D01*
X131106792Y-60364664D01*
X131150122Y-60347507D01*
X131155646Y-60345617D01*
X131159396Y-60344527D01*
X131200390Y-60332618D01*
X131217629Y-60322422D01*
X131235103Y-60313862D01*
X131253727Y-60306488D01*
X131253727Y-60306487D01*
X131253732Y-60306486D01*
X131291449Y-60279082D01*
X131296305Y-60275892D01*
X131336420Y-60252170D01*
X131350589Y-60237999D01*
X131365379Y-60225368D01*
X131381587Y-60213594D01*
X131411299Y-60177676D01*
X131415212Y-60173376D01*
X131723771Y-59864818D01*
X131785094Y-59831333D01*
X131811452Y-59828499D01*
X132124338Y-59828499D01*
X132124344Y-59828499D01*
X132124352Y-59828498D01*
X132124355Y-59828498D01*
X132178760Y-59822940D01*
X132223708Y-59818349D01*
X132384697Y-59765003D01*
X132529044Y-59675968D01*
X132648968Y-59556044D01*
X132738003Y-59411697D01*
X132791349Y-59250708D01*
X132801500Y-59151345D01*
X132801499Y-58604656D01*
X132800729Y-58597121D01*
X132791349Y-58505292D01*
X132791348Y-58505288D01*
X132757289Y-58402504D01*
X132754887Y-58332675D01*
X132790619Y-58272633D01*
X132853140Y-58241441D01*
X132874995Y-58239500D01*
X132926510Y-58239500D01*
X132993549Y-58259185D01*
G37*
%TD.AperFunction*%
%TD*%
M02*
